G04 ================== begin FILE IDENTIFICATION RECORD ==================*
G04 Layout Name:  d:/Project/Circuit/ORCAD/KVP/03v2/pcb/kvp_03v2.brd*
G04 Film Name:    BOTTOM*
G04 File Format:  Gerber RS274X*
G04 File Origin:  Cadence Allegro 16.6-S019*
G04 Origin Date:  Thu Jan 16 17:14:19 2014*
G04 *
G04 Layer:  ETCH/BOTTOM*
G04 Layer:  PIN/BOTTOM*
G04 Layer:  VIA CLASS/BOTTOM*
G04 *
G04 Offset:    (0.000 0.000)*
G04 Mirror:    No*
G04 Mode:      Positive*
G04 Rotation:  0*
G04 FullContactRelief:  No*
G04 UndefLineWidth:     0.250*
G04 ================== end FILE IDENTIFICATION RECORD ====================*
%FSLAX34Y34*MOMM*%
%IR0*IPPOS*OFA0.00000B0.00000*MIA0B0*SFA1.00000B1.00000*%
%ADD11C,1.*%
%ADD14C,3.1*%
%ADD10C,4.*%
%ADD21C,2.5*%
%ADD15C,1.6*%
%ADD13C,1.55*%
%ADD18C,1.95*%
%ADD12R,1.55X1.55*%
%ADD16R,1.95X1.95*%
%ADD17R,1.1X2.7*%
%ADD20R,2.7X1.1*%
%ADD22R,2.5X2.5*%
%ADD23C,.2*%
%ADD19R,1.8X1.25*%
%ADD24C,.5*%
%ADD25C,.25*%
%ADD26C,.35*%
%ADD27C,.45*%
%ADD29C,2.008*%
%ADD31C,3.404*%
%ADD28C,2.254*%
%ADD30C,2.058*%
%ADD32C,3.158*%
G75*
%LPD*%
G75*
G36*
G01X272550Y315350D02*
G02X262550Y325350I0J10000D01*
G01Y539810D01*
G03X259620Y546880I-10000J-2D01*
G01X144830Y661670D01*
G02X141900Y668740I7070J7072D01*
G01Y1569000D01*
G03X131900Y1579000I-10000J0D01*
G01X113050D01*
G02X111880Y1579800I-3J1251D01*
G01X110900Y1582350D01*
X111080Y1583080D01*
X111370Y1583350D01*
G03X96230I-7570J8350D01*
G01X96520Y1583080D01*
X96700Y1582350D01*
X95720Y1579800D01*
G02X94550Y1579000I-1167J451D01*
G01X62250D01*
G02X61080Y1579800I-3J1251D01*
G01X60100Y1582350D01*
X60280Y1583080D01*
X60570Y1583350D01*
G03X45430I-7570J8350D01*
G01X45720Y1583080D01*
X45900Y1582350D01*
X44920Y1579800D01*
G02X43750Y1579000I-1167J451D01*
G01X40680D01*
G02X40460Y1578940I-2329J8106D01*
G02X40140Y1578910I-276J1222D01*
G02X30300Y1589000I253J10090D01*
G01Y1765000D01*
G02X40300Y1775850I10000J817D01*
G01X40750D01*
G02X42000Y1774600I0J-1250D01*
G01Y1774350D01*
X41900Y1774120D01*
G03X53000Y1757480I11100J-4618D01*
G01X155450D01*
G02X156340Y1757110I2J-1250D01*
G01X224760Y1688690D01*
G02X225130Y1687800I-880J-888D01*
G01Y1175230D01*
G03X230510Y1162240I18370J-1D01*
G01X358110Y1034640D01*
G02X358480Y1033750I-880J-888D01*
G01Y337090D01*
G03X373370Y325420I12018J0D01*
G01X373710Y325500D01*
X374350Y325310D01*
X376070Y323450D01*
G02X376340Y322200I-914J-852D01*
G02X366850Y315350I-9490J3149D01*
G01X272550D01*
G37*
G36*
G01X374640Y1210700D02*
G02X367570Y1213630I2J10000D01*
G01X322630Y1258570D01*
G02X319700Y1265640I7070J7072D01*
G01Y1860610D01*
G03X316770Y1867680I-10000J-2D01*
G01X309930Y1874520D01*
G03X302860Y1877450I-7072J-7070D01*
G01X113750D01*
G02X112760Y1877940I2J1249D01*
G03X94840I-8960J-6840D01*
G02X93850Y1877450I-992J759D01*
G01X62950D01*
G02X61960Y1877940I2J1249D01*
G03X45660Y1879660I-8962J-6838D01*
G02X44070Y1879630I-813J946D01*
G02X40300Y1887450I6225J7820D01*
G01Y1891440D01*
G02X41550Y1892690I1250J0D01*
G01X41920D01*
X42540Y1892280D01*
X42690Y1891940D01*
G03X44650Y1904070I10309J4558D01*
G01X44380Y1903780D01*
X43650Y1903600D01*
X41100Y1904580D01*
G02X40300Y1905750I451J1167D01*
G01Y1909380D01*
G02X41550Y1910630I1250J0D01*
G01X63020D01*
G03X64270Y1911880I0J1250D01*
G01Y1931920D01*
G03X63020Y1933170I-1250J0D01*
G01X41550D01*
G02X40300Y1934420I0J1250D01*
G01Y1938050D01*
G02X41100Y1939220I1251J3D01*
G01X43650Y1940200D01*
X44380Y1940020D01*
X44650Y1939730D01*
G03Y1954870I8350J7570D01*
G01X44380Y1954580D01*
X43650Y1954400D01*
X41100Y1955380D01*
G02X40300Y1956550I451J1167D01*
G01Y1963450D01*
G02X41100Y1964620I1251J3D01*
G01X43650Y1965600D01*
X44380Y1965420D01*
X44650Y1965130D01*
G03Y1980270I8350J7570D01*
G01X44380Y1979980D01*
X43650Y1979800D01*
X41100Y1980780D01*
G02X40300Y1981950I451J1167D01*
G01Y1988850D01*
G02X41100Y1990020I1251J3D01*
G01X43650Y1991000D01*
X44380Y1990820D01*
X44650Y1990530D01*
G03Y2005670I8350J7570D01*
G01X44380Y2005380D01*
X43650Y2005200D01*
X41100Y2006180D01*
G02X40300Y2007350I451J1167D01*
G01Y2014250D01*
G02X41100Y2015420I1251J3D01*
G01X43650Y2016400D01*
X44380Y2016220D01*
X44650Y2015930D01*
G03Y2031070I8350J7570D01*
G01X44380Y2030780D01*
X43650Y2030600D01*
X41100Y2031580D01*
G02X40300Y2032750I451J1167D01*
G01Y2039650D01*
G02X41100Y2040820I1251J3D01*
G01X43650Y2041800D01*
X44380Y2041620D01*
X44650Y2041330D01*
G03Y2056470I8350J7570D01*
G01X44380Y2056180D01*
X43650Y2056000D01*
X41100Y2056980D01*
G02X40300Y2058150I451J1167D01*
G01Y2077000D01*
G02X50300Y2087000I10000J0D01*
G01X551000D01*
G02X561000Y2077000I0J-10000D01*
G01Y1747750D01*
G02X551000Y1737750I-10000J0D01*
G01X405900D01*
G03X395900Y1727750I0J-10000D01*
G01Y1220700D01*
G02X385900Y1210700I-10000J0D01*
G01X374640D01*
G37*
G36*
G01X43120Y2094070D02*
G03X42860Y2093960I7086J-17110D01*
G02X41830Y2093970I-504J1145D01*
G01X41160Y2094290D01*
G02X40460Y2095190I529J1134D01*
G02X40300Y2097000I9842J1782D01*
G01Y2102400D01*
G02X50300Y2112400I10000J0D01*
G01X658950D01*
G02X668950Y2102400I0J-10000D01*
G01Y2096560D01*
G02X668450Y2095560I-1250J0D01*
G01X666610Y2094180D01*
X666040Y2094080D01*
X665750Y2094160D01*
G03Y2072520I-3150J-10820D01*
G01X666040Y2072600D01*
X666610Y2072500D01*
X668450Y2071120D01*
G02X668950Y2070120I-750J-1000D01*
G01Y2043830D01*
G02X667700Y2042580I-1250J0D01*
G01X653810D01*
G03X652560Y2041330I0J-1250D01*
G01Y2023750D01*
G03X653810Y2022500I1250J0D01*
G01X667700D01*
G02X668950Y2021250I0J-1250D01*
G01Y1994960D01*
G02X668450Y1993960I-1250J0D01*
G01X666610Y1992580D01*
X666040Y1992480D01*
X665750Y1992560D01*
G03Y1970920I-3150J-10820D01*
G01X666040Y1971000D01*
X666610Y1970900D01*
X668450Y1969520D01*
G02X668950Y1968520I-750J-1000D01*
G01Y1942230D01*
G02X667700Y1940980I-1250J0D01*
G01X653810D01*
G03X652560Y1939730I0J-1250D01*
G01Y1922150D01*
G03X653810Y1920900I1250J0D01*
G01X667700D01*
G02X668950Y1919650I0J-1250D01*
G01Y1893360D01*
G02X668450Y1892360I-1250J0D01*
G01X666610Y1890980D01*
X666040Y1890880D01*
X665750Y1890960D01*
G03Y1869320I-3150J-10820D01*
G01X666040Y1869400D01*
X666610Y1869300D01*
X668450Y1867920D01*
G02X668950Y1866920I-750J-1000D01*
G01Y1840630D01*
G02X667700Y1839380I-1250J0D01*
G01X653810D01*
G03X652560Y1838130I0J-1250D01*
G01Y1820550D01*
G03X653810Y1819300I1250J0D01*
G01X667700D01*
G02X668950Y1818050I0J-1250D01*
G01Y1791760D01*
G02X668450Y1790760I-1250J0D01*
G01X666610Y1789380D01*
X666040Y1789280D01*
X665750Y1789360D01*
G03Y1767720I-3150J-10820D01*
G01X666040Y1767800D01*
X666610Y1767700D01*
X668450Y1766320D01*
G02X668950Y1765320I-750J-1000D01*
G01Y1739030D01*
G02X667700Y1737780I-1250J0D01*
G01X653810D01*
G03X652560Y1736530I0J-1250D01*
G01Y1719950D01*
G02X651310Y1718700I-1250J0D01*
G01X424950D01*
G03X414950Y1708700I0J-10000D01*
G01Y1219810D01*
G02X414940Y1219690I-1246J43D01*
G02X405960Y1210710I-9949J969D01*
G02X405830Y1210700I-161J1237D01*
G02X405420Y1210710I39J10001D01*
G02X404430Y1211280I60J1249D01*
G01X403160Y1213230D01*
X403090Y1213810D01*
X403200Y1214100D01*
G03X404420Y1220700I-17298J6610D01*
G01Y1727750D01*
G02X405900Y1729230I1480J0D01*
G01X551000D01*
G03X569520Y1747750I0J18520D01*
G01Y2077000D01*
G03X551000Y2095520I-18520J0D01*
G01X116230D01*
G02X115290Y2095950I3J1248D01*
G01X113860Y2097570D01*
X113710Y2098080D01*
X113750Y2098350D01*
G03X93850I-9950J1350D01*
G01X93890Y2098080D01*
X93740Y2097570D01*
X92310Y2095950D01*
G02X91370Y2095520I-943J818D01*
G01X65430D01*
G02X64490Y2095950I3J1248D01*
G01X63060Y2097570D01*
X62910Y2098080D01*
X62950Y2098350D01*
G03X43600Y2096160I-9951J1346D01*
G02X43590Y2095250I-1166J-442D01*
G01X43120Y2094070D01*
G37*
G36*
G01X466420Y360080D02*
Y479200D01*
G02X467150Y480960I2499J-5D01*
G01X474280Y488090D01*
G02X476040Y488820I1765J-1769D01*
G01X502860D01*
G02X504390Y488300I4J-2500D01*
G03Y503380I5810J7540D01*
G02X502860Y502860I-1526J1980D01*
G01X474730D01*
G03X465280Y498940I7J-13368D01*
G01X457310Y490980D01*
G02X454590Y490440I-1765J1770D01*
G01X453890Y490730D01*
X453050Y491990D01*
Y504890D01*
G02X463050Y514890I10000J0D01*
G01X518760D01*
G02X525830Y511960I-2J-10000D01*
G01X526320Y511470D01*
G03X533390Y508540I7072J7070D01*
G01X888270D01*
G02X890090Y507750I-3J-2499D01*
G01X892940Y504720D01*
X893290Y503750D01*
X893260Y503230D01*
G03X927240Y503170I16988J-1040D01*
G02X928370Y505410I2496J146D01*
G01X929420Y506100D01*
G02X932500Y505830I1368J-2094D01*
G02X935650Y498540I-6861J-7290D01*
G01Y302640D01*
G02X932500Y295350I-10011J0D01*
G02X929420Y295080I-1712J1824D01*
G01X928370Y295770D01*
G02X927240Y298010I1366J2094D01*
G03X893260Y297950I-16992J980D01*
G01X893290Y297430D01*
X892940Y296460D01*
X890090Y293430D01*
G02X888270Y292640I-1823J1709D01*
G01X558790D01*
G02X551720Y295570I2J10000D01*
G01X551230Y296060D01*
G03X544160Y298990I-7072J-7070D01*
G01X463050D01*
G02X453050Y308990I0J10000D01*
G01Y346530D01*
G02X454590Y348840I2500J2D01*
G01X455290Y349130D01*
X456780Y348840D01*
X481300Y324320D01*
X481650Y323590D01*
X481710Y323170D01*
G03X492370Y333830I9440J1220D01*
G01X491950Y333890D01*
X491220Y334240D01*
X467150Y358320D01*
G02X466420Y360080I1769J1765D01*
G37*
G36*
G01X474730Y756860D02*
G03X465280Y752940I7J-13368D01*
G01X457310Y744980D01*
G02X454590Y744440I-1765J1770D01*
G01X453890Y744730D01*
X453050Y745990D01*
Y758890D01*
G02X463050Y768890I10000J0D01*
G01X518760D01*
G02X525830Y765960I-2J-10000D01*
G01X526320Y765470D01*
G03X533390Y762540I7072J7070D01*
G01X888270D01*
G02X890090Y761750I-3J-2499D01*
G01X892940Y758720D01*
X893290Y757750D01*
X893260Y757230D01*
G03X927240Y757170I16988J-1040D01*
G02X928370Y759410I2496J146D01*
G01X929420Y760100D01*
G02X932500Y759830I1368J-2094D01*
G02X935650Y752540I-6861J-7290D01*
G01Y556640D01*
G02X932500Y549350I-10011J0D01*
G02X929420Y549080I-1712J1824D01*
G01X928370Y549770D01*
G02X927240Y552010I1366J2094D01*
G03X893260Y551950I-16992J980D01*
G01X893290Y551430D01*
X892940Y550460D01*
X890090Y547430D01*
G02X888270Y546640I-1823J1709D01*
G01X558790D01*
G02X551720Y549570I2J10000D01*
G01X551230Y550060D01*
G03X544160Y552990I-7072J-7070D01*
G01X463050D01*
G02X453050Y562990I0J10000D01*
G01Y600530D01*
G02X454590Y602840I2500J2D01*
G01X455290Y603130D01*
X456780Y602840D01*
X481300Y578320D01*
X481650Y577590D01*
X481710Y577170D01*
G03X492370Y587830I9440J1220D01*
G01X491950Y587890D01*
X491220Y588240D01*
X467150Y612320D01*
G02X466420Y614080I1769J1765D01*
G01Y733200D01*
G02X467150Y734960I2499J-5D01*
G01X474280Y742090D01*
G02X476040Y742820I1765J-1769D01*
G01X502860D01*
G02X504390Y742300I4J-2500D01*
G03Y757380I5810J7540D01*
G02X502860Y756860I-1526J1980D01*
G01X474730D01*
G37*
G36*
G01X927240Y806010D02*
G03X893260Y805950I-16992J980D01*
G01X893290Y805430D01*
X892940Y804460D01*
X890090Y801430D01*
G02X888270Y800640I-1823J1709D01*
G01X558790D01*
G02X551720Y803570I2J10000D01*
G01X551230Y804060D01*
G03X544160Y806990I-7072J-7070D01*
G01X463050D01*
G02X453050Y816990I0J10000D01*
G01Y854530D01*
G02X454590Y856840I2500J2D01*
G01X455290Y857130D01*
X456780Y856840D01*
X481300Y832320D01*
X481650Y831590D01*
X481710Y831170D01*
G03X492370Y841830I9440J1220D01*
G01X491950Y841890D01*
X491220Y842240D01*
X467150Y866320D01*
G02X466420Y868080I1769J1765D01*
G01Y987200D01*
G02X467150Y988960I2499J-5D01*
G01X474280Y996090D01*
G02X476040Y996820I1765J-1769D01*
G01X502860D01*
G02X504390Y996300I4J-2500D01*
G03Y1011380I5810J7540D01*
G02X502860Y1010860I-1526J1980D01*
G01X474730D01*
G03X465280Y1006940I7J-13368D01*
G01X457310Y998980D01*
G02X454590Y998440I-1765J1770D01*
G01X453890Y998730D01*
X453050Y999990D01*
Y1012890D01*
G02X463050Y1022890I10000J0D01*
G01X518760D01*
G02X525830Y1019960I-2J-10000D01*
G01X526320Y1019470D01*
G03X533390Y1016540I7072J7070D01*
G01X890730D01*
G02X893230Y1014040I0J-2500D01*
G01Y995670D01*
G03X895730Y993170I2500J0D01*
G01X924770D01*
G03X927270Y995670I0J2500D01*
G01Y1012810D01*
G02X929770Y1015310I2500J0D01*
G01X930520D01*
X931140Y1014900D01*
G02X935650Y1006540I-5493J-8360D01*
G01Y810640D01*
G02X932500Y803350I-10011J0D01*
G02X929420Y803080I-1712J1824D01*
G01X928370Y803770D01*
G02X927240Y806010I1366J2094D01*
G37*
G36*
G01X484800Y1170190D02*
Y1237540D01*
G02X486050Y1238790I1250J0D01*
G01X553800D01*
G03X555050Y1240040I0J1250D01*
G01Y1288340D01*
G02X556300Y1289590I1250J0D01*
G01X569010D01*
G02X570260Y1288340I0J-1250D01*
G01Y1255000D01*
G03X571510Y1253750I1250J0D01*
G01X586590D01*
G03X587840Y1255000I0J1250D01*
G01Y1288340D01*
G02X589090Y1289590I1250J0D01*
G01X591900D01*
G02X593150Y1288340I0J-1250D01*
G01Y1240040D01*
G03X594400Y1238790I1250J0D01*
G01X611360D01*
G02X612610Y1237540I0J-1250D01*
G01Y1234550D01*
G03X613860Y1233300I1250J0D01*
G01X635940D01*
G03X637190Y1234550I0J1250D01*
G01Y1237540D01*
G02X638440Y1238790I1250J0D01*
G01X706200D01*
G02X707450Y1237540I0J-1250D01*
G01Y1237530D01*
G02X706200Y1236280I-1250J0D01*
G01X679210D01*
G03X677960Y1235030I0J-1250D01*
G01Y1219950D01*
G03X679210Y1218700I1250J0D01*
G01X706200D01*
G02X707450Y1217450I0J-1250D01*
G01Y1214640D01*
G02X706200Y1213390I-1250J0D01*
G01X543600D01*
G03X542350Y1212140I0J-1250D01*
G01Y1170190D01*
G02X541100Y1168940I-1250J0D01*
G01X486050D01*
G02X484800Y1170190I0J1250D01*
G37*
G36*
G01Y1354340D02*
Y1421690D01*
G02X486050Y1422940I1250J0D01*
G01X553800D01*
G03X555050Y1424190I0J1250D01*
G01Y1472490D01*
G02X556300Y1473740I1250J0D01*
G01X569010D01*
G02X570260Y1472490I0J-1250D01*
G01Y1439150D01*
G03X571510Y1437900I1250J0D01*
G01X586590D01*
G03X587840Y1439150I0J1250D01*
G01Y1472490D01*
G02X589090Y1473740I1250J0D01*
G01X591900D01*
G02X593150Y1472490I0J-1250D01*
G01Y1424190D01*
G03X594400Y1422940I1250J0D01*
G01X611360D01*
G02X612610Y1421690I0J-1250D01*
G01Y1418700D01*
G03X613860Y1417450I1250J0D01*
G01X635940D01*
G03X637190Y1418700I0J1250D01*
G01Y1421690D01*
G02X638440Y1422940I1250J0D01*
G01X706200D01*
G02X707450Y1421690I0J-1250D01*
G01Y1421680D01*
G02X706200Y1420430I-1250J0D01*
G01X679210D01*
G03X677960Y1419180I0J-1250D01*
G01Y1404100D01*
G03X679210Y1402850I1250J0D01*
G01X706200D01*
G02X707450Y1401600I0J-1250D01*
G01Y1398790D01*
G02X706200Y1397540I-1250J0D01*
G01X543600D01*
G03X542350Y1396290I0J-1250D01*
G01Y1354340D01*
G02X541100Y1353090I-1250J0D01*
G01X486050D01*
G02X484800Y1354340I0J1250D01*
G37*
G36*
G01Y1525790D02*
Y1593140D01*
G02X486050Y1594390I1250J0D01*
G01X553400D01*
G03X554650Y1595640I0J1250D01*
G01Y1643940D01*
G02X555900Y1645190I1250J0D01*
G01X568610D01*
G02X569860Y1643940I0J-1250D01*
G01Y1610600D01*
G03X571110Y1609350I1250J0D01*
G01X586190D01*
G03X587440Y1610600I0J1250D01*
G01Y1643940D01*
G02X588690Y1645190I1250J0D01*
G01X591500D01*
G02X592750Y1643940I0J-1250D01*
G01Y1595640D01*
G03X594000Y1594390I1250J0D01*
G01X610960D01*
G02X612210Y1593140I0J-1250D01*
G01Y1590150D01*
G03X613460Y1588900I1250J0D01*
G01X635540D01*
G03X636790Y1590150I0J1250D01*
G01Y1593140D01*
G02X638040Y1594390I1250J0D01*
G01X705800D01*
G02X707050Y1593140I0J-1250D01*
G01Y1593130D01*
G02X705800Y1591880I-1250J0D01*
G01X678810D01*
G03X677560Y1590630I0J-1250D01*
G01Y1575550D01*
G03X678810Y1574300I1250J0D01*
G01X705800D01*
G02X707050Y1573050I0J-1250D01*
G01Y1570240D01*
G02X705800Y1568990I-1250J0D01*
G01X543200D01*
G03X541950Y1567740I0J-1250D01*
G01Y1525790D01*
G02X540700Y1524540I-1250J0D01*
G01X486050D01*
G02X484800Y1525790I0J1250D01*
G37*
G36*
G01X567750Y1170190D02*
Y1186740D01*
G02X569000Y1187990I1250J0D01*
G01X744300D01*
G02X745550Y1186740I0J-1250D01*
G01Y1170190D01*
G02X744300Y1168940I-1250J0D01*
G01X569000D01*
G02X567750Y1170190I0J1250D01*
G37*
G36*
G01X726500Y1227340D02*
Y1256590D01*
G03X725250Y1257840I-1250J0D01*
G01X613450D01*
G02X612200Y1259090I0J1250D01*
G01Y1262050D01*
G02X613450Y1263300I1250J0D01*
G01X635940D01*
G03X637190Y1264550I0J1250D01*
G01Y1281130D01*
G03X635940Y1282380I-1250J0D01*
G01X613450D01*
G02X612200Y1283630I0J1250D01*
G01Y1288340D01*
G02X613450Y1289590I1250J0D01*
G01X757000D01*
G02X758250Y1288340I0J-1250D01*
G01Y1227340D01*
G02X757000Y1226090I-1250J0D01*
G01X727750D01*
G02X726500Y1227340I0J1250D01*
G37*
G36*
G01X567750Y1354340D02*
Y1370890D01*
G02X569000Y1372140I1250J0D01*
G01X744300D01*
G02X745550Y1370890I0J-1250D01*
G01Y1354340D01*
G02X744300Y1353090I-1250J0D01*
G01X569000D01*
G02X567750Y1354340I0J1250D01*
G37*
G36*
G01X726500Y1411490D02*
Y1440740D01*
G03X725250Y1441990I-1250J0D01*
G01X613450D01*
G02X612200Y1443240I0J1250D01*
G01Y1446200D01*
G02X613450Y1447450I1250J0D01*
G01X635940D01*
G03X637190Y1448700I0J1250D01*
G01Y1465280D01*
G03X635940Y1466530I-1250J0D01*
G01X613450D01*
G02X612200Y1467780I0J1250D01*
G01Y1472490D01*
G02X613450Y1473740I1250J0D01*
G01X757000D01*
G02X758250Y1472490I0J-1250D01*
G01Y1411490D01*
G02X757000Y1410240I-1250J0D01*
G01X727750D01*
G02X726500Y1411490I0J1250D01*
G37*
G36*
G01X567350Y1525790D02*
Y1542340D01*
G02X568600Y1543590I1250J0D01*
G01X743900D01*
G02X745150Y1542340I0J-1250D01*
G01Y1525790D01*
G02X743900Y1524540I-1250J0D01*
G01X568600D01*
G02X567350Y1525790I0J1250D01*
G37*
G36*
G01X726100Y1582940D02*
Y1612190D01*
G03X724850Y1613440I-1250J0D01*
G01X613050D01*
G02X611800Y1614690I0J1250D01*
G01Y1617650D01*
G02X613050Y1618900I1250J0D01*
G01X635540D01*
G03X636790Y1620150I0J1250D01*
G01Y1636730D01*
G03X635540Y1637980I-1250J0D01*
G01X613050D01*
G02X611800Y1639230I0J1250D01*
G01Y1643940D01*
G02X613050Y1645190I1250J0D01*
G01X756600D01*
G02X757850Y1643940I0J-1250D01*
G01Y1582940D01*
G02X756600Y1581690I-1250J0D01*
G01X727350D01*
G02X726100Y1582940I0J1250D01*
G37*
G36*
G01X784900Y1289590D02*
X839550D01*
G02X840800Y1288340I0J-1250D01*
G01Y1195590D01*
G02X839550Y1194340I-1250J0D01*
G01X784900D01*
G02X783650Y1195590I0J1250D01*
G01Y1288340D01*
G02X784900Y1289590I1250J0D01*
G37*
G36*
G01X784890Y1473740D02*
X839540D01*
G02X840790Y1472480I2J-1248D01*
G01X840410Y1379730D01*
G02X839160Y1378490I-1252J12D01*
G01X784510D01*
G02X783260Y1379750I-2J1248D01*
G01X783640Y1472500D01*
G02X784890Y1473740I1252J-12D01*
G37*
G36*
G01X784500Y1645190D02*
X839150D01*
G02X840400Y1643940I0J-1250D01*
G01Y1551190D01*
G02X839150Y1549940I-1250J0D01*
G01X784500D01*
G02X783250Y1551190I0J1250D01*
G01Y1643940D01*
G02X784500Y1645190I1250J0D01*
G37*
%LPC*%
G75*
G36*
G01X93780Y1679170D02*
X113820D01*
G02X115070Y1677920I0J-1250D01*
G01Y1657880D01*
G02X113820Y1656630I-1250J0D01*
G01X93780D01*
G02X92530Y1657880I0J1250D01*
G01Y1677920D01*
G02X93780Y1679170I1250J0D01*
G37*
G36*
G01X42980D02*
X63020D01*
G02X64270Y1677920I0J-1250D01*
G01Y1657880D01*
G02X63020Y1656630I-1250J0D01*
G01X42980D01*
G02X41730Y1657880I0J1250D01*
G01Y1677920D01*
G02X42980Y1679170I1250J0D01*
G37*
G36*
G01X196610Y763540D02*
X214190D01*
G02X215440Y762290I0J-1250D01*
G01Y744710D01*
G02X214190Y743460I-1250J0D01*
G01X196610D01*
G02X195360Y744710I0J1250D01*
G01Y762290D01*
G02X196610Y763540I1250J0D01*
G37*
G36*
G01X93780Y1933170D02*
X113820D01*
G02X115070Y1931920I0J-1250D01*
G01Y1911880D01*
G02X113820Y1910630I-1250J0D01*
G01X93780D01*
G02X92530Y1911880I0J1250D01*
G01Y1931920D01*
G02X93780Y1933170I1250J0D01*
G37*
G36*
G01X450610Y1849390D02*
X468190D01*
G02X469440Y1848140I0J-1250D01*
G01Y1830560D01*
G02X468190Y1829310I-1250J0D01*
G01X450610D01*
G02X449360Y1830560I0J1250D01*
G01Y1848140D01*
G02X450610Y1849390I1250J0D01*
G37*
G36*
G01X641110Y1236280D02*
X672190D01*
G02X673440Y1235030I0J-1250D01*
G01Y1219950D01*
G02X672190Y1218700I-1250J0D01*
G01X641110D01*
G02X639860Y1219950I0J1250D01*
G01Y1235030D01*
G02X641110Y1236280I1250J0D01*
G37*
G36*
G01Y1420430D02*
X672190D01*
G02X673440Y1419180I0J-1250D01*
G01Y1404100D01*
G02X672190Y1402850I-1250J0D01*
G01X641110D01*
G02X639860Y1404100I0J1250D01*
G01Y1419180D01*
G02X641110Y1420430I1250J0D01*
G37*
G36*
G01X640710Y1591880D02*
X671790D01*
G02X673040Y1590630I0J-1250D01*
G01Y1575550D01*
G02X671790Y1574300I-1250J0D01*
G01X640710D01*
G02X639460Y1575550I0J1250D01*
G01Y1590630D01*
G02X640710Y1591880I1250J0D01*
G37*
G36*
G01X679210Y1284280D02*
X710290D01*
G02X711540Y1283030I0J-1250D01*
G01Y1267950D01*
G02X710290Y1266700I-1250J0D01*
G01X679210D01*
G02X677960Y1267950I0J1250D01*
G01Y1283030D01*
G02X679210Y1284280I1250J0D01*
G37*
G36*
G01X641110D02*
X672190D01*
G02X673440Y1283030I0J-1250D01*
G01Y1267950D01*
G02X672190Y1266700I-1250J0D01*
G01X641110D01*
G02X639860Y1267950I0J1250D01*
G01Y1283030D01*
G02X641110Y1284280I1250J0D01*
G37*
G36*
G01X679210Y1468430D02*
X710290D01*
G02X711540Y1467180I0J-1250D01*
G01Y1452100D01*
G02X710290Y1450850I-1250J0D01*
G01X679210D01*
G02X677960Y1452100I0J1250D01*
G01Y1467180D01*
G02X679210Y1468430I1250J0D01*
G37*
G36*
G01X641110D02*
X672190D01*
G02X673440Y1467180I0J-1250D01*
G01Y1452100D01*
G02X672190Y1450850I-1250J0D01*
G01X641110D01*
G02X639860Y1452100I0J1250D01*
G01Y1467180D01*
G02X641110Y1468430I1250J0D01*
G37*
G36*
G01X640710Y1639880D02*
X671790D01*
G02X673040Y1638630I0J-1250D01*
G01Y1623550D01*
G02X671790Y1622300I-1250J0D01*
G01X640710D01*
G02X639460Y1623550I0J1250D01*
G01Y1638630D01*
G02X640710Y1639880I1250J0D01*
G37*
G36*
G01X678810D02*
X709890D01*
G02X711140Y1638630I0J-1250D01*
G01Y1623550D01*
G02X709890Y1622300I-1250J0D01*
G01X678810D01*
G02X677560Y1623550I0J1250D01*
G01Y1638630D01*
G02X678810Y1639880I1250J0D01*
G37*
G54D29*
X103800Y1744100D03*
X53000D03*
X103800Y2074300D03*
X53000D03*
G54D31*
X910250Y349790D03*
Y451390D03*
Y603790D03*
Y705390D03*
Y857790D03*
Y959390D03*
G54D28*
X103800Y1642500D03*
Y1617100D03*
X53000Y1642500D03*
Y1617100D03*
X103800Y1718700D03*
Y1693300D03*
X53000Y1718700D03*
Y1693300D03*
X103800Y1896500D03*
Y1972700D03*
Y1947300D03*
Y2048900D03*
Y2023500D03*
Y1998100D03*
G54D30*
X230800Y753500D03*
X484800Y1839350D03*
G54D32*
X910250Y400590D03*
Y654590D03*
Y908590D03*
%LPD*%
G75*
G54D10*
X27600Y1388500D03*
Y2277500D03*
G54D20*
X694750Y1227490D03*
X656650D03*
X694750Y1275490D03*
X656650D03*
X694750Y1411640D03*
X656650D03*
X694750Y1459640D03*
X656650D03*
X656250Y1583090D03*
X694350D03*
X656250Y1631090D03*
X694350D03*
G54D11*
G01X103800Y1769500D02*
X158320D01*
G02X162810Y1767640I0J-6350D01*
G01X163640Y1766810D01*
G01X53000Y1769500D02*
X103800D01*
G01X370500Y997490D02*
Y1036620D01*
G03X368640Y1041110I-6350J0D01*
G01X239010Y1170740D01*
G02X237150Y1175230I4490J4490D01*
G01Y1690670D01*
G03X235290Y1695160I-6350J0D01*
G01X163640Y1766810D01*
G01D02*
Y1766920D01*
G02X165460Y1771320I6220J4D01*
G03X167300Y1775760I-4430J4437D01*
G01Y1794900D01*
G01Y2131450D02*
Y2099700D01*
G01X370500Y337090D02*
Y489490D01*
G01D02*
Y591090D01*
G01D02*
Y743490D01*
G01D02*
Y845090D01*
G01D02*
Y997490D01*
G01X834050Y1280550D02*
Y1309670D01*
G02X835910Y1314160I6350J0D01*
G01X892030Y1370280D01*
G02X896520Y1372140I4490J-4490D01*
G01X910250D01*
G01X834050Y1458350D02*
X847580Y1471880D01*
G02X852070Y1473740I4490J-4490D01*
G01X910250D01*
G01X834050Y1579000D02*
X837710Y1575340D01*
G01D02*
X910250D01*
X36300Y1705000D03*
X93000Y45950D03*
Y2285950D03*
X173650Y690000D03*
X147800Y667300D03*
X173650Y791600D03*
Y899550D03*
X143800Y1575300D03*
X177800Y1657300D03*
X165800Y1627300D03*
X116300Y1705000D03*
X167300Y1706000D03*
X153800Y1751300D03*
X167800Y1729300D03*
X117800Y1884300D03*
X167300Y1909200D03*
Y1883800D03*
Y1960000D03*
Y1985400D03*
Y1934600D03*
Y2061600D03*
Y2010800D03*
Y2036200D03*
X182450Y2068430D03*
X249850Y613800D03*
X207800Y607300D03*
X230800Y842400D03*
X256200Y864140D03*
X199050Y918600D03*
X237150Y982100D03*
X199050Y1045600D03*
Y1128150D03*
X224450Y1159900D03*
X218100Y1661550D03*
X218800Y1685300D03*
X243500Y2080650D03*
X271800Y323300D03*
X287950Y349790D03*
X300650Y381540D03*
X268900Y404250D03*
X307000Y464090D03*
X287950Y404250D03*
X325800Y527300D03*
X268900Y480450D03*
X307000Y483140D03*
X311800Y551300D03*
X268900Y543950D03*
X287950Y603790D03*
Y658250D03*
X300650Y635540D03*
X268900Y702700D03*
X307000Y718090D03*
Y737140D03*
X313350Y806990D03*
X326050Y781590D03*
X275250Y791600D03*
X287950Y857790D03*
X300650Y889540D03*
X287950Y912250D03*
X307000Y972090D03*
Y991140D03*
Y1060990D03*
X326050Y1035590D03*
X275250Y1045600D03*
X281600Y1102750D03*
X326050Y1267850D03*
Y1305950D03*
X313350Y1909200D03*
X307000Y1883800D03*
X326050Y1960000D03*
X319700Y1934600D03*
X326050Y2080650D03*
X357800Y321700D03*
X351450Y356140D03*
Y368840D03*
X370500Y337090D03*
X351450Y445040D03*
X349800Y395300D03*
X351450Y524900D03*
Y470440D03*
X370500Y489490D03*
X351450Y575700D03*
Y610140D03*
X370500Y591090D03*
X351450Y622840D03*
X349800Y649300D03*
X351450Y699040D03*
Y724440D03*
X370500Y743490D03*
X351450Y829700D03*
Y778900D03*
X370500Y845090D03*
X351450Y864140D03*
Y876840D03*
X349800Y903300D03*
X351450Y953040D03*
Y978440D03*
X370500Y997490D03*
X351450Y1032900D03*
X408600Y1223400D03*
X383200Y1217050D03*
X389550Y1283240D03*
X383200Y1255150D03*
X389550Y1337700D03*
X345100Y1331350D03*
X408600Y1407550D03*
X383200Y1439300D03*
X367760Y1491540D03*
X389550Y1467390D03*
Y1528200D03*
X345100Y1471050D03*
X408600Y1579000D03*
X389550Y1638840D03*
X383200Y1610750D03*
X364150Y1623450D03*
X389550Y1718700D03*
X414950Y1744100D03*
X383200Y1826650D03*
Y1909200D03*
X408600Y1985400D03*
X402250Y1960000D03*
X414950Y2010800D03*
X460250Y307340D03*
X492250Y341340D03*
X459400Y330740D03*
X491150Y324390D03*
X484800Y394240D03*
Y419640D03*
X474250Y481340D03*
X460250Y507340D03*
X491150Y578390D03*
X492250Y595340D03*
X460250Y561340D03*
X459400Y584740D03*
X484800Y648240D03*
Y673640D03*
X476250Y735340D03*
X460250Y761340D03*
X491150Y832390D03*
X460250Y815340D03*
X459400Y838740D03*
X492250Y849190D03*
X484800Y902240D03*
X476250Y989340D03*
X484800Y927640D03*
X460250Y1015340D03*
X491150Y1744100D03*
X472100Y1915550D03*
X453050Y1966350D03*
Y1928250D03*
X427650Y2061600D03*
X453050Y2042550D03*
X421300Y2036200D03*
X453050Y2017150D03*
Y1991750D03*
Y2080650D03*
X554650Y305340D03*
X522580Y304910D03*
X554650Y337090D03*
X522900Y349790D03*
X554650Y368840D03*
X529250Y394240D03*
X554650Y445040D03*
X518250Y455340D03*
X554650Y419640D03*
X520250Y507340D03*
X510200Y495840D03*
X522900Y603790D03*
X554650Y559340D03*
X522580Y558910D03*
X554650Y622840D03*
X529250Y648240D03*
X554650Y673640D03*
X510200Y749840D03*
X554650Y699040D03*
X518250Y709340D03*
X520250Y761340D03*
X554650Y845090D03*
Y813340D03*
X522900D03*
X529250Y902240D03*
X554650Y876840D03*
X522900Y857790D03*
X518250Y963340D03*
X554650Y953040D03*
Y927640D03*
X510200Y1003840D03*
X520250Y1016340D03*
X510600Y1283240D03*
Y1467390D03*
X510200Y1638840D03*
X535600Y1744100D03*
X554650Y1775850D03*
Y1826650D03*
Y1909200D03*
X497500Y1928250D03*
X548300Y1979050D03*
X554650Y2048900D03*
X535600Y2080650D03*
X592750Y298990D03*
X643550D03*
Y387890D03*
X592750Y337090D03*
Y362490D03*
Y387890D03*
X643550Y362490D03*
Y337090D03*
X592750Y425990D03*
X643550Y451390D03*
X592750Y464090D03*
X643550Y419640D03*
X592750Y502190D03*
X643550D03*
X592750Y591090D03*
Y552990D03*
Y616490D03*
X643550Y552990D03*
Y616490D03*
Y591090D03*
X592750Y679990D03*
X643550Y673640D03*
Y641890D03*
X592750D03*
X643550Y705390D03*
X592750Y718090D03*
Y756190D03*
X643550D03*
X592750Y845090D03*
Y806990D03*
X643550Y845090D03*
Y806990D03*
X592750Y895890D03*
Y870490D03*
X643550D03*
Y895890D03*
Y927640D03*
Y959390D03*
X592750Y972090D03*
Y933990D03*
Y1010190D03*
X643550D03*
X631250Y1226090D03*
Y1410240D03*
X630850Y1581690D03*
X581270Y1750450D03*
X586400Y1928250D03*
X581270Y2074300D03*
X713400Y298990D03*
Y324390D03*
Y362490D03*
Y419640D03*
Y451390D03*
Y502190D03*
Y552990D03*
Y578390D03*
Y616490D03*
Y673640D03*
Y705390D03*
Y756190D03*
Y832390D03*
Y806990D03*
Y870490D03*
Y927640D03*
Y959390D03*
Y1010190D03*
X789600Y305340D03*
Y318040D03*
Y381540D03*
Y368840D03*
Y432340D03*
Y419640D03*
Y483140D03*
Y495840D03*
Y559340D03*
Y572040D03*
Y635540D03*
Y622840D03*
Y686340D03*
Y673640D03*
Y737140D03*
Y749840D03*
Y813340D03*
Y826040D03*
Y889540D03*
Y876840D03*
Y991140D03*
Y940340D03*
Y927640D03*
Y1003840D03*
X827700Y343440D03*
Y400590D03*
Y457740D03*
Y597440D03*
Y654590D03*
Y711740D03*
Y908590D03*
Y851440D03*
Y965740D03*
X913000Y45950D03*
X884850Y324390D03*
Y375190D03*
Y425990D03*
Y476790D03*
Y578390D03*
Y629190D03*
Y679990D03*
Y730790D03*
Y832390D03*
Y883190D03*
Y984790D03*
Y933990D03*
X913000Y2285950D03*
G54D12*
X103800Y1439300D03*
X53000D03*
X103800Y1667900D03*
X53000D03*
X103800Y1921900D03*
X53000D03*
X103800Y2175900D03*
X53000D03*
X205400Y753500D03*
X459400Y1839350D03*
X662600Y1727740D03*
Y1829340D03*
Y1930940D03*
Y2032540D03*
G54D21*
X910250Y248190D03*
Y298990D03*
Y349790D03*
Y451390D03*
Y400590D03*
Y502190D03*
Y603790D03*
Y552990D03*
Y654590D03*
Y756190D03*
Y705390D03*
Y806990D03*
Y908590D03*
Y857790D03*
Y959390D03*
Y1321340D03*
Y1372140D03*
Y1422940D03*
Y1524540D03*
Y1473740D03*
Y1575340D03*
Y1676940D03*
Y1626140D03*
Y1727740D03*
Y1829340D03*
Y1778540D03*
Y1880140D03*
Y1981740D03*
Y1930940D03*
Y2032540D03*
G54D22*
Y1010190D03*
Y2083340D03*
G54D13*
X103800Y1515500D03*
Y1490100D03*
Y1464700D03*
X53000Y1515500D03*
Y1490100D03*
Y1464700D03*
X103800Y1591700D03*
Y1566300D03*
Y1540900D03*
X53000Y1591700D03*
Y1566300D03*
Y1540900D03*
X103800Y1642500D03*
Y1617100D03*
X53000Y1642500D03*
Y1617100D03*
X103800Y1744100D03*
Y1718700D03*
Y1693300D03*
X53000Y1744100D03*
Y1718700D03*
Y1693300D03*
X103800Y1820300D03*
Y1794900D03*
Y1769500D03*
X53000Y1820300D03*
Y1794900D03*
Y1769500D03*
X103800Y1896500D03*
Y1871100D03*
Y1845700D03*
X53000Y1896500D03*
Y1871100D03*
Y1845700D03*
X103800Y1972700D03*
Y1947300D03*
X53000Y1972700D03*
Y1947300D03*
X103800Y2048900D03*
Y2023500D03*
Y1998100D03*
X53000Y2048900D03*
Y2023500D03*
Y1998100D03*
X103800Y2125100D03*
Y2099700D03*
Y2074300D03*
X53000Y2125100D03*
Y2099700D03*
Y2074300D03*
X103800Y2201300D03*
Y2150500D03*
X53000Y2201300D03*
Y2150500D03*
X103800Y2226700D03*
X53000D03*
X713400Y1727740D03*
X662600Y1778540D03*
X713400D03*
Y1829340D03*
X662600Y1880140D03*
X713400D03*
X662600Y1981740D03*
X713400D03*
Y1930940D03*
Y2032540D03*
X662600Y2083340D03*
X713400D03*
X764200Y1727740D03*
X738800D03*
Y1778540D03*
X764200D03*
Y1829340D03*
X738800D03*
Y1880140D03*
X764200D03*
X738800Y1981740D03*
X764200D03*
Y1930940D03*
X738800D03*
X764200Y2032540D03*
X738800D03*
Y2083340D03*
X764200D03*
G54D23*
X993000Y55000D03*
Y2277500D03*
G54D14*
X167300Y1794900D03*
Y2131450D03*
G54D24*
G01X491150Y324390D02*
X461260Y354280D01*
G02X459400Y358770I4490J4490D01*
G01Y480510D01*
G02X461260Y485000I6350J0D01*
G01X470240Y493980D01*
G02X474730Y495840I4490J-4490D01*
G01X510200D01*
G01X491150Y578390D02*
X461260Y608280D01*
G02X459400Y612770I4490J4490D01*
G01Y734510D01*
G02X461260Y739000I6350J0D01*
G01X470240Y747980D01*
G02X474730Y749840I4490J-4490D01*
G01X510200D01*
G01X491150Y832390D02*
X461260Y862280D01*
G02X459400Y866770I4490J4490D01*
G01Y988510D01*
G02X461260Y993000I6350J0D01*
G01X470240Y1001980D01*
G02X474730Y1003840I4490J-4490D01*
G01X510200D01*
G01X530050Y1181640D02*
X529650Y1182040D01*
G01X530050Y1365790D02*
X529650Y1366190D01*
G01Y1537240D02*
X529250Y1537640D01*
G54D15*
X230800Y753500D03*
X484800Y1839350D03*
G54D25*
G01X531050Y1270540D02*
X520210Y1281380D01*
G03X515720Y1283240I-4490J-4490D01*
G01X510600D01*
G01X531050Y1454690D02*
X520210Y1465530D01*
G03X515720Y1467390I-4490J-4490D01*
G01X510600D01*
G01X530650Y1626140D02*
X519810Y1636980D01*
G03X515320Y1638840I-4490J-4490D01*
G01X510200D01*
G54D16*
X530050Y1181640D03*
Y1365790D03*
X529650Y1537240D03*
X745950Y1238790D03*
Y1422940D03*
X745550Y1594390D03*
G54D26*
G01X910250Y382300D02*
Y400590D01*
G01D02*
Y418880D01*
G01X891960Y400590D02*
X910250D01*
G01D02*
X928540D01*
G54D17*
X531050Y1270540D03*
Y1454690D03*
X530650Y1626140D03*
X579050Y1270540D03*
Y1454690D03*
X578650Y1626140D03*
G54D27*
G01X53000Y1732810D02*
Y1744100D01*
G01D02*
Y1755390D01*
G01X41710Y1744100D02*
X53000D01*
G01D02*
X64290D01*
G01X103800Y1732810D02*
Y1744100D01*
G01D02*
Y1755390D01*
G01X92510Y1744100D02*
X103800D01*
G01D02*
X115090D01*
G01X53000Y2099700D02*
Y2110990D01*
G01X41710Y2099700D02*
X53000D01*
G01D02*
X64290D01*
G01X103800D02*
Y2110990D01*
G01X92510Y2099700D02*
X103800D01*
G01D02*
X115090D01*
G01X53000Y2063010D02*
Y2074300D01*
G01D02*
Y2085590D01*
G01X41710Y2074300D02*
X53000D01*
G01D02*
X64290D01*
G01X103800Y2063010D02*
Y2074300D01*
G01D02*
Y2085590D01*
G01X92510Y2074300D02*
X103800D01*
G01D02*
X115090D01*
G01X230800Y741960D02*
Y753500D01*
G01D02*
Y765040D01*
G01X219260Y753500D02*
X230800D01*
G01D02*
X242340D01*
G01X205400Y742210D02*
Y753500D01*
G01D02*
Y764790D01*
G01X194110Y753500D02*
X205400D01*
G01D02*
X216690D01*
G01X484800Y1827810D02*
Y1839350D01*
G01X459400Y1828060D02*
Y1839350D01*
G01X484800D02*
Y1850890D01*
G01X473260Y1839350D02*
X484800D01*
G01D02*
X496340D01*
G01X459400D02*
Y1850640D01*
G01X448110Y1839350D02*
X459400D01*
G01D02*
X470690D01*
G01X638610Y1227490D02*
X656650D01*
G01X624900Y1232050D02*
Y1242840D01*
G01X611360Y1233430D02*
X624900Y1242840D01*
G01X579050Y1252500D02*
Y1270540D01*
G01X569010D02*
X579050D01*
G01D02*
X589090D01*
G01X624900Y1262050D02*
Y1272840D01*
G01D02*
Y1283630D01*
G01X638610Y1411640D02*
X656650D01*
G01X624900Y1416200D02*
Y1426990D01*
G01X611360Y1417580D02*
X624900Y1426990D01*
G01X579050Y1436650D02*
Y1454690D01*
G01X624900Y1446200D02*
Y1456990D01*
G01X569010Y1454690D02*
X579050D01*
G01D02*
X589090D01*
G01X624900Y1456990D02*
Y1467780D01*
G01X638210Y1583090D02*
X656250D01*
G01X624500Y1587650D02*
Y1598440D01*
G01X610960Y1589030D02*
X624500Y1598440D01*
G01Y1617650D02*
Y1628440D01*
G01D02*
Y1639230D01*
G01X578650Y1608100D02*
Y1626140D01*
G01X568610D02*
X578650D01*
G01D02*
X588690D01*
G01X656650Y1217450D02*
Y1227490D01*
G01X694750Y1217450D02*
Y1227490D01*
G01X656650D02*
Y1237530D01*
G01Y1227490D02*
X674690D01*
G01X694750D02*
Y1237530D01*
G01X676710Y1227490D02*
X694750D01*
G01X656650Y1265450D02*
Y1275490D01*
G01D02*
Y1285530D01*
G01Y1275490D02*
X674690D01*
G01X694750Y1265450D02*
Y1275490D01*
G01D02*
Y1285530D01*
G01X676710Y1275490D02*
X694750D01*
G01D02*
X712790D01*
G01X656650Y1401600D02*
Y1411640D01*
G01D02*
Y1421680D01*
G01Y1411640D02*
X674690D01*
G01X694750Y1401600D02*
Y1411640D01*
G01D02*
Y1421680D01*
G01X676710Y1411640D02*
X694750D01*
G01X656650Y1449600D02*
Y1459640D01*
G01X694750Y1449600D02*
Y1459640D01*
G01X656650D02*
Y1469680D01*
G01Y1459640D02*
X674690D01*
G01X694750D02*
Y1469680D01*
G01X676710Y1459640D02*
X694750D01*
G01D02*
X712790D01*
G01X694350Y1573050D02*
Y1583090D01*
G01D02*
Y1593130D01*
G01X676310Y1583090D02*
X694350D01*
G01X656250Y1573050D02*
Y1583090D01*
G01D02*
Y1593130D01*
G01Y1583090D02*
X674290D01*
G01X694350Y1621050D02*
Y1631090D01*
G01D02*
Y1641130D01*
G01X676310Y1631090D02*
X694350D01*
G01D02*
X712390D01*
G01X656250Y1621050D02*
Y1631090D01*
G01D02*
Y1641130D01*
G01Y1631090D02*
X674290D01*
G01X662600Y1727740D02*
Y1739030D01*
G01X651310Y1727740D02*
X662600D01*
G01Y1818050D02*
Y1829340D01*
G01D02*
Y1840630D01*
G01X651310Y1829340D02*
X662600D01*
G01Y1919650D02*
Y1930940D01*
G01D02*
Y1942230D01*
G01X651310Y1930940D02*
X662600D01*
G01Y2021250D02*
Y2032540D01*
G01D02*
Y2043830D01*
G01X651310Y2032540D02*
X662600D01*
G01X910250Y636300D02*
Y654590D01*
G01D02*
Y672880D01*
G01X891960Y654590D02*
X910250D01*
G01D02*
X928540D01*
G01X910250Y890300D02*
Y908590D01*
G01D02*
Y926880D01*
G01X891960Y908590D02*
X910250D01*
G01D02*
X928540D01*
G54D18*
X580050Y1181640D03*
Y1365790D03*
X579650Y1537240D03*
X795950Y1238790D03*
Y1422940D03*
X795550Y1594390D03*
G54D19*
X624900Y1242840D03*
Y1272840D03*
Y1426990D03*
Y1456990D03*
X624500Y1598440D03*
Y1628440D03*
M02*
