M48
METRIC,TZ
T01C.5
T02C1.
T03C1.3
T04C2.
T05C2.7
T06C2.7
;LEADER: 12 
;HEADER: 
;CODE  : ASCII 
;FILE  : kvp_03v2-1-2.drl for  ... layers TOP and BOTTOM
;T01 Holesize 1. = 0.500000 Tolerance = +0.000000/-0.000000 PLATED MM Quantity = 308
;T02 Holesize 2. = 1.000000 Tolerance = +0.000000/-0.000000 PLATED MM Quantity = 100
;T03 Holesize 3. = 1.300000 Tolerance = +0.000000/-0.000000 PLATED MM Quantity = 12
;T04 Holesize 4. = 2.000000 Tolerance = +0.000000/-0.000000 PLATED MM Quantity = 34
;T05 Holesize 5. = 2.700000 Tolerance = +0.000000/-0.000000 PLATED MM Quantity = 2
;T06 Holesize 6. = 2.700000 Tolerance = +0.000000/-0.000000 NON_PLATED MM Quantity = 2
%
G90
T01
X631250Y1226090
Y1410240
X630850Y1581690
X491150Y324390
X510200Y495840
X459400Y838740
X460250Y815340
X522900Y813340
X554650
X713400Y806990
X643550
X713400Y832390
X789600Y826040
Y813340
X827700Y851440
X884850Y832390
X643550Y895890
Y870490
X884850Y883190
Y933990
X713400Y870490
X827700Y908590
X789600Y876840
Y889540
X484800Y927640
X554650
X592750Y933990
X789600Y927640
Y940340
X643550Y845090
X789600Y991140
X643550Y1010190
X713400
X592750
X789600Y1003840
X827700Y965740
X884850Y984790
X713400Y959390
Y927640
X592750Y972090
X554650Y953040
X592750Y806990
Y870490
X522900Y857790
X554650Y876840
X592750Y895890
X529250Y902240
X484800
X460250Y1015340
X476250Y989340
X520250Y1016340
X518250Y963340
X492250Y849190
X592750Y845090
X554650
X643550Y959390
Y927640
X522580Y558910
X554650Y559340
X789600Y749840
X713400Y756190
X643550
X592750
X520250Y761340
X884850Y730790
Y679990
X827700Y711740
X789600Y737140
Y673640
Y686340
X713400Y673640
X592750Y718090
X554650Y673640
X518250Y709340
X554650Y699040
X484800Y673640
X884850Y629190
X827700Y597440
Y654590
X789600Y622840
Y635540
X713400Y616490
X643550Y591090
Y616490
X884850Y578390
X789600Y572040
Y559340
X713400Y578390
Y552990
X643550
X460250Y761340
X476250Y735340
X592750Y641890
X529250Y648240
X554650Y622840
X484800Y648240
X459400Y584740
X460250Y561340
X592750Y616490
X522900Y603790
X592750Y552990
X492250Y595340
X643550Y641890
R02Y31750
X592750Y679990
Y591090
X713400Y705390
X491150Y578390
X510200Y749840
Y1638840
X510600Y1283240
Y1467390
X491150Y832390
X510200Y1003840
X522580Y304910
X554650Y305340
X789600Y495840
X713400Y502190
X643550
X592750
X520250Y507340
X884850Y476790
Y425990
X827700Y457740
X789600Y483140
Y419640
Y432340
X713400Y451390
X643550Y419640
X713400
X592750Y464090
X554650Y419640
X518250Y455340
X554650Y445040
X484800Y419640
X884850Y375190
X827700Y343440
Y400590
X789600Y368840
Y381540
X713400Y362490
X643550Y337090
Y362490
X884850Y324390
X789600Y318040
Y305340
X713400Y324390
Y298990
X643550
X460250Y507340
X474250Y481340
X592750Y387890
X529250Y394240
X554650Y368840
X484800Y394240
X459400Y330740
X460250Y307340
X592750Y362490
X522900Y349790
X592750Y298990
X492250Y341340
X643550Y451390
X592750Y425990
Y337090
X643550Y387890
X554650Y337090
X370500Y591090
Y337090
Y845090
Y997490
Y489490
Y743490
X300650Y381540
X349800Y395300
X287950Y404250
Y349790
X351450Y368840
Y356140
Y445040
X307000Y483140
Y464090
X351450Y470440
X287950Y603790
X300650Y635540
X287950Y658250
X349800Y649300
X351450Y524900
Y610140
Y622840
X307000Y737140
Y718090
X351450Y724440
Y699040
X287950Y912250
X349800Y903300
X300650Y889540
X287950Y857790
X351450Y778900
Y876840
Y864140
X307000Y991140
Y972090
X351450Y978440
Y953040
Y1032900
X167800Y1729300
X271800Y323300
X357800Y321700
X268900Y404250
Y480450
Y543950
X147800Y667300
X207800Y607300
X218800Y1685300
X224450Y1159900
X281600Y1102750
X275250Y1045600
X199050Y1128150
Y1045600
Y918600
X173650Y899550
X230800Y842400
X275250Y791600
X173650
Y690000
X311800Y551300
X325800Y527300
X249850Y613800
X351450Y575700
X268900Y702700
X351450Y829700
X237150Y982100
X326050Y781590
X313350Y806990
X256200Y864140
X326050Y1035590
X307000Y1060990
X153800Y1751300
X167300Y1706000
X143800Y1575300
X165800Y1627300
X218100Y1661550
X177800Y1657300
X116300Y1705000
X36300
X383200Y1217050
X326050Y1305950
Y1267850
X307000Y1883800
X167300
X383200Y1255150
X345100Y1471050
Y1331350
X389550Y1337700
X313350Y1909200
X167300
X383200Y1439300
X389550Y1283240
X364150Y1623450
X389550Y1528200
X319700Y1934600
X167300
X383200Y1610750
X389550Y1467390
X535600Y2080650
X182450Y2068430
X389550Y1638840
X453050Y1928250
Y1966350
Y1991750
Y2017150
X535600Y1744100
X167300Y2036200
R03Y-25400
X402250
X408600Y1985400
X414950Y2010800
X421300Y2036200
X453050Y2042550
X167300Y2061600
X243500Y2080650
X326050
X453050
X554650Y2048900
X548300Y1979050
X554650Y1909200
Y1826650
X491150Y1744100
X414950
X389550Y1718700
X326050Y1960000
X427650Y2061600
X554650Y1775850
X383200Y1826650
Y1909200
X117800Y1884300
X472100Y1915550
X497500Y1928250
X367760Y1491540
X408600Y1223400
Y1407550
Y1579000
X581270Y1750450
X586400Y1928250
X581270Y2074300
T02
X205400Y753500
X230800
X662600Y2032540
X713400
X738800
X764200
Y2083340
R02X-25400
X662600
Y1930940
X713400
R02X25400
Y1981740
R02X-25400
X662600
Y1829340
X713400
R02X25400
Y1880140
R02X-25400
X662600
Y1727740
X713400
R02X25400
Y1778540
R02X-25400
X662600
X53000Y1464700
R07Y25400
Y1693300
R08Y25400
Y1947300
R08Y25400
Y2201300
Y2226700
X103800Y1464700
R07Y25400
Y1693300
R08Y25400
Y1947300
R08Y25400
Y2201300
Y2226700
X53000Y1439300
X103800
X53000Y1667900
X103800
X53000Y1921900
X103800
X53000Y2175900
X103800
X459400Y1839350
X484800
T03
X530050Y1365790
X580050
X745950Y1238790
X795950
X530050Y1181640
X580050
X745550Y1594390
X795550
X529650Y1537240
X579650
X745950Y1422940
X795950
T04
X910250Y1010190
R15Y-50800
X167300Y2131450
Y1794900
X910250Y2083340
R15Y-50800
T05
X27600Y1388500
Y2277500
T06
X993000Y2277500
Y55000
M30
