G04 ================== begin FILE IDENTIFICATION RECORD ==================*
G04 Layout Name:  d:/Project/Circuit/ORCAD/KVP/03v2/pcb/kvp_03v2.brd*
G04 Film Name:    SILK_TOP*
G04 File Format:  Gerber RS274X*
G04 File Origin:  Cadence Allegro 16.6-S019*
G04 Origin Date:  Thu Jan 16 17:14:19 2014*
G04 *
G04 Layer:  MANUFACTURING/AUTOSILK_TOP*
G04 *
G04 Offset:    (0.000 0.000)*
G04 Mirror:    No*
G04 Mode:      Positive*
G04 Rotation:  0*
G04 FullContactRelief:  No*
G04 UndefLineWidth:     0.200*
G04 ================== end FILE IDENTIFICATION RECORD ====================*
%FSLAX34Y34*MOMM*%
%IR0*IPPOS*OFA0.00000B0.00000*MIA0B0*SFA1.00000B1.00000*%
%ADD10C,.2*%
%ADD11C,.4*%
%ADD12C,.5*%
%ADD13C,.15*%
%ADD14C,.25*%
G75*
%LPD*%
G75*
G54D10*
G01X7600Y2307500D02*
X57600D01*
Y2267500D01*
X37600Y2247500D01*
Y1417500D01*
X57600Y1397500D01*
Y1357500D01*
X7600D01*
G01X141900Y1586200D02*
Y1597200D01*
G01Y1637000D02*
Y1648000D01*
G01Y1611600D02*
Y1622600D01*
G01Y1662400D02*
Y1673400D01*
G01X128600Y1736450D02*
Y1732450D01*
X180600D01*
Y1736450D01*
G01X141900Y1713200D02*
Y1724200D01*
G01Y1687800D02*
Y1698800D01*
G01X128600Y1764450D02*
Y1768450D01*
X180600D01*
Y1764450D01*
G01X141900Y1891000D02*
Y1902000D01*
G01Y1967200D02*
Y1978200D01*
G01Y1941800D02*
Y1952800D01*
G01Y1916400D02*
Y1927400D01*
G01Y2043400D02*
Y2054400D01*
G01Y2018000D02*
Y2029000D01*
G01Y1992600D02*
Y2003600D01*
G01X134950Y2101000D02*
Y2105000D01*
X186950D01*
Y2101000D01*
G01X134950Y2073000D02*
Y2069000D01*
X186950D01*
Y2073000D01*
G01X326200Y362290D02*
X313200D01*
G01X326200Y337290D02*
X313200D01*
G01X315450Y405140D02*
Y434140D01*
X323950D01*
Y405140D01*
X315450D01*
G01X300650Y528440D02*
Y539440D01*
G01Y503040D02*
Y514040D01*
G01X326200Y591290D02*
X313200D01*
G01X326200Y616290D02*
X313200D01*
G01X315450Y659140D02*
Y688140D01*
X323950D01*
Y659140D01*
X315450D01*
G01X300650Y757040D02*
Y768040D01*
G01Y782440D02*
Y793440D01*
G01X326200Y870290D02*
X313200D01*
G01X326200Y845290D02*
X313200D01*
G01X315450Y913140D02*
Y942140D01*
X323950D01*
Y913140D01*
X315450D01*
G01X300650Y1036440D02*
Y1047440D01*
G01Y1011040D02*
Y1022040D01*
G01X388000Y480440D02*
Y345440D01*
X445500D01*
Y480440D01*
X388000D01*
G01Y734440D02*
Y599440D01*
X445500D01*
Y734440D01*
X388000D01*
G01Y988440D02*
Y853440D01*
X445500D01*
Y988440D01*
X388000D01*
G01X379390Y2214400D02*
X380660Y2212370D01*
X382180Y2211020D01*
X383960Y2210340D01*
X385990Y2211020D01*
X387520Y2212370D01*
X389040Y2214400D01*
X389550Y2217110D01*
Y2230660D01*
G01X409360Y2210340D02*
Y2223890D01*
G01Y2221520D02*
X408350Y2222870D01*
X406820Y2223550D01*
X405040Y2223890D01*
X403270Y2223210D01*
X401740Y2221850D01*
X400730Y2219820D01*
X400220Y2217110D01*
X400730Y2214400D01*
X401740Y2212370D01*
X403270Y2211020D01*
X405040Y2210340D01*
X406820Y2210680D01*
X408350Y2211690D01*
X409360Y2213050D01*
G01X420790Y2210340D02*
Y2223890D01*
G01Y2220500D02*
X421810Y2222190D01*
X423330Y2223550D01*
X425360Y2223890D01*
X427140Y2223550D01*
X428670Y2222190D01*
X429430Y2219820D01*
Y2210340D01*
G01X441110Y2223890D02*
Y2214400D01*
X442130Y2212030D01*
X443650Y2210680D01*
X445430Y2210340D01*
X447210Y2210680D01*
X448730Y2212030D01*
X449750Y2214400D01*
G01Y2210340D02*
Y2223890D01*
G01X470320Y2210340D02*
Y2223890D01*
G01Y2221520D02*
X469310Y2222870D01*
X467780Y2223550D01*
X466000Y2223890D01*
X464230Y2223210D01*
X462700Y2221850D01*
X461690Y2219820D01*
X461180Y2217110D01*
X461690Y2214400D01*
X462700Y2212370D01*
X464230Y2211020D01*
X466000Y2210340D01*
X467780Y2210680D01*
X469310Y2211690D01*
X470320Y2213050D01*
G01X482510Y2210340D02*
Y2223890D01*
G01Y2221180D02*
X483780Y2222530D01*
X485050Y2223550D01*
X486830Y2223890D01*
X488100Y2223550D01*
X489630Y2222530D01*
G01X501060Y2204240D02*
X502580Y2203570D01*
X504610Y2204240D01*
X505880Y2205600D01*
X506900Y2207290D01*
X508420Y2212710D01*
X511720Y2223890D01*
G01X503600D02*
X508420Y2212710D01*
G01X542200Y2227270D02*
X543730Y2229310D01*
X545510Y2230320D01*
X547540Y2230660D01*
X550080Y2229980D01*
X551860Y2228290D01*
X552360Y2226260D01*
X552110Y2224220D01*
X551090Y2222530D01*
X546010Y2219150D01*
X543730Y2216770D01*
X542200Y2213390D01*
X541700Y2210340D01*
X552360D01*
G01X567350Y2230660D02*
X565320Y2229980D01*
X563790Y2228290D01*
X562780Y2226260D01*
X562020Y2223550D01*
X561760Y2220500D01*
X562020Y2217450D01*
X562780Y2214740D01*
X563790Y2212710D01*
X565320Y2211020D01*
X567350Y2210340D01*
X569380Y2211020D01*
X570910Y2212710D01*
X571920Y2214740D01*
X572680Y2217450D01*
X572940Y2220500D01*
X572680Y2223550D01*
X571920Y2226260D01*
X570910Y2228290D01*
X569380Y2229980D01*
X567350Y2230660D01*
G01X587670Y2210340D02*
Y2230660D01*
X584620Y2226600D01*
G01Y2210340D02*
X590720D01*
G01X611040D02*
Y2230660D01*
X601640Y2216100D01*
X614340D01*
G01X378880Y2248440D02*
Y2268760D01*
G01X388530D02*
X378880Y2256230D01*
G01X390060Y2248440D02*
X383200Y2261990D01*
G01X398440Y2268760D02*
X404790Y2248440D01*
X411140Y2268760D01*
G01X420030Y2248440D02*
Y2268760D01*
X426130D01*
X428160Y2267740D01*
X429680Y2265370D01*
X430190Y2262660D01*
X429680Y2259950D01*
X428410Y2257920D01*
X426130Y2256910D01*
X420030D01*
G01X437810Y2241670D02*
X453050D01*
G01X465750Y2268760D02*
X463720Y2268080D01*
X462190Y2266390D01*
X461180Y2264360D01*
X460420Y2261650D01*
X460160Y2258600D01*
X460420Y2255550D01*
X461180Y2252840D01*
X462190Y2250810D01*
X463720Y2249120D01*
X465750Y2248440D01*
X467780Y2249120D01*
X469310Y2250810D01*
X470320Y2252840D01*
X471080Y2255550D01*
X471340Y2258600D01*
X471080Y2261650D01*
X470320Y2264360D01*
X469310Y2266390D01*
X467780Y2268080D01*
X465750Y2268760D01*
G01X480480Y2252500D02*
X482010Y2250130D01*
X484040Y2248780D01*
X486320Y2248440D01*
X488360Y2248780D01*
X490390Y2250470D01*
X491660Y2252500D01*
X491910Y2254540D01*
X491400Y2256910D01*
X489630Y2258600D01*
X487850Y2259280D01*
X485560D01*
G01X487850D02*
X489370Y2260290D01*
X490640Y2261990D01*
X491150Y2264020D01*
X490640Y2266050D01*
X489370Y2267740D01*
X487090Y2268760D01*
X484800Y2268420D01*
X482510Y2267070D01*
G01X501820Y2261990D02*
X506390Y2248440D01*
X510960Y2261990D01*
G01X521880Y2265370D02*
X523410Y2267410D01*
X525190Y2268420D01*
X527220Y2268760D01*
X529760Y2268080D01*
X531540Y2266390D01*
X532040Y2264360D01*
X531790Y2262320D01*
X530770Y2260630D01*
X525690Y2257250D01*
X523410Y2254870D01*
X521880Y2251490D01*
X521380Y2248440D01*
X532040D01*
G01X497650Y336890D02*
X484650D01*
G01X497650Y311890D02*
X484650D01*
G01X497650Y590890D02*
X484650D01*
G01X497650Y565890D02*
X484650D01*
G01X497650Y819890D02*
X484650D01*
G01X497650Y844890D02*
X484650D01*
G01X555050Y1231640D02*
X625050D01*
Y1131640D01*
X485050D01*
Y1231640D01*
X555050D01*
G01X484500Y1284540D02*
X491900D01*
G01X459800Y1292760D02*
X421700D01*
Y1248320D01*
X459800D01*
Y1292760D01*
G01X555050Y1415790D02*
X625050D01*
Y1315790D01*
X485050D01*
Y1415790D01*
X555050D01*
G01X459800Y1476910D02*
X421700D01*
Y1432470D01*
X459800D01*
Y1476910D01*
G01X554650Y1587240D02*
X624650D01*
Y1487240D01*
X484650D01*
Y1587240D01*
X554650D01*
G01X484500Y1468690D02*
X491900D01*
G01X459400Y1648360D02*
X421300D01*
Y1603920D01*
X459400D01*
Y1648360D01*
G01X484100Y1640140D02*
X491500D01*
G01X554650Y182000D02*
Y169300D01*
X567350D01*
Y182000D01*
X554650D01*
X567350Y169300D01*
G01Y182000D02*
X554650Y169300D01*
G01X535600Y182000D02*
Y169300D01*
X548300D01*
Y182000D01*
X535600D01*
X548300Y169300D01*
G01Y182000D02*
X535600Y169300D01*
G01X529210Y163350D02*
X573660D01*
Y207800D01*
X529210D01*
Y163350D01*
G01X529250Y213750D02*
X573700D01*
Y258200D01*
X529250D01*
Y213750D01*
G01X554650Y251850D02*
Y239150D01*
X567350D01*
Y251850D01*
X554650D01*
X567350Y239150D01*
G01Y251850D02*
X554650Y239150D01*
G01X548300Y251850D02*
X535600Y239150D01*
G01Y251850D02*
Y239150D01*
X548300D01*
Y251850D01*
X535600D01*
X548300Y239150D01*
G01X584650Y393490D02*
X524650D01*
Y458490D01*
X584650D01*
Y393490D01*
G01Y647490D02*
X524650D01*
Y712490D01*
X584650D01*
Y647490D01*
G01Y901490D02*
X524650D01*
Y966490D01*
X584650D01*
Y901490D01*
G01X540050Y1200890D02*
X570050D01*
G01X580650Y1256540D02*
Y1252540D01*
X528650D01*
Y1256540D01*
G01X580650Y1284540D02*
Y1288540D01*
X528650D01*
Y1284540D01*
G01X491400Y1262040D02*
Y1279040D01*
G01X504400Y1262040D02*
Y1279040D01*
G01Y1265540D02*
X491400D01*
G01X504400Y1267540D02*
X491400D01*
G01X504400Y1269540D02*
X491400D01*
G01X487900Y1288540D02*
Y1280540D01*
G01X540050Y1225890D02*
X570050D01*
G01X580650Y1440690D02*
Y1436690D01*
X528650D01*
Y1440690D01*
G01X491400Y1446190D02*
Y1463190D01*
G01X504400Y1446190D02*
Y1463190D01*
G01Y1449690D02*
X491400D01*
G01X540050Y1385040D02*
X570050D01*
G01X540050Y1410040D02*
X570050D01*
G01X580650Y1468690D02*
Y1472690D01*
X528650D01*
Y1468690D01*
G01X504400Y1451690D02*
X491400D01*
G01X504400Y1453690D02*
X491400D01*
G01X487900Y1472690D02*
Y1464690D01*
G01X539650Y1556490D02*
X569650D01*
G01X539650Y1581490D02*
X569650D01*
G01X580650Y1612140D02*
Y1608140D01*
X528650D01*
Y1612140D01*
G01X580650Y1640140D02*
Y1644140D01*
X528650D01*
Y1640140D01*
G01X491000Y1617640D02*
Y1634640D01*
G01X504000Y1617640D02*
Y1634640D01*
G01Y1621140D02*
X491000D01*
G01X504000Y1623140D02*
X491000D01*
G01X504000Y1625140D02*
X491000D01*
G01X487500Y1644140D02*
Y1636140D01*
G01X489650Y1921050D02*
Y2037050D01*
X556150D01*
Y1921050D01*
X489650D01*
G01X618150Y293490D02*
Y304490D01*
G01Y369690D02*
Y380690D01*
G01Y318890D02*
Y329890D01*
G01Y344290D02*
Y355290D01*
G01Y452240D02*
Y463240D01*
G01X622850Y426140D02*
Y413140D01*
G01X638850Y426140D02*
Y413140D01*
G01X618150Y477640D02*
Y488640D01*
G01Y598290D02*
Y609290D01*
G01Y572890D02*
Y583890D01*
G01Y547490D02*
Y558490D01*
G01Y623690D02*
Y634690D01*
G01X622850Y680140D02*
Y667140D01*
G01X638850Y680140D02*
Y667140D01*
G01X618150Y706240D02*
Y717240D01*
G01Y731640D02*
Y742640D01*
G01Y801490D02*
Y812490D01*
G01Y826890D02*
Y837890D01*
G01Y852290D02*
Y863290D01*
G01Y877690D02*
Y888690D01*
G01Y960240D02*
Y971240D01*
G01Y985640D02*
Y996640D01*
G01X622850Y934140D02*
Y921140D01*
G01X638850Y934140D02*
Y921140D01*
G01X681650Y131200D02*
Y118500D01*
X694350D01*
Y131200D01*
X681650D01*
X694350Y118500D01*
G01Y131200D02*
X681650Y118500D01*
G01X662600Y150250D02*
Y137550D01*
X675300D01*
Y150250D01*
X662600D01*
X675300Y137550D01*
G01Y150250D02*
X662600Y137550D01*
G01X656250Y112150D02*
X700700D01*
Y156600D01*
X656250D01*
Y112150D01*
G01X662600Y182000D02*
Y169300D01*
X675300D01*
Y182000D01*
X662600D01*
X675300Y169300D01*
G01Y182000D02*
X662600Y169300D01*
G01X681650Y201050D02*
Y188350D01*
X694350D01*
Y201050D01*
X681650D01*
X694350Y188350D01*
G01Y201050D02*
X681650Y188350D01*
G01Y232800D02*
Y220100D01*
X694350D01*
Y232800D01*
X681650D01*
X694350Y220100D01*
G01Y232800D02*
X681650Y220100D01*
G01X662600Y232800D02*
Y220100D01*
X675300D01*
Y232800D01*
X662600D01*
X675300Y220100D01*
G01Y232800D02*
X662600Y220100D01*
G01X656250Y213750D02*
X700700D01*
Y258200D01*
X656250D01*
Y213750D01*
G01Y162950D02*
X700700D01*
Y207400D01*
X656250D01*
Y162950D01*
G01X711650Y393490D02*
X651650D01*
Y458490D01*
X711650D01*
Y393490D01*
G01Y647490D02*
X651650D01*
Y712490D01*
X711650D01*
Y647490D01*
G01Y901490D02*
X651650D01*
Y966490D01*
X711650D01*
Y901490D01*
G01X770950Y1288790D02*
X840950D01*
Y1188790D01*
X700950D01*
Y1288790D01*
X770950D01*
G01X677000Y1277490D02*
X681000D01*
Y1225490D01*
X677000D01*
G01X649000Y1277490D02*
X645000D01*
Y1225490D01*
X649000D01*
G01X770950Y1472940D02*
X840950D01*
Y1372940D01*
X700950D01*
Y1472940D01*
X770950D01*
G01X677000Y1461640D02*
X681000D01*
Y1409640D01*
X677000D01*
G01X649000Y1461640D02*
X645000D01*
Y1409640D01*
X649000D01*
G01X770550Y1644390D02*
X840550D01*
Y1544390D01*
X700550D01*
Y1644390D01*
X770550D01*
G01X676600Y1633090D02*
X680600D01*
Y1581090D01*
X676600D01*
G01X648600Y1633090D02*
X644600D01*
Y1581090D01*
X648600D01*
G01X649900Y1715040D02*
Y1791240D01*
X802300D01*
Y1715040D01*
X649900D01*
G01X662600Y1746790D02*
Y1759490D01*
G01X649900Y1816640D02*
Y1892840D01*
X802300D01*
Y1816640D01*
X649900D01*
G01X662600Y1848390D02*
Y1861090D01*
G01X649900Y1918240D02*
Y1994440D01*
X802300D01*
Y1918240D01*
X649900D01*
G01X662600Y1949990D02*
Y1962690D01*
G01X649900Y2019840D02*
Y2096040D01*
X802300D01*
Y2019840D01*
X649900D01*
G01X662600Y2051590D02*
Y2064290D01*
G01X815600Y297690D02*
Y293690D01*
X763600D01*
Y297690D01*
G01X815600Y361190D02*
Y357190D01*
X763600D01*
Y361190D01*
G01X815600Y325690D02*
Y329690D01*
X763600D01*
Y325690D01*
G01X815600Y389190D02*
Y393190D01*
X763600D01*
Y389190D01*
G01X815600Y411990D02*
Y407990D01*
X763600D01*
Y411990D01*
G01X815600Y439990D02*
Y443990D01*
X763600D01*
Y439990D01*
G01X724450Y426140D02*
Y413140D01*
G01X740450Y426140D02*
Y413140D01*
G01X815600Y475490D02*
Y471490D01*
X763600D01*
Y475490D01*
G01X815600Y503490D02*
Y507490D01*
X763600D01*
Y503490D01*
G01X815600Y615190D02*
Y611190D01*
X763600D01*
Y615190D01*
G01X815600Y551690D02*
Y547690D01*
X763600D01*
Y551690D01*
G01X815600Y579690D02*
Y583690D01*
X763600D01*
Y579690D01*
G01X815600Y643190D02*
Y647190D01*
X763600D01*
Y643190D01*
G01X815600Y665990D02*
Y661990D01*
X763600D01*
Y665990D01*
G01X724450Y680140D02*
Y667140D01*
G01X740450Y680140D02*
Y667140D01*
G01X815600Y693990D02*
Y697990D01*
X763600D01*
Y693990D01*
G01X815600Y729490D02*
Y725490D01*
X763600D01*
Y729490D01*
G01X815600Y757490D02*
Y761490D01*
X763600D01*
Y757490D01*
G01X815600Y805690D02*
Y801690D01*
X763600D01*
Y805690D01*
G01X815600Y833690D02*
Y837690D01*
X763600D01*
Y833690D01*
G01X815600Y869190D02*
Y865190D01*
X763600D01*
Y869190D01*
G01X815600Y897190D02*
Y901190D01*
X763600D01*
Y897190D01*
G01X815600Y919990D02*
Y915990D01*
X763600D01*
Y919990D01*
G01X815600Y947990D02*
Y951990D01*
X763600D01*
Y947990D01*
G01X815600Y983490D02*
Y979490D01*
X763600D01*
Y983490D01*
G01X724450Y934140D02*
Y921140D01*
G01X740450Y934140D02*
Y921140D01*
G01X815600Y1011490D02*
Y1015490D01*
X763600D01*
Y1011490D01*
G01X755950Y1258040D02*
X785950D01*
G01X755950Y1283040D02*
X785950D01*
G01X755950Y1442190D02*
X785950D01*
G01X755950Y1467190D02*
X785950D01*
G01X755550Y1613640D02*
X785550D01*
G01X755550Y1638640D02*
X785550D01*
G01X850100Y303690D02*
X856100D01*
G01X850100Y367190D02*
X856100D01*
G01X850100Y383190D02*
X856100D01*
G01X850100Y319690D02*
X856100D01*
G01X850100Y417990D02*
X856100D01*
G01X850100Y433990D02*
X856100D01*
G01X850100Y481490D02*
X856100D01*
G01X850100Y497490D02*
X856100D01*
G01X850100Y557690D02*
X856100D01*
G01X850100Y573690D02*
X856100D01*
G01X850100Y621190D02*
X856100D01*
G01X850100Y637190D02*
X856100D01*
G01X850100Y671990D02*
X856100D01*
G01X850100Y687990D02*
X856100D01*
G01X850100Y735490D02*
X856100D01*
G01X850100Y751490D02*
X856100D01*
G01X850100Y811690D02*
X856100D01*
G01X850100Y827690D02*
X856100D01*
G01X850100Y875190D02*
X856100D01*
G01X850100Y891190D02*
X856100D01*
G01X850100Y925990D02*
X856100D01*
G01X850100Y941990D02*
X856100D01*
G01X850100Y989490D02*
X856100D01*
G01X850100Y1005490D02*
X856100D01*
G01X826400Y1727140D02*
X822400D01*
Y1779140D01*
X826400D01*
G01X854400Y1727140D02*
X858400D01*
Y1779140D01*
X854400D01*
G01X826400Y1828740D02*
X822400D01*
Y1880740D01*
X826400D01*
G01X854400Y1828740D02*
X858400D01*
Y1880740D01*
X854400D01*
G01X826400Y1930340D02*
X822400D01*
Y1982340D01*
X826400D01*
G01X854400Y1930340D02*
X858400D01*
Y1982340D01*
X854400D01*
G01X826400Y2031940D02*
X822400D01*
Y2083940D01*
X826400D01*
G01X854400Y2031940D02*
X858400D01*
Y2083940D01*
X854400D01*
G01X884850Y203740D02*
Y1054640D01*
G01Y203740D02*
X1011850D01*
Y1054640D01*
X884850D01*
G01D02*
Y203740D01*
G01Y1276890D02*
Y2127790D01*
G01Y1276890D02*
X1011850D01*
Y2127790D01*
X884850D01*
G01D02*
Y1276890D01*
G54D11*
G01X375680Y482260D02*
G03X373680Y484260I-2000J0D01*
G01D02*
G03X371680Y482260I0J-2000D01*
G01D02*
G03X373680Y480260I2000J0D01*
G01D02*
G03X375680Y482260I0J2000D01*
G01X397940Y472720D02*
G03I-2000J0D01*
G01X375680Y736260D02*
G03X373680Y738260I-2000J0D01*
G01D02*
G03X371680Y736260I0J-2000D01*
G01D02*
G03X373680Y734260I2000J0D01*
G01D02*
G03X375680Y736260I0J2000D01*
G01X397940Y726720D02*
G03I-2000J0D01*
G01X375680Y990260D02*
G03X373680Y992260I-2000J0D01*
G01D02*
G03X371680Y990260I0J-2000D01*
G01D02*
G03X373680Y988260I2000J0D01*
G01D02*
G03X375680Y990260I0J2000D01*
G01X397940Y980720D02*
G03I-2000J0D01*
G54D12*
G01X453320Y1255840D02*
G03I-2495J0D01*
G01Y1439990D02*
G03I-2495J0D01*
G01X452920Y1611440D02*
G03I-2495J0D01*
G01X537150Y403490D02*
G03X534650Y405990I-2500J0D01*
G01D02*
G03X532150Y403490I0J-2500D01*
G01D02*
G03X534650Y400990I2500J0D01*
G01D02*
G03X537150Y403490I0J2500D01*
G01Y657490D02*
G03X534650Y659990I-2500J0D01*
G01D02*
G03X532150Y657490I0J-2500D01*
G01D02*
G03X534650Y654990I2500J0D01*
G01D02*
G03X537150Y657490I0J2500D01*
G01Y911490D02*
G03X534650Y913990I-2500J0D01*
G01D02*
G03X532150Y911490I0J-2500D01*
G01D02*
G03X534650Y908990I2500J0D01*
G01D02*
G03X537150Y911490I0J2500D01*
G01X502150Y2027050D02*
G03I-2500J0D01*
G01X664150Y403490D02*
G03I-2500J0D01*
G01Y657490D02*
G03I-2500J0D01*
G01Y911490D02*
G03I-2500J0D01*
G54D13*
G01X56170Y1414390D02*
X48300Y1416820D01*
X56170Y1419250D01*
G01X53420Y1418380D02*
Y1415260D01*
G01X56170Y1424690D02*
X48300D01*
X49870Y1423520D01*
G01X56170D02*
Y1425860D01*
G01X99760Y1418960D02*
X99360Y1418380D01*
X99100Y1417700D01*
Y1416920D01*
X99490Y1416040D01*
X100150Y1415360D01*
X100940Y1414870D01*
X102250Y1414480D01*
X103430Y1414390D01*
X104610Y1414580D01*
X105400Y1414870D01*
X106180Y1415460D01*
X106710Y1416140D01*
X106970Y1416820D01*
Y1417500D01*
X106710Y1418180D01*
X106310Y1418770D01*
X105790Y1419250D01*
G01X106970Y1424690D02*
X99100D01*
X100670Y1423520D01*
G01X106970D02*
Y1425860D01*
G01X74900Y2245750D02*
X81650Y2258450D01*
G01X74900D02*
X81650Y2245750D01*
G01X91220D02*
Y2258450D01*
X89290Y2255910D01*
G01Y2245750D02*
X93150D01*
G01X163820Y1585350D02*
Y1598050D01*
X167840D01*
X169130Y1597410D01*
X169930Y1596570D01*
X170250Y1594870D01*
X169930Y1593180D01*
X168970Y1592120D01*
X167840Y1591490D01*
X163820D01*
G01X167840D02*
X170250Y1585350D01*
G01X176930Y1595930D02*
X177890Y1597200D01*
X179020Y1597840D01*
X180310Y1598050D01*
X181920Y1597630D01*
X183040Y1596570D01*
X183360Y1595300D01*
X183200Y1594030D01*
X182560Y1592970D01*
X179340Y1590850D01*
X177890Y1589370D01*
X176930Y1587250D01*
X176610Y1585350D01*
X183360D01*
G01X192930D02*
X194060Y1585560D01*
X195350Y1586200D01*
X196150Y1587250D01*
X196470Y1588740D01*
X196150Y1590220D01*
X195190Y1591490D01*
X193740Y1592120D01*
X192130D01*
X191170Y1592550D01*
X190360Y1593600D01*
X190040Y1595090D01*
X190520Y1596570D01*
X191650Y1597630D01*
X192930Y1598050D01*
X194220Y1597630D01*
X195350Y1596570D01*
X195830Y1595090D01*
X195510Y1593600D01*
X194700Y1592550D01*
X193740Y1592120D01*
X192130D01*
X190680Y1591490D01*
X189720Y1590220D01*
X189400Y1588740D01*
X189720Y1587250D01*
X190520Y1586200D01*
X191810Y1585560D01*
X192930Y1585350D01*
G01X164110Y1637300D02*
Y1650000D01*
X168130D01*
X169420Y1649360D01*
X170220Y1648520D01*
X170540Y1646820D01*
X170220Y1645130D01*
X169260Y1644070D01*
X168130Y1643440D01*
X164110D01*
G01X168130D02*
X170540Y1637300D01*
G01X182210D02*
Y1650000D01*
X176250Y1640900D01*
X184300D01*
G01X163820Y1610750D02*
Y1623450D01*
X167840D01*
X169130Y1622810D01*
X169930Y1621970D01*
X170250Y1620270D01*
X169930Y1618580D01*
X168970Y1617520D01*
X167840Y1616890D01*
X163820D01*
G01X167840D02*
X170250Y1610750D01*
G01X176930Y1621330D02*
X177890Y1622600D01*
X179020Y1623240D01*
X180310Y1623450D01*
X181920Y1623030D01*
X183040Y1621970D01*
X183360Y1620700D01*
X183200Y1619430D01*
X182560Y1618370D01*
X179340Y1616250D01*
X177890Y1614770D01*
X176930Y1612650D01*
X176610Y1610750D01*
X183360D01*
G01X192610D02*
X192930Y1613500D01*
X193420Y1615830D01*
X194060Y1617950D01*
X194870Y1620270D01*
X196150Y1623450D01*
X189720D01*
G01X163820Y1661550D02*
Y1674250D01*
X167840D01*
X169130Y1673610D01*
X169930Y1672770D01*
X170250Y1671070D01*
X169930Y1669380D01*
X168970Y1668320D01*
X167840Y1667690D01*
X163820D01*
G01X167840D02*
X170250Y1661550D01*
G01X179980D02*
Y1674250D01*
X178050Y1671710D01*
G01Y1661550D02*
X181910D01*
G01X189880Y1666840D02*
X191000Y1668320D01*
X191970Y1669170D01*
X193260Y1669590D01*
X194380Y1669170D01*
X195190Y1668320D01*
X195830Y1667050D01*
X195990Y1665570D01*
X195830Y1664300D01*
X195190Y1663030D01*
X194220Y1661970D01*
X193100Y1661550D01*
X191810Y1661970D01*
X190680Y1663240D01*
X190040Y1665150D01*
X189880Y1667260D01*
X190200Y1670020D01*
X190680Y1671500D01*
X191490Y1672980D01*
X192610Y1674040D01*
X193740Y1674250D01*
X194870Y1673830D01*
X195670Y1672770D01*
G01X164110Y1711300D02*
Y1724000D01*
X168130D01*
X169420Y1723360D01*
X170220Y1722520D01*
X170540Y1720820D01*
X170220Y1719130D01*
X169260Y1718070D01*
X168130Y1717440D01*
X164110D01*
G01X168130D02*
X170540Y1711300D01*
G01X176740Y1713840D02*
X177700Y1712360D01*
X178990Y1711510D01*
X180440Y1711300D01*
X181720Y1711510D01*
X183010Y1712570D01*
X183810Y1713840D01*
X183970Y1715110D01*
X183650Y1716590D01*
X182530Y1717650D01*
X181400Y1718070D01*
X179950D01*
G01X181400D02*
X182370Y1718710D01*
X183170Y1719770D01*
X183490Y1721040D01*
X183170Y1722310D01*
X182370Y1723360D01*
X180920Y1724000D01*
X179470Y1723790D01*
X178020Y1722940D01*
G01X163820Y1686950D02*
Y1699650D01*
X167840D01*
X169130Y1699010D01*
X169930Y1698170D01*
X170250Y1696470D01*
X169930Y1694780D01*
X168970Y1693720D01*
X167840Y1693090D01*
X163820D01*
G01X167840D02*
X170250Y1686950D01*
G01X179980D02*
Y1699650D01*
X178050Y1697110D01*
G01Y1686950D02*
X181910D01*
G01X189400Y1688850D02*
X190360Y1687800D01*
X191490Y1687160D01*
X192930Y1686950D01*
X194380Y1687370D01*
X195510Y1688220D01*
X196310Y1689700D01*
X196470Y1691390D01*
X196150Y1693090D01*
X195350Y1694150D01*
X194220Y1694990D01*
X193100Y1695200D01*
X191970Y1694990D01*
X190520Y1694150D01*
X191000Y1699650D01*
X195350D01*
G01X144960Y1824530D02*
X148820D01*
G01X146720Y1827290D02*
Y1821780D01*
G01X156140Y1822200D02*
X157100Y1821150D01*
X158230Y1820510D01*
X159670Y1820300D01*
X161120Y1820720D01*
X162250Y1821570D01*
X163050Y1823050D01*
X163210Y1824740D01*
X162890Y1826440D01*
X162090Y1827500D01*
X160960Y1828340D01*
X159840Y1828550D01*
X158710Y1828340D01*
X157260Y1827500D01*
X157740Y1833000D01*
X162090D01*
G01X173910Y1827070D02*
X174560Y1827710D01*
X175040Y1828770D01*
X175360Y1830250D01*
X175040Y1831520D01*
X174390Y1832360D01*
X173270Y1833000D01*
X168930D01*
Y1820300D01*
X174230D01*
X175360Y1821150D01*
X176000Y1822420D01*
X176320Y1823900D01*
X176000Y1825380D01*
X175040Y1826650D01*
X173910Y1827070D01*
X168930D01*
G01X182360Y1820300D02*
Y1833000D01*
X186380D01*
X187670Y1832360D01*
X188470Y1831520D01*
X188790Y1829820D01*
X188470Y1828130D01*
X187510Y1827070D01*
X186380Y1826440D01*
X182360D01*
G01X186380D02*
X188790Y1820300D01*
G01X163820Y1890150D02*
Y1902850D01*
X167840D01*
X169130Y1902210D01*
X169930Y1901370D01*
X170250Y1899670D01*
X169930Y1897980D01*
X168970Y1896920D01*
X167840Y1896290D01*
X163820D01*
G01X167840D02*
X170250Y1890150D01*
G01X176930Y1895440D02*
X178050Y1896920D01*
X179020Y1897770D01*
X180310Y1898190D01*
X181430Y1897770D01*
X182240Y1896920D01*
X182880Y1895650D01*
X183040Y1894170D01*
X182880Y1892900D01*
X182240Y1891630D01*
X181270Y1890570D01*
X180150Y1890150D01*
X178860Y1890570D01*
X177730Y1891840D01*
X177090Y1893750D01*
X176930Y1895860D01*
X177250Y1898620D01*
X177730Y1900100D01*
X178540Y1901580D01*
X179660Y1902640D01*
X180790Y1902850D01*
X181920Y1902430D01*
X182720Y1901370D01*
G01X192930Y1890150D02*
Y1902850D01*
X191000Y1900310D01*
G01Y1890150D02*
X194860D01*
G01X163820Y1966350D02*
Y1979050D01*
X167840D01*
X169130Y1978410D01*
X169930Y1977570D01*
X170250Y1975870D01*
X169930Y1974180D01*
X168970Y1973120D01*
X167840Y1972490D01*
X163820D01*
G01X167840D02*
X170250Y1966350D01*
G01X181920D02*
Y1979050D01*
X175960Y1969950D01*
X184010D01*
G01X192930Y1979050D02*
X191650Y1978630D01*
X190680Y1977570D01*
X190040Y1976300D01*
X189560Y1974600D01*
X189400Y1972700D01*
X189560Y1970790D01*
X190040Y1969100D01*
X190680Y1967830D01*
X191650Y1966770D01*
X192930Y1966350D01*
X194220Y1966770D01*
X195190Y1967830D01*
X195830Y1969100D01*
X196310Y1970790D01*
X196470Y1972700D01*
X196310Y1974600D01*
X195830Y1976300D01*
X195190Y1977570D01*
X194220Y1978630D01*
X192930Y1979050D01*
G01X163820Y1940950D02*
Y1953650D01*
X167840D01*
X169130Y1953010D01*
X169930Y1952170D01*
X170250Y1950470D01*
X169930Y1948780D01*
X168970Y1947720D01*
X167840Y1947090D01*
X163820D01*
G01X167840D02*
X170250Y1940950D01*
G01X181920D02*
Y1953650D01*
X175960Y1944550D01*
X184010D01*
G01X194870Y1940950D02*
Y1953650D01*
X188910Y1944550D01*
X196960D01*
G01X163820Y1915550D02*
Y1928250D01*
X167840D01*
X169130Y1927610D01*
X169930Y1926770D01*
X170250Y1925070D01*
X169930Y1923380D01*
X168970Y1922320D01*
X167840Y1921690D01*
X163820D01*
G01X167840D02*
X170250Y1915550D01*
G01X176450Y1917450D02*
X177410Y1916400D01*
X178540Y1915760D01*
X179980Y1915550D01*
X181430Y1915970D01*
X182560Y1916820D01*
X183360Y1918300D01*
X183520Y1919990D01*
X183200Y1921690D01*
X182400Y1922750D01*
X181270Y1923590D01*
X180150Y1923800D01*
X179020Y1923590D01*
X177570Y1922750D01*
X178050Y1928250D01*
X182400D01*
G01X189400Y1918090D02*
X190360Y1916610D01*
X191650Y1915760D01*
X193100Y1915550D01*
X194380Y1915760D01*
X195670Y1916820D01*
X196470Y1918090D01*
X196630Y1919360D01*
X196310Y1920840D01*
X195190Y1921900D01*
X194060Y1922320D01*
X192610D01*
G01X194060D02*
X195030Y1922960D01*
X195830Y1924020D01*
X196150Y1925290D01*
X195830Y1926560D01*
X195030Y1927610D01*
X193580Y1928250D01*
X192130Y1928040D01*
X190680Y1927190D01*
G01X163820Y2042550D02*
Y2055250D01*
X167840D01*
X169130Y2054610D01*
X169930Y2053770D01*
X170250Y2052070D01*
X169930Y2050380D01*
X168970Y2049320D01*
X167840Y2048690D01*
X163820D01*
G01X167840D02*
X170250Y2042550D01*
G01X176450Y2045090D02*
X177410Y2043610D01*
X178700Y2042760D01*
X180150Y2042550D01*
X181430Y2042760D01*
X182720Y2043820D01*
X183520Y2045090D01*
X183680Y2046360D01*
X183360Y2047840D01*
X182240Y2048900D01*
X181110Y2049320D01*
X179660D01*
G01X181110D02*
X182080Y2049960D01*
X182880Y2051020D01*
X183200Y2052290D01*
X182880Y2053560D01*
X182080Y2054610D01*
X180630Y2055250D01*
X179180Y2055040D01*
X177730Y2054190D01*
G01X192610Y2042550D02*
X192930Y2045300D01*
X193420Y2047630D01*
X194060Y2049750D01*
X194870Y2052070D01*
X196150Y2055250D01*
X189720D01*
G01X163820Y2017150D02*
Y2029850D01*
X167840D01*
X169130Y2029210D01*
X169930Y2028370D01*
X170250Y2026670D01*
X169930Y2024980D01*
X168970Y2023920D01*
X167840Y2023290D01*
X163820D01*
G01X167840D02*
X170250Y2017150D01*
G01X176450Y2019690D02*
X177410Y2018210D01*
X178700Y2017360D01*
X180150Y2017150D01*
X181430Y2017360D01*
X182720Y2018420D01*
X183520Y2019690D01*
X183680Y2020960D01*
X183360Y2022440D01*
X182240Y2023500D01*
X181110Y2023920D01*
X179660D01*
G01X181110D02*
X182080Y2024560D01*
X182880Y2025620D01*
X183200Y2026890D01*
X182880Y2028160D01*
X182080Y2029210D01*
X180630Y2029850D01*
X179180Y2029640D01*
X177730Y2028790D01*
G01X192930Y2017150D02*
X194060Y2017360D01*
X195350Y2018000D01*
X196150Y2019050D01*
X196470Y2020540D01*
X196150Y2022020D01*
X195190Y2023290D01*
X193740Y2023920D01*
X192130D01*
X191170Y2024350D01*
X190360Y2025400D01*
X190040Y2026890D01*
X190520Y2028370D01*
X191650Y2029430D01*
X192930Y2029850D01*
X194220Y2029430D01*
X195350Y2028370D01*
X195830Y2026890D01*
X195510Y2025400D01*
X194700Y2024350D01*
X193740Y2023920D01*
X192130D01*
X190680Y2023290D01*
X189720Y2022020D01*
X189400Y2020540D01*
X189720Y2019050D01*
X190520Y2018000D01*
X191810Y2017360D01*
X192930Y2017150D01*
G01X163820Y1991750D02*
Y2004450D01*
X167840D01*
X169130Y2003810D01*
X169930Y2002970D01*
X170250Y2001270D01*
X169930Y1999580D01*
X168970Y1998520D01*
X167840Y1997890D01*
X163820D01*
G01X167840D02*
X170250Y1991750D01*
G01X176450Y1994290D02*
X177410Y1992810D01*
X178700Y1991960D01*
X180150Y1991750D01*
X181430Y1991960D01*
X182720Y1993020D01*
X183520Y1994290D01*
X183680Y1995560D01*
X183360Y1997040D01*
X182240Y1998100D01*
X181110Y1998520D01*
X179660D01*
G01X181110D02*
X182080Y1999160D01*
X182880Y2000220D01*
X183200Y2001490D01*
X182880Y2002760D01*
X182080Y2003810D01*
X180630Y2004450D01*
X179180Y2004240D01*
X177730Y2003390D01*
G01X190200Y1993230D02*
X191330Y1992170D01*
X192610Y1991750D01*
X193900Y1992170D01*
X195030Y1993440D01*
X195830Y1995350D01*
X196150Y1997250D01*
Y1999580D01*
X195830Y2001490D01*
X195030Y2003180D01*
X194060Y2004030D01*
X192930Y2004450D01*
X191650Y2004030D01*
X190680Y2003180D01*
X190040Y2001910D01*
X189720Y2000220D01*
X190040Y1998740D01*
X190840Y1997250D01*
X191810Y1996410D01*
X192930Y1996190D01*
X194220Y1996620D01*
X195190Y1997680D01*
X196150Y1999580D01*
G01X138610Y2157420D02*
X142470D01*
G01X140370Y2160180D02*
Y2154670D01*
G01X150270Y2163770D02*
X151230Y2165040D01*
X152360Y2165680D01*
X153650Y2165890D01*
X155260Y2165470D01*
X156380Y2164410D01*
X156700Y2163140D01*
X156540Y2161870D01*
X155900Y2160810D01*
X152680Y2158690D01*
X151230Y2157210D01*
X150270Y2155090D01*
X149950Y2153190D01*
X156700D01*
G01X168210D02*
Y2165890D01*
X162250Y2156790D01*
X170300D01*
G01X180510Y2159960D02*
X181160Y2160600D01*
X181640Y2161660D01*
X181960Y2163140D01*
X181640Y2164410D01*
X180990Y2165250D01*
X179870Y2165890D01*
X175530D01*
Y2153190D01*
X180830D01*
X181960Y2154040D01*
X182600Y2155310D01*
X182920Y2156790D01*
X182600Y2158270D01*
X181640Y2159540D01*
X180510Y2159960D01*
X175530D01*
G01X195390Y2153190D02*
X188960D01*
Y2165890D01*
X195390D01*
G01X192820Y2159750D02*
X188960D01*
G01X258760Y412710D02*
Y425410D01*
X261970D01*
X263260Y424770D01*
X264230Y423930D01*
X265030Y422660D01*
X265670Y421180D01*
X265830Y419060D01*
X265670Y416940D01*
X265030Y415460D01*
X264230Y414190D01*
X263260Y413340D01*
X261970Y412710D01*
X258760D01*
G01X271710D02*
Y425410D01*
X274920D01*
X276210Y424770D01*
X277180Y423930D01*
X277980Y422660D01*
X278620Y421180D01*
X278780Y419060D01*
X278620Y416940D01*
X277980Y415460D01*
X277180Y414190D01*
X276210Y413340D01*
X274920Y412710D01*
X271710D01*
G01X284660Y414610D02*
X285620Y413560D01*
X286750Y412920D01*
X288190Y412710D01*
X289640Y413130D01*
X290770Y413980D01*
X291570Y415460D01*
X291730Y417150D01*
X291410Y418850D01*
X290610Y419910D01*
X289480Y420750D01*
X288360Y420960D01*
X287230Y420750D01*
X285780Y419910D01*
X286260Y425410D01*
X290610D01*
G01X246380Y527010D02*
Y539710D01*
X250400D01*
X251690Y539070D01*
X252490Y538230D01*
X252810Y536530D01*
X252490Y534840D01*
X251530Y533780D01*
X250400Y533150D01*
X246380D01*
G01X250400D02*
X252810Y527010D01*
G01X259490Y537590D02*
X260450Y538860D01*
X261580Y539500D01*
X262870Y539710D01*
X264480Y539290D01*
X265600Y538230D01*
X265920Y536960D01*
X265760Y535690D01*
X265120Y534630D01*
X261900Y532510D01*
X260450Y531030D01*
X259490Y528910D01*
X259170Y527010D01*
X265920D01*
G01X272440Y532300D02*
X273560Y533780D01*
X274530Y534630D01*
X275820Y535050D01*
X276940Y534630D01*
X277750Y533780D01*
X278390Y532510D01*
X278550Y531030D01*
X278390Y529760D01*
X277750Y528490D01*
X276780Y527430D01*
X275660Y527010D01*
X274370Y527430D01*
X273240Y528700D01*
X272600Y530610D01*
X272440Y532720D01*
X272760Y535480D01*
X273240Y536960D01*
X274050Y538440D01*
X275170Y539500D01*
X276300Y539710D01*
X277430Y539290D01*
X278230Y538230D01*
G01X246380Y501610D02*
Y514310D01*
X250400D01*
X251690Y513670D01*
X252490Y512830D01*
X252810Y511130D01*
X252490Y509440D01*
X251530Y508380D01*
X250400Y507750D01*
X246380D01*
G01X250400D02*
X252810Y501610D01*
G01X259490Y512190D02*
X260450Y513460D01*
X261580Y514100D01*
X262870Y514310D01*
X264480Y513890D01*
X265600Y512830D01*
X265920Y511560D01*
X265760Y510290D01*
X265120Y509230D01*
X261900Y507110D01*
X260450Y505630D01*
X259490Y503510D01*
X259170Y501610D01*
X265920D01*
G01X271960Y503510D02*
X272920Y502460D01*
X274050Y501820D01*
X275490Y501610D01*
X276940Y502030D01*
X278070Y502880D01*
X278870Y504360D01*
X279030Y506050D01*
X278710Y507750D01*
X277910Y508810D01*
X276780Y509650D01*
X275660Y509860D01*
X274530Y509650D01*
X273080Y508810D01*
X273560Y514310D01*
X277910D01*
G01X199640Y723860D02*
X202860D01*
Y720050D01*
X201890Y718780D01*
X200770Y717930D01*
X199160Y717510D01*
X197550Y717930D01*
X196420Y718780D01*
X195460Y720050D01*
X194810Y721530D01*
X194490Y723220D01*
Y724710D01*
X194810Y725980D01*
X195460Y727460D01*
X196420Y728730D01*
X197390Y729570D01*
X198670Y730210D01*
X199800D01*
X201090Y729790D01*
X202050Y728940D01*
G01X207930Y717510D02*
Y730210D01*
X215320Y717510D01*
Y730210D01*
G01X221040Y717510D02*
Y730210D01*
X224250D01*
X225540Y729570D01*
X226510Y728730D01*
X227310Y727460D01*
X227950Y725980D01*
X228110Y723860D01*
X227950Y721740D01*
X227310Y720260D01*
X226510Y718990D01*
X225540Y718140D01*
X224250Y717510D01*
X221040D01*
G01X234310D02*
Y730210D01*
X238330D01*
X239620Y729570D01*
X240420Y728730D01*
X240740Y727030D01*
X240420Y725340D01*
X239460Y724280D01*
X238330Y723650D01*
X234310D01*
G01X238330D02*
X240740Y717510D01*
G01X259210Y755610D02*
Y768310D01*
X263230D01*
X264520Y767670D01*
X265320Y766830D01*
X265640Y765130D01*
X265320Y763440D01*
X264360Y762380D01*
X263230Y761750D01*
X259210D01*
G01X263230D02*
X265640Y755610D01*
G01X275370D02*
Y768310D01*
X273440Y765770D01*
G01Y755610D02*
X277300D01*
G01X208250Y774660D02*
X215000Y787360D01*
G01X208250D02*
X215000Y774660D01*
G01X221040Y776560D02*
X222000Y775510D01*
X223130Y774870D01*
X224570Y774660D01*
X226020Y775080D01*
X227150Y775930D01*
X227950Y777410D01*
X228110Y779100D01*
X227790Y780800D01*
X226990Y781860D01*
X225860Y782700D01*
X224740Y782910D01*
X223610Y782700D01*
X222160Y781860D01*
X222640Y787360D01*
X226990D01*
G01X258760Y920710D02*
Y933410D01*
X261970D01*
X263260Y932770D01*
X264230Y931930D01*
X265030Y930660D01*
X265670Y929180D01*
X265830Y927060D01*
X265670Y924940D01*
X265030Y923460D01*
X264230Y922190D01*
X263260Y921340D01*
X261970Y920710D01*
X258760D01*
G01X271710D02*
Y933410D01*
X274920D01*
X276210Y932770D01*
X277180Y931930D01*
X277980Y930660D01*
X278620Y929180D01*
X278780Y927060D01*
X278620Y924940D01*
X277980Y923460D01*
X277180Y922190D01*
X276210Y921340D01*
X274920Y920710D01*
X271710D01*
G01X284660Y923250D02*
X285620Y921770D01*
X286910Y920920D01*
X288360Y920710D01*
X289640Y920920D01*
X290930Y921980D01*
X291730Y923250D01*
X291890Y924520D01*
X291570Y926000D01*
X290450Y927060D01*
X289320Y927480D01*
X287870D01*
G01X289320D02*
X290290Y928120D01*
X291090Y929180D01*
X291410Y930450D01*
X291090Y931720D01*
X290290Y932770D01*
X288840Y933410D01*
X287390Y933200D01*
X285940Y932350D01*
G01X246370Y1010190D02*
Y1022890D01*
X250390D01*
X251680Y1022250D01*
X252480Y1021410D01*
X252800Y1019710D01*
X252480Y1018020D01*
X251520Y1016960D01*
X250390Y1016330D01*
X246370D01*
G01X250390D02*
X252800Y1010190D01*
G01X262530D02*
Y1022890D01*
X260600Y1020350D01*
G01Y1010190D02*
X264460D01*
G01X271950Y1012730D02*
X272910Y1011250D01*
X274200Y1010400D01*
X275650Y1010190D01*
X276930Y1010400D01*
X278220Y1011460D01*
X279020Y1012730D01*
X279180Y1014000D01*
X278860Y1015480D01*
X277740Y1016540D01*
X276610Y1016960D01*
X275160D01*
G01X276610D02*
X277580Y1017600D01*
X278380Y1018660D01*
X278700Y1019930D01*
X278380Y1021200D01*
X277580Y1022250D01*
X276130Y1022890D01*
X274680Y1022680D01*
X273230Y1021830D01*
G01X194650Y1756800D02*
X198670Y1744100D01*
X202700Y1756800D01*
G01X208090Y1744100D02*
Y1756800D01*
X211300D01*
X212590Y1756160D01*
X213560Y1755320D01*
X214360Y1754050D01*
X215000Y1752570D01*
X215160Y1750450D01*
X215000Y1748330D01*
X214360Y1746850D01*
X213560Y1745580D01*
X212590Y1744730D01*
X211300Y1744100D01*
X208090D01*
G01X221520Y1754680D02*
X222480Y1755950D01*
X223610Y1756590D01*
X224900Y1756800D01*
X226510Y1756380D01*
X227630Y1755320D01*
X227950Y1754050D01*
X227790Y1752780D01*
X227150Y1751720D01*
X223930Y1749600D01*
X222480Y1748120D01*
X221520Y1746000D01*
X221200Y1744100D01*
X227950D01*
G01X237200D02*
X237520Y1746850D01*
X238010Y1749180D01*
X238650Y1751300D01*
X239460Y1753620D01*
X240740Y1756800D01*
X234310D01*
G01X194650Y2112400D02*
X198670Y2099700D01*
X202700Y2112400D01*
G01X208090Y2099700D02*
Y2112400D01*
X211300D01*
X212590Y2111760D01*
X213560Y2110920D01*
X214360Y2109650D01*
X215000Y2108170D01*
X215160Y2106050D01*
X215000Y2103930D01*
X214360Y2102450D01*
X213560Y2101180D01*
X212590Y2100330D01*
X211300Y2099700D01*
X208090D01*
G01X221520Y2110280D02*
X222480Y2111550D01*
X223610Y2112190D01*
X224900Y2112400D01*
X226510Y2111980D01*
X227630Y2110920D01*
X227950Y2109650D01*
X227790Y2108380D01*
X227150Y2107320D01*
X223930Y2105200D01*
X222480Y2103720D01*
X221520Y2101600D01*
X221200Y2099700D01*
X227950D01*
G01X234470Y2104990D02*
X235590Y2106470D01*
X236560Y2107320D01*
X237850Y2107740D01*
X238970Y2107320D01*
X239780Y2106470D01*
X240420Y2105200D01*
X240580Y2103720D01*
X240420Y2102450D01*
X239780Y2101180D01*
X238810Y2100120D01*
X237690Y2099700D01*
X236400Y2100120D01*
X235270Y2101390D01*
X234630Y2103300D01*
X234470Y2105410D01*
X234790Y2108170D01*
X235270Y2109650D01*
X236080Y2111130D01*
X237200Y2112190D01*
X238330Y2112400D01*
X239460Y2111980D01*
X240260Y2110920D01*
G01X278520Y399530D02*
X277560Y400170D01*
X276430Y400590D01*
X275150D01*
X273700Y399950D01*
X272570Y398900D01*
X271770Y397630D01*
X271120Y395510D01*
X270960Y393600D01*
X271290Y391700D01*
X271770Y390430D01*
X272730Y389160D01*
X273860Y388310D01*
X274980Y387890D01*
X276110D01*
X277240Y388310D01*
X278200Y388950D01*
X279010Y389790D01*
G01X287930Y387890D02*
Y400590D01*
X286000Y398050D01*
G01Y387890D02*
X289860D01*
G01X298150Y389370D02*
X299280Y388310D01*
X300560Y387890D01*
X301850Y388310D01*
X302980Y389580D01*
X303780Y391490D01*
X304100Y393390D01*
Y395720D01*
X303780Y397630D01*
X302980Y399320D01*
X302010Y400170D01*
X300880Y400590D01*
X299600Y400170D01*
X298630Y399320D01*
X297990Y398050D01*
X297670Y396360D01*
X297990Y394880D01*
X298790Y393390D01*
X299760Y392550D01*
X300880Y392330D01*
X302170Y392760D01*
X303140Y393820D01*
X304100Y395720D01*
G01X326050Y385540D02*
Y377540D01*
G01X310270Y329680D02*
X309310Y330320D01*
X308180Y330740D01*
X306900D01*
X305450Y330100D01*
X304320Y329050D01*
X303520Y327780D01*
X302870Y325660D01*
X302710Y323750D01*
X303040Y321850D01*
X303520Y320580D01*
X304480Y319310D01*
X305610Y318460D01*
X306730Y318040D01*
X307860D01*
X308990Y318460D01*
X309950Y319100D01*
X310760Y319940D01*
G01X316630Y328620D02*
X317590Y329890D01*
X318720Y330530D01*
X320010Y330740D01*
X321620Y330320D01*
X322740Y329260D01*
X323060Y327990D01*
X322900Y326720D01*
X322260Y325660D01*
X319040Y323540D01*
X317590Y322060D01*
X316630Y319940D01*
X316310Y318040D01*
X323060D01*
G01X332630Y330740D02*
X331350Y330320D01*
X330380Y329260D01*
X329740Y327990D01*
X329260Y326290D01*
X329100Y324390D01*
X329260Y322480D01*
X329740Y320790D01*
X330380Y319520D01*
X331350Y318460D01*
X332630Y318040D01*
X333920Y318460D01*
X334890Y319520D01*
X335530Y320790D01*
X336010Y322480D01*
X336170Y324390D01*
X336010Y326290D01*
X335530Y327990D01*
X334890Y329260D01*
X333920Y330320D01*
X332630Y330740D01*
G01X278520Y463030D02*
X277560Y463670D01*
X276430Y464090D01*
X275150D01*
X273700Y463450D01*
X272570Y462400D01*
X271770Y461130D01*
X271120Y459010D01*
X270960Y457100D01*
X271290Y455200D01*
X271770Y453930D01*
X272730Y452660D01*
X273860Y451810D01*
X274980Y451390D01*
X276110D01*
X277240Y451810D01*
X278200Y452450D01*
X279010Y453290D01*
G01X284880Y461970D02*
X285840Y463240D01*
X286970Y463880D01*
X288260Y464090D01*
X289870Y463670D01*
X290990Y462610D01*
X291310Y461340D01*
X291150Y460070D01*
X290510Y459010D01*
X287290Y456890D01*
X285840Y455410D01*
X284880Y453290D01*
X284560Y451390D01*
X291310D01*
G01X297350Y453930D02*
X298310Y452450D01*
X299600Y451600D01*
X301050Y451390D01*
X302330Y451600D01*
X303620Y452660D01*
X304420Y453930D01*
X304580Y455200D01*
X304260Y456680D01*
X303140Y457740D01*
X302010Y458160D01*
X300560D01*
G01X302010D02*
X302980Y458800D01*
X303780Y459860D01*
X304100Y461130D01*
X303780Y462400D01*
X302980Y463450D01*
X301530Y464090D01*
X300080Y463880D01*
X298630Y463030D01*
G01X332400Y461740D02*
Y453740D01*
G01X278520Y488430D02*
X277560Y489070D01*
X276430Y489490D01*
X275150D01*
X273700Y488850D01*
X272570Y487800D01*
X271770Y486530D01*
X271120Y484410D01*
X270960Y482500D01*
X271290Y480600D01*
X271770Y479330D01*
X272730Y478060D01*
X273860Y477210D01*
X274980Y476790D01*
X276110D01*
X277240Y477210D01*
X278200Y477850D01*
X279010Y478690D01*
G01X284880Y487370D02*
X285840Y488640D01*
X286970Y489280D01*
X288260Y489490D01*
X289870Y489070D01*
X290990Y488010D01*
X291310Y486740D01*
X291150Y485470D01*
X290510Y484410D01*
X287290Y482290D01*
X285840Y480810D01*
X284880Y478690D01*
X284560Y476790D01*
X291310D01*
G01X297830Y487370D02*
X298790Y488640D01*
X299920Y489280D01*
X301210Y489490D01*
X302820Y489070D01*
X303940Y488010D01*
X304260Y486740D01*
X304100Y485470D01*
X303460Y484410D01*
X300240Y482290D01*
X298790Y480810D01*
X297830Y478690D01*
X297510Y476790D01*
X304260D01*
G01X332400Y487140D02*
Y479140D01*
G01X316760Y583680D02*
X315800Y584320D01*
X314670Y584740D01*
X313390D01*
X311940Y584100D01*
X310810Y583050D01*
X310010Y581780D01*
X309360Y579660D01*
X309200Y577750D01*
X309530Y575850D01*
X310010Y574580D01*
X310970Y573310D01*
X312100Y572460D01*
X313220Y572040D01*
X314350D01*
X315480Y572460D01*
X316440Y573100D01*
X317250Y573940D01*
G01X323120Y582620D02*
X324080Y583890D01*
X325210Y584530D01*
X326500Y584740D01*
X328110Y584320D01*
X329230Y583260D01*
X329550Y581990D01*
X329390Y580720D01*
X328750Y579660D01*
X325530Y577540D01*
X324080Y576060D01*
X323120Y573940D01*
X322800Y572040D01*
X329550D01*
G01X291360Y653530D02*
X290400Y654170D01*
X289270Y654590D01*
X287990D01*
X286540Y653950D01*
X285410Y652900D01*
X284610Y651630D01*
X283960Y649510D01*
X283800Y647600D01*
X284130Y645700D01*
X284610Y644430D01*
X285570Y643160D01*
X286700Y642310D01*
X287820Y641890D01*
X288950D01*
X290080Y642310D01*
X291040Y642950D01*
X291850Y643790D01*
G01X302710Y641890D02*
Y654590D01*
X296750Y645490D01*
X304800D01*
G01X326050Y639540D02*
Y631540D01*
G01X265110Y666710D02*
Y679410D01*
X268320D01*
X269610Y678770D01*
X270580Y677930D01*
X271380Y676660D01*
X272020Y675180D01*
X272180Y673060D01*
X272020Y670940D01*
X271380Y669460D01*
X270580Y668190D01*
X269610Y667340D01*
X268320Y666710D01*
X265110D01*
G01X278060D02*
Y679410D01*
X281270D01*
X282560Y678770D01*
X283530Y677930D01*
X284330Y676660D01*
X284970Y675180D01*
X285130Y673060D01*
X284970Y670940D01*
X284330Y669460D01*
X283530Y668190D01*
X282560Y667340D01*
X281270Y666710D01*
X278060D01*
G01X294540D02*
Y679410D01*
X292610Y676870D01*
G01Y666710D02*
X296470D01*
G01X291360Y717030D02*
X290400Y717670D01*
X289270Y718090D01*
X287990D01*
X286540Y717450D01*
X285410Y716400D01*
X284610Y715130D01*
X283960Y713010D01*
X283800Y711100D01*
X284130Y709200D01*
X284610Y707930D01*
X285570Y706660D01*
X286700Y705810D01*
X287820Y705390D01*
X288950D01*
X290080Y705810D01*
X291040Y706450D01*
X291850Y707290D01*
G01X297240D02*
X298200Y706240D01*
X299330Y705600D01*
X300770Y705390D01*
X302220Y705810D01*
X303350Y706660D01*
X304150Y708140D01*
X304310Y709830D01*
X303990Y711530D01*
X303190Y712590D01*
X302060Y713430D01*
X300940Y713640D01*
X299810Y713430D01*
X298360Y712590D01*
X298840Y718090D01*
X303190D01*
G01X332400Y715740D02*
Y707740D01*
G01X291360Y742430D02*
X290400Y743070D01*
X289270Y743490D01*
X287990D01*
X286540Y742850D01*
X285410Y741800D01*
X284610Y740530D01*
X283960Y738410D01*
X283800Y736500D01*
X284130Y734600D01*
X284610Y733330D01*
X285570Y732060D01*
X286700Y731210D01*
X287820Y730790D01*
X288950D01*
X290080Y731210D01*
X291040Y731850D01*
X291850Y732690D01*
G01X300770Y730790D02*
Y743490D01*
X298840Y740950D01*
G01Y730790D02*
X302700D01*
G01X332400Y741140D02*
Y733140D01*
G01X290960Y800640D02*
Y813340D01*
X294980D01*
X296270Y812700D01*
X297070Y811860D01*
X297390Y810160D01*
X297070Y808470D01*
X296110Y807410D01*
X294980Y806780D01*
X290960D01*
G01X294980D02*
X297390Y800640D01*
G01X304070Y811220D02*
X305030Y812490D01*
X306160Y813130D01*
X307450Y813340D01*
X309060Y812920D01*
X310180Y811860D01*
X310500Y810590D01*
X310340Y809320D01*
X309700Y808260D01*
X306480Y806140D01*
X305030Y804660D01*
X304070Y802540D01*
X303750Y800640D01*
X310500D01*
G01X310270Y837680D02*
X309310Y838320D01*
X308180Y838740D01*
X306900D01*
X305450Y838100D01*
X304320Y837050D01*
X303520Y835780D01*
X302870Y833660D01*
X302710Y831750D01*
X303040Y829850D01*
X303520Y828580D01*
X304480Y827310D01*
X305610Y826460D01*
X306730Y826040D01*
X307860D01*
X308990Y826460D01*
X309950Y827100D01*
X310760Y827940D01*
G01X319680Y826040D02*
Y838740D01*
X317750Y836200D01*
G01Y826040D02*
X321610D01*
G01X332630D02*
Y838740D01*
X330700Y836200D01*
G01Y826040D02*
X334560D01*
G01X278520Y907530D02*
X277560Y908170D01*
X276430Y908590D01*
X275150D01*
X273700Y907950D01*
X272570Y906900D01*
X271770Y905630D01*
X271120Y903510D01*
X270960Y901600D01*
X271290Y899700D01*
X271770Y898430D01*
X272730Y897160D01*
X273860Y896310D01*
X274980Y895890D01*
X276110D01*
X277240Y896310D01*
X278200Y896950D01*
X279010Y897790D01*
G01X287930Y895890D02*
Y908590D01*
X286000Y906050D01*
G01Y895890D02*
X289860D01*
G01X297830Y906470D02*
X298790Y907740D01*
X299920Y908380D01*
X301210Y908590D01*
X302820Y908170D01*
X303940Y907110D01*
X304260Y905840D01*
X304100Y904570D01*
X303460Y903510D01*
X300240Y901390D01*
X298790Y899910D01*
X297830Y897790D01*
X297510Y895890D01*
X304260D01*
G01X326050Y893540D02*
Y885540D01*
G01X278520Y977380D02*
X277560Y978020D01*
X276430Y978440D01*
X275150D01*
X273700Y977800D01*
X272570Y976750D01*
X271770Y975480D01*
X271120Y973360D01*
X270960Y971450D01*
X271290Y969550D01*
X271770Y968280D01*
X272730Y967010D01*
X273860Y966160D01*
X274980Y965740D01*
X276110D01*
X277240Y966160D01*
X278200Y966800D01*
X279010Y967640D01*
G01X287930Y965740D02*
Y978440D01*
X286000Y975900D01*
G01Y965740D02*
X289860D01*
G01X302820D02*
Y978440D01*
X296860Y969340D01*
X304910D01*
G01X332400Y969740D02*
Y961740D01*
G01X278520Y996430D02*
X277560Y997070D01*
X276430Y997490D01*
X275150D01*
X273700Y996850D01*
X272570Y995800D01*
X271770Y994530D01*
X271120Y992410D01*
X270960Y990500D01*
X271290Y988600D01*
X271770Y987330D01*
X272730Y986060D01*
X273860Y985210D01*
X274980Y984790D01*
X276110D01*
X277240Y985210D01*
X278200Y985850D01*
X279010Y986690D01*
G01X287930Y984790D02*
Y997490D01*
X286000Y994950D01*
G01Y984790D02*
X289860D01*
G01X297350Y987330D02*
X298310Y985850D01*
X299600Y985000D01*
X301050Y984790D01*
X302330Y985000D01*
X303620Y986060D01*
X304420Y987330D01*
X304580Y988600D01*
X304260Y990080D01*
X303140Y991140D01*
X302010Y991560D01*
X300560D01*
G01X302010D02*
X302980Y992200D01*
X303780Y993260D01*
X304100Y994530D01*
X303780Y995800D01*
X302980Y996850D01*
X301530Y997490D01*
X300080Y997280D01*
X298630Y996430D01*
G01X332400Y995140D02*
Y987140D01*
G01X284470Y1054640D02*
Y1067340D01*
X288490D01*
X289780Y1066700D01*
X290580Y1065860D01*
X290900Y1064160D01*
X290580Y1062470D01*
X289620Y1061410D01*
X288490Y1060780D01*
X284470D01*
G01X288490D02*
X290900Y1054640D01*
G01X300630D02*
Y1067340D01*
X298700Y1064800D01*
G01Y1054640D02*
X302560D01*
G01X315520D02*
Y1067340D01*
X309560Y1058240D01*
X317610D01*
G01X399290Y485440D02*
Y498140D01*
X402500D01*
X403790Y497500D01*
X404760Y496660D01*
X405560Y495390D01*
X406200Y493910D01*
X406360Y491790D01*
X406200Y489670D01*
X405560Y488190D01*
X404760Y486920D01*
X403790Y486070D01*
X402500Y485440D01*
X399290D01*
G01X412240D02*
Y498140D01*
X415450D01*
X416740Y497500D01*
X417710Y496660D01*
X418510Y495390D01*
X419150Y493910D01*
X419310Y491790D01*
X419150Y489670D01*
X418510Y488190D01*
X417710Y486920D01*
X416740Y486070D01*
X415450Y485440D01*
X412240D01*
G01X425670Y490730D02*
X426790Y492210D01*
X427760Y493060D01*
X429050Y493480D01*
X430170Y493060D01*
X430980Y492210D01*
X431620Y490940D01*
X431780Y489460D01*
X431620Y488190D01*
X430980Y486920D01*
X430010Y485860D01*
X428890Y485440D01*
X427600Y485860D01*
X426470Y487130D01*
X425830Y489040D01*
X425670Y491150D01*
X425990Y493910D01*
X426470Y495390D01*
X427280Y496870D01*
X428400Y497930D01*
X429530Y498140D01*
X430660Y497720D01*
X431460Y496660D01*
G01X367420Y532880D02*
X366460Y533520D01*
X365330Y533940D01*
X364050D01*
X362600Y533300D01*
X361470Y532250D01*
X360670Y530980D01*
X360020Y528860D01*
X359860Y526950D01*
X360190Y525050D01*
X360670Y523780D01*
X361630Y522510D01*
X362760Y521660D01*
X363880Y521240D01*
X365010D01*
X366140Y521660D01*
X367100Y522300D01*
X367910Y523140D01*
G01X373780Y531820D02*
X374740Y533090D01*
X375870Y533730D01*
X377160Y533940D01*
X378770Y533520D01*
X379890Y532460D01*
X380210Y531190D01*
X380050Y529920D01*
X379410Y528860D01*
X376190Y526740D01*
X374740Y525260D01*
X373780Y523140D01*
X373460Y521240D01*
X380210D01*
G01X389780D02*
Y533940D01*
X387850Y531400D01*
G01Y521240D02*
X391710D01*
G01X345100Y504540D02*
Y512540D01*
G01X399290Y739440D02*
Y752140D01*
X402500D01*
X403790Y751500D01*
X404760Y750660D01*
X405560Y749390D01*
X406200Y747910D01*
X406360Y745790D01*
X406200Y743670D01*
X405560Y742190D01*
X404760Y740920D01*
X403790Y740070D01*
X402500Y739440D01*
X399290D01*
G01X412240D02*
Y752140D01*
X415450D01*
X416740Y751500D01*
X417710Y750660D01*
X418510Y749390D01*
X419150Y747910D01*
X419310Y745790D01*
X419150Y743670D01*
X418510Y742190D01*
X417710Y740920D01*
X416740Y740070D01*
X415450Y739440D01*
X412240D01*
G01X425670Y750020D02*
X426630Y751290D01*
X427760Y751930D01*
X429050Y752140D01*
X430660Y751720D01*
X431780Y750660D01*
X432100Y749390D01*
X431940Y748120D01*
X431300Y747060D01*
X428080Y744940D01*
X426630Y743460D01*
X425670Y741340D01*
X425350Y739440D01*
X432100D01*
G01X345100Y758540D02*
Y766540D01*
G01X367560Y786880D02*
X366600Y787520D01*
X365470Y787940D01*
X364190D01*
X362740Y787300D01*
X361610Y786250D01*
X360810Y784980D01*
X360160Y782860D01*
X360000Y780950D01*
X360330Y779050D01*
X360810Y777780D01*
X361770Y776510D01*
X362900Y775660D01*
X364020Y775240D01*
X365150D01*
X366280Y775660D01*
X367240Y776300D01*
X368050Y777140D01*
G01X373440Y777780D02*
X374400Y776300D01*
X375690Y775450D01*
X377140Y775240D01*
X378420Y775450D01*
X379710Y776510D01*
X380510Y777780D01*
X380670Y779050D01*
X380350Y780530D01*
X379230Y781590D01*
X378100Y782010D01*
X376650D01*
G01X378100D02*
X379070Y782650D01*
X379870Y783710D01*
X380190Y784980D01*
X379870Y786250D01*
X379070Y787300D01*
X377620Y787940D01*
X376170Y787730D01*
X374720Y786880D01*
G01X399290Y993440D02*
Y1006140D01*
X402500D01*
X403790Y1005500D01*
X404760Y1004660D01*
X405560Y1003390D01*
X406200Y1001910D01*
X406360Y999790D01*
X406200Y997670D01*
X405560Y996190D01*
X404760Y994920D01*
X403790Y994070D01*
X402500Y993440D01*
X399290D01*
G01X412240D02*
Y1006140D01*
X415450D01*
X416740Y1005500D01*
X417710Y1004660D01*
X418510Y1003390D01*
X419150Y1001910D01*
X419310Y999790D01*
X419150Y997670D01*
X418510Y996190D01*
X417710Y994920D01*
X416740Y994070D01*
X415450Y993440D01*
X412240D01*
G01X430660D02*
Y1006140D01*
X424700Y997040D01*
X432750D01*
G01X367420Y1040880D02*
X366460Y1041520D01*
X365330Y1041940D01*
X364050D01*
X362600Y1041300D01*
X361470Y1040250D01*
X360670Y1038980D01*
X360020Y1036860D01*
X359860Y1034950D01*
X360190Y1033050D01*
X360670Y1031780D01*
X361630Y1030510D01*
X362760Y1029660D01*
X363880Y1029240D01*
X365010D01*
X366140Y1029660D01*
X367100Y1030300D01*
X367910Y1031140D01*
G01X376830Y1029240D02*
Y1041940D01*
X374900Y1039400D01*
G01Y1029240D02*
X378760D01*
G01X389780Y1041940D02*
X388500Y1041520D01*
X387530Y1040460D01*
X386890Y1039190D01*
X386410Y1037490D01*
X386250Y1035590D01*
X386410Y1033680D01*
X386890Y1031990D01*
X387530Y1030720D01*
X388500Y1029660D01*
X389780Y1029240D01*
X391070Y1029660D01*
X392040Y1030720D01*
X392680Y1031990D01*
X393160Y1033680D01*
X393320Y1035590D01*
X393160Y1037490D01*
X392680Y1039190D01*
X392040Y1040460D01*
X391070Y1041520D01*
X389780Y1041940D01*
G01X345100Y1012540D02*
Y1020540D01*
G01X354720Y1241390D02*
X353760Y1242030D01*
X352630Y1242450D01*
X351350D01*
X349900Y1241810D01*
X348770Y1240760D01*
X347970Y1239490D01*
X347320Y1237370D01*
X347160Y1235460D01*
X347490Y1233560D01*
X347970Y1232290D01*
X348930Y1231020D01*
X350060Y1230170D01*
X351180Y1229750D01*
X352310D01*
X353440Y1230170D01*
X354400Y1230810D01*
X355210Y1231650D01*
G01X360600Y1232290D02*
X361560Y1230810D01*
X362850Y1229960D01*
X364300Y1229750D01*
X365580Y1229960D01*
X366870Y1231020D01*
X367670Y1232290D01*
X367830Y1233560D01*
X367510Y1235040D01*
X366390Y1236100D01*
X365260Y1236520D01*
X363810D01*
G01X365260D02*
X366230Y1237160D01*
X367030Y1238220D01*
X367350Y1239490D01*
X367030Y1240760D01*
X366230Y1241810D01*
X364780Y1242450D01*
X363330Y1242240D01*
X361880Y1241390D01*
G01X379020Y1229750D02*
Y1242450D01*
X373060Y1233350D01*
X381110D01*
G01X400100Y1242790D02*
Y1234790D01*
G01X354720Y1425540D02*
X353760Y1426180D01*
X352630Y1426600D01*
X351350D01*
X349900Y1425960D01*
X348770Y1424910D01*
X347970Y1423640D01*
X347320Y1421520D01*
X347160Y1419610D01*
X347490Y1417710D01*
X347970Y1416440D01*
X348930Y1415170D01*
X350060Y1414320D01*
X351180Y1413900D01*
X352310D01*
X353440Y1414320D01*
X354400Y1414960D01*
X355210Y1415800D01*
G01X360600Y1416440D02*
X361560Y1414960D01*
X362850Y1414110D01*
X364300Y1413900D01*
X365580Y1414110D01*
X366870Y1415170D01*
X367670Y1416440D01*
X367830Y1417710D01*
X367510Y1419190D01*
X366390Y1420250D01*
X365260Y1420670D01*
X363810D01*
G01X365260D02*
X366230Y1421310D01*
X367030Y1422370D01*
X367350Y1423640D01*
X367030Y1424910D01*
X366230Y1425960D01*
X364780Y1426600D01*
X363330Y1426390D01*
X361880Y1425540D01*
G01X374030Y1424480D02*
X374990Y1425750D01*
X376120Y1426390D01*
X377410Y1426600D01*
X379020Y1426180D01*
X380140Y1425120D01*
X380460Y1423850D01*
X380300Y1422580D01*
X379660Y1421520D01*
X376440Y1419400D01*
X374990Y1417920D01*
X374030Y1415800D01*
X373710Y1413900D01*
X380460D01*
G01X400100Y1426940D02*
Y1418940D01*
G01X354720Y1596990D02*
X353760Y1597630D01*
X352630Y1598050D01*
X351350D01*
X349900Y1597410D01*
X348770Y1596360D01*
X347970Y1595090D01*
X347320Y1592970D01*
X347160Y1591060D01*
X347490Y1589160D01*
X347970Y1587890D01*
X348930Y1586620D01*
X350060Y1585770D01*
X351180Y1585350D01*
X352310D01*
X353440Y1585770D01*
X354400Y1586410D01*
X355210Y1587250D01*
G01X360600Y1587890D02*
X361560Y1586410D01*
X362850Y1585560D01*
X364300Y1585350D01*
X365580Y1585560D01*
X366870Y1586620D01*
X367670Y1587890D01*
X367830Y1589160D01*
X367510Y1590640D01*
X366390Y1591700D01*
X365260Y1592120D01*
X363810D01*
G01X365260D02*
X366230Y1592760D01*
X367030Y1593820D01*
X367350Y1595090D01*
X367030Y1596360D01*
X366230Y1597410D01*
X364780Y1598050D01*
X363330Y1597840D01*
X361880Y1596990D01*
G01X377080Y1598050D02*
X375800Y1597630D01*
X374830Y1596570D01*
X374190Y1595300D01*
X373710Y1593600D01*
X373550Y1591700D01*
X373710Y1589790D01*
X374190Y1588100D01*
X374830Y1586830D01*
X375800Y1585770D01*
X377080Y1585350D01*
X378370Y1585770D01*
X379340Y1586830D01*
X379980Y1588100D01*
X380460Y1589790D01*
X380620Y1591700D01*
X380460Y1593600D01*
X379980Y1595300D01*
X379340Y1596570D01*
X378370Y1597630D01*
X377080Y1598050D01*
G01X400100Y1598390D02*
Y1590390D01*
G01X461010Y232800D02*
Y245500D01*
X465030D01*
X466320Y244860D01*
X467120Y244020D01*
X467440Y242320D01*
X467120Y240630D01*
X466160Y239570D01*
X465030Y238940D01*
X461010D01*
G01X465030D02*
X467440Y232800D01*
G01X473800Y234490D02*
X475080Y233430D01*
X476530Y232800D01*
X477820D01*
X479110Y233430D01*
X480070Y234490D01*
X480550Y235980D01*
X480230Y237460D01*
X479430Y238730D01*
X477980Y239570D01*
X476050Y240000D01*
X474920Y240840D01*
X474440Y242320D01*
X474760Y243810D01*
X475570Y244860D01*
X476690Y245500D01*
X477820D01*
X478940Y245080D01*
X479910Y244020D01*
G01X492060Y232800D02*
Y245500D01*
X486100Y236400D01*
X494150D01*
G01X503070Y232800D02*
X504200Y233010D01*
X505490Y233650D01*
X506290Y234700D01*
X506610Y236190D01*
X506290Y237670D01*
X505330Y238940D01*
X503880Y239570D01*
X502270D01*
X501310Y240000D01*
X500500Y241050D01*
X500180Y242540D01*
X500660Y244020D01*
X501790Y245080D01*
X503070Y245500D01*
X504360Y245080D01*
X505490Y244020D01*
X505970Y242540D01*
X505650Y241050D01*
X504840Y240000D01*
X503880Y239570D01*
X502270D01*
X500820Y238940D01*
X499860Y237670D01*
X499540Y236190D01*
X499860Y234700D01*
X500660Y233650D01*
X501950Y233010D01*
X503070Y232800D01*
G01X512490Y234700D02*
X513450Y233650D01*
X514580Y233010D01*
X516020Y232800D01*
X517470Y233220D01*
X518600Y234070D01*
X519400Y235550D01*
X519560Y237240D01*
X519240Y238940D01*
X518440Y240000D01*
X517310Y240840D01*
X516190Y241050D01*
X515060Y240840D01*
X513610Y240000D01*
X514090Y245500D01*
X518440D01*
G01X461010Y182000D02*
Y194700D01*
X465030D01*
X466320Y194060D01*
X467120Y193220D01*
X467440Y191520D01*
X467120Y189830D01*
X466160Y188770D01*
X465030Y188140D01*
X461010D01*
G01X465030D02*
X467440Y182000D01*
G01X473800Y183690D02*
X475080Y182630D01*
X476530Y182000D01*
X477820D01*
X479110Y182630D01*
X480070Y183690D01*
X480550Y185180D01*
X480230Y186660D01*
X479430Y187930D01*
X477980Y188770D01*
X476050Y189200D01*
X474920Y190040D01*
X474440Y191520D01*
X474760Y193010D01*
X475570Y194060D01*
X476690Y194700D01*
X477820D01*
X478940Y194280D01*
X479910Y193220D01*
G01X492060Y182000D02*
Y194700D01*
X486100Y185600D01*
X494150D01*
G01X500020Y192580D02*
X500980Y193850D01*
X502110Y194490D01*
X503400Y194700D01*
X505010Y194280D01*
X506130Y193220D01*
X506450Y191950D01*
X506290Y190680D01*
X505650Y189620D01*
X502430Y187500D01*
X500980Y186020D01*
X500020Y183900D01*
X499700Y182000D01*
X506450D01*
G01X512970Y192580D02*
X513930Y193850D01*
X515060Y194490D01*
X516350Y194700D01*
X517960Y194280D01*
X519080Y193220D01*
X519400Y191950D01*
X519240Y190680D01*
X518600Y189620D01*
X515380Y187500D01*
X513930Y186020D01*
X512970Y183900D01*
X512650Y182000D01*
X519400D01*
G01X462290Y283600D02*
X466150D01*
G01X464220D02*
Y270900D01*
G01X462290D02*
X466150D01*
G01X474440D02*
Y279370D01*
G01Y277250D02*
X475080Y278310D01*
X476050Y279150D01*
X477340Y279370D01*
X478460Y279150D01*
X479430Y278310D01*
X479910Y276830D01*
Y270900D01*
G01X490120Y283600D02*
Y270900D01*
G01X487870Y279370D02*
X492380D01*
G01X500660Y276610D02*
X505810D01*
X505330Y278100D01*
X504520Y278940D01*
X503400Y279370D01*
X502270Y279150D01*
X501310Y278520D01*
X500660Y277040D01*
X500340Y275770D01*
Y274500D01*
X500660Y273230D01*
X501470Y271960D01*
X502430Y271110D01*
X503560Y270900D01*
X504680Y271320D01*
X505810Y272590D01*
G01X513770Y270900D02*
Y279370D01*
G01Y277670D02*
X514580Y278520D01*
X515380Y279150D01*
X516510Y279370D01*
X517310Y279150D01*
X518280Y278520D01*
G01X528010Y270900D02*
Y281700D01*
X528330Y282750D01*
X528970Y283390D01*
X529940Y283600D01*
X530910Y283180D01*
X531390Y282120D01*
G01X529460Y278520D02*
X526240D01*
G01X544820Y270900D02*
Y279370D01*
G01Y277890D02*
X544180Y278730D01*
X543210Y279150D01*
X542090Y279370D01*
X540960Y278940D01*
X539990Y278100D01*
X539350Y276830D01*
X539030Y275130D01*
X539350Y273440D01*
X539990Y272170D01*
X540960Y271320D01*
X542090Y270900D01*
X543210Y271110D01*
X544180Y271750D01*
X544820Y272590D01*
G01X557450Y278310D02*
X556320Y279150D01*
X555360Y279370D01*
X554070Y278940D01*
X553110Y278100D01*
X552460Y276610D01*
X552300Y275130D01*
X552460Y273650D01*
X553110Y272380D01*
X554070Y271320D01*
X555360Y270900D01*
X556480Y271320D01*
X557450Y272170D01*
G01X565410Y276610D02*
X570560D01*
X570080Y278100D01*
X569270Y278940D01*
X568150Y279370D01*
X567020Y279150D01*
X566060Y278520D01*
X565410Y277040D01*
X565090Y275770D01*
Y274500D01*
X565410Y273230D01*
X566220Y271960D01*
X567180Y271110D01*
X568310Y270900D01*
X569430Y271320D01*
X570560Y272590D01*
G01X488070Y380480D02*
X487110Y381120D01*
X485980Y381540D01*
X484700D01*
X483250Y380900D01*
X482120Y379850D01*
X481320Y378580D01*
X480670Y376460D01*
X480510Y374550D01*
X480840Y372650D01*
X481320Y371380D01*
X482280Y370110D01*
X483410Y369260D01*
X484530Y368840D01*
X485660D01*
X486790Y369260D01*
X487750Y369900D01*
X488560Y370740D01*
G01X494430Y379420D02*
X495390Y380690D01*
X496520Y381330D01*
X497810Y381540D01*
X499420Y381120D01*
X500540Y380060D01*
X500860Y378790D01*
X500700Y377520D01*
X500060Y376460D01*
X496840Y374340D01*
X495390Y372860D01*
X494430Y370740D01*
X494110Y368840D01*
X500860D01*
G01X510110D02*
X510430Y371590D01*
X510920Y373920D01*
X511560Y376040D01*
X512370Y378360D01*
X513650Y381540D01*
X507220D01*
G01X488070Y456110D02*
X487110Y456750D01*
X485980Y457170D01*
X484700D01*
X483250Y456530D01*
X482120Y455480D01*
X481320Y454210D01*
X480670Y452090D01*
X480510Y450180D01*
X480840Y448280D01*
X481320Y447010D01*
X482280Y445740D01*
X483410Y444890D01*
X484530Y444470D01*
X485660D01*
X486790Y444890D01*
X487750Y445530D01*
X488560Y446370D01*
G01X494430Y455050D02*
X495390Y456320D01*
X496520Y456960D01*
X497810Y457170D01*
X499420Y456750D01*
X500540Y455690D01*
X500860Y454420D01*
X500700Y453150D01*
X500060Y452090D01*
X496840Y449970D01*
X495390Y448490D01*
X494430Y446370D01*
X494110Y444470D01*
X500860D01*
G01X512370D02*
Y457170D01*
X506410Y448070D01*
X514460D01*
G01X475370Y519610D02*
X474410Y520250D01*
X473280Y520670D01*
X472000D01*
X470550Y520030D01*
X469420Y518980D01*
X468620Y517710D01*
X467970Y515590D01*
X467810Y513680D01*
X468140Y511780D01*
X468620Y510510D01*
X469580Y509240D01*
X470710Y508390D01*
X471830Y507970D01*
X472960D01*
X474090Y508390D01*
X475050Y509030D01*
X475860Y509870D01*
G01X481730Y518550D02*
X482690Y519820D01*
X483820Y520460D01*
X485110Y520670D01*
X486720Y520250D01*
X487840Y519190D01*
X488160Y517920D01*
X488000Y516650D01*
X487360Y515590D01*
X484140Y513470D01*
X482690Y511990D01*
X481730Y509870D01*
X481410Y507970D01*
X488160D01*
G01X494680Y513260D02*
X495800Y514740D01*
X496770Y515590D01*
X498060Y516010D01*
X499180Y515590D01*
X499990Y514740D01*
X500630Y513470D01*
X500790Y511990D01*
X500630Y510720D01*
X499990Y509450D01*
X499020Y508390D01*
X497900Y507970D01*
X496610Y508390D01*
X495480Y509660D01*
X494840Y511570D01*
X494680Y513680D01*
X495000Y516440D01*
X495480Y517920D01*
X496290Y519400D01*
X497410Y520460D01*
X498540Y520670D01*
X499670Y520250D01*
X500470Y519190D01*
G01X484800Y499840D02*
Y491840D01*
G01X494560Y634480D02*
X493600Y635120D01*
X492470Y635540D01*
X491190D01*
X489740Y634900D01*
X488610Y633850D01*
X487810Y632580D01*
X487160Y630460D01*
X487000Y628550D01*
X487330Y626650D01*
X487810Y625380D01*
X488770Y624110D01*
X489900Y623260D01*
X491020Y622840D01*
X492150D01*
X493280Y623260D01*
X494240Y623900D01*
X495050Y624740D01*
G01X500920Y628130D02*
X502040Y629610D01*
X503010Y630460D01*
X504300Y630880D01*
X505420Y630460D01*
X506230Y629610D01*
X506870Y628340D01*
X507030Y626860D01*
X506870Y625590D01*
X506230Y624320D01*
X505260Y623260D01*
X504140Y622840D01*
X502850Y623260D01*
X501720Y624530D01*
X501080Y626440D01*
X500920Y628550D01*
X501240Y631310D01*
X501720Y632790D01*
X502530Y634270D01*
X503650Y635330D01*
X504780Y635540D01*
X505910Y635120D01*
X506710Y634060D01*
G01X494560Y710100D02*
X493600Y710740D01*
X492470Y711160D01*
X491190D01*
X489740Y710520D01*
X488610Y709470D01*
X487810Y708200D01*
X487160Y706080D01*
X487000Y704170D01*
X487330Y702270D01*
X487810Y701000D01*
X488770Y699730D01*
X489900Y698880D01*
X491020Y698460D01*
X492150D01*
X493280Y698880D01*
X494240Y699520D01*
X495050Y700360D01*
G01X501240Y699940D02*
X502370Y698880D01*
X503650Y698460D01*
X504940Y698880D01*
X506070Y700150D01*
X506870Y702060D01*
X507190Y703960D01*
Y706290D01*
X506870Y708200D01*
X506070Y709890D01*
X505100Y710740D01*
X503970Y711160D01*
X502690Y710740D01*
X501720Y709890D01*
X501080Y708620D01*
X500760Y706930D01*
X501080Y705450D01*
X501880Y703960D01*
X502850Y703120D01*
X503970Y702900D01*
X505260Y703330D01*
X506230Y704390D01*
X507190Y706290D01*
G01X481860Y773610D02*
X480900Y774250D01*
X479770Y774670D01*
X478490D01*
X477040Y774030D01*
X475910Y772980D01*
X475110Y771710D01*
X474460Y769590D01*
X474300Y767680D01*
X474630Y765780D01*
X475110Y764510D01*
X476070Y763240D01*
X477200Y762390D01*
X478320Y761970D01*
X479450D01*
X480580Y762390D01*
X481540Y763030D01*
X482350Y763870D01*
G01X491270Y761970D02*
X492400Y762180D01*
X493690Y762820D01*
X494490Y763870D01*
X494810Y765360D01*
X494490Y766840D01*
X493530Y768110D01*
X492080Y768740D01*
X490470D01*
X489510Y769170D01*
X488700Y770220D01*
X488380Y771710D01*
X488860Y773190D01*
X489990Y774250D01*
X491270Y774670D01*
X492560Y774250D01*
X493690Y773190D01*
X494170Y771710D01*
X493850Y770220D01*
X493040Y769170D01*
X492080Y768740D01*
X490470D01*
X489020Y768110D01*
X488060Y766840D01*
X487740Y765360D01*
X488060Y763870D01*
X488860Y762820D01*
X490150Y762180D01*
X491270Y761970D01*
G01X484800Y753840D02*
Y745840D01*
G01X488070Y885790D02*
X487110Y886430D01*
X485980Y886850D01*
X484700D01*
X483250Y886210D01*
X482120Y885160D01*
X481320Y883890D01*
X480670Y881770D01*
X480510Y879860D01*
X480840Y877960D01*
X481320Y876690D01*
X482280Y875420D01*
X483410Y874570D01*
X484530Y874150D01*
X485660D01*
X486790Y874570D01*
X487750Y875210D01*
X488560Y876050D01*
G01X497480Y874150D02*
Y886850D01*
X495550Y884310D01*
G01Y874150D02*
X499410D01*
G01X506900Y876050D02*
X507860Y875000D01*
X508990Y874360D01*
X510430Y874150D01*
X511880Y874570D01*
X513010Y875420D01*
X513810Y876900D01*
X513970Y878590D01*
X513650Y880290D01*
X512850Y881350D01*
X511720Y882190D01*
X510600Y882400D01*
X509470Y882190D01*
X508020Y881350D01*
X508500Y886850D01*
X512850D01*
G01X488080Y964100D02*
X487120Y964740D01*
X485990Y965160D01*
X484710D01*
X483260Y964520D01*
X482130Y963470D01*
X481330Y962200D01*
X480680Y960080D01*
X480520Y958170D01*
X480850Y956270D01*
X481330Y955000D01*
X482290Y953730D01*
X483420Y952880D01*
X484540Y952460D01*
X485670D01*
X486800Y952880D01*
X487760Y953520D01*
X488570Y954360D01*
G01X497490Y952460D02*
Y965160D01*
X495560Y962620D01*
G01Y952460D02*
X499420D01*
G01X510440D02*
X511570Y952670D01*
X512860Y953310D01*
X513660Y954360D01*
X513980Y955850D01*
X513660Y957330D01*
X512700Y958600D01*
X511250Y959230D01*
X509640D01*
X508680Y959660D01*
X507870Y960710D01*
X507550Y962200D01*
X508030Y963680D01*
X509160Y964740D01*
X510440Y965160D01*
X511730Y964740D01*
X512860Y963680D01*
X513340Y962200D01*
X513020Y960710D01*
X512210Y959660D01*
X511250Y959230D01*
X509640D01*
X508190Y958600D01*
X507230Y957330D01*
X506910Y955850D01*
X507230Y954360D01*
X508030Y953310D01*
X509320Y952670D01*
X510440Y952460D01*
G01X481720Y1028180D02*
X480760Y1028820D01*
X479630Y1029240D01*
X478350D01*
X476900Y1028600D01*
X475770Y1027550D01*
X474970Y1026280D01*
X474320Y1024160D01*
X474160Y1022250D01*
X474490Y1020350D01*
X474970Y1019080D01*
X475930Y1017810D01*
X477060Y1016960D01*
X478180Y1016540D01*
X479310D01*
X480440Y1016960D01*
X481400Y1017600D01*
X482210Y1018440D01*
G01X491130Y1016540D02*
Y1029240D01*
X489200Y1026700D01*
G01Y1016540D02*
X493060D01*
G01X503760D02*
X504080Y1019290D01*
X504570Y1021620D01*
X505210Y1023740D01*
X506020Y1026060D01*
X507300Y1029240D01*
X500870D01*
G01X484800Y1007840D02*
Y999840D01*
G01X448310Y1178950D02*
Y1191650D01*
X452330D01*
X453620Y1191010D01*
X454420Y1190170D01*
X454740Y1188470D01*
X454420Y1186780D01*
X453460Y1185720D01*
X452330Y1185090D01*
X448310D01*
G01X452330D02*
X454740Y1178950D01*
G01X461420Y1184240D02*
X462540Y1185720D01*
X463510Y1186570D01*
X464800Y1186990D01*
X465920Y1186570D01*
X466730Y1185720D01*
X467370Y1184450D01*
X467530Y1182970D01*
X467370Y1181700D01*
X466730Y1180430D01*
X465760Y1179370D01*
X464640Y1178950D01*
X463350Y1179370D01*
X462220Y1180640D01*
X461580Y1182550D01*
X461420Y1184660D01*
X461740Y1187420D01*
X462220Y1188900D01*
X463030Y1190380D01*
X464150Y1191440D01*
X465280Y1191650D01*
X466410Y1191230D01*
X467210Y1190170D01*
G01X473890Y1181490D02*
X474850Y1180010D01*
X476140Y1179160D01*
X477590Y1178950D01*
X478870Y1179160D01*
X480160Y1180220D01*
X480960Y1181490D01*
X481120Y1182760D01*
X480800Y1184240D01*
X479680Y1185300D01*
X478550Y1185720D01*
X477100D01*
G01X478550D02*
X479520Y1186360D01*
X480320Y1187420D01*
X480640Y1188690D01*
X480320Y1189960D01*
X479520Y1191010D01*
X478070Y1191650D01*
X476620Y1191440D01*
X475170Y1190590D01*
G01X475050Y1247800D02*
X479070Y1235100D01*
X483100Y1247800D01*
G01X488490Y1235100D02*
Y1247800D01*
X491700D01*
X492990Y1247160D01*
X493960Y1246320D01*
X494760Y1245050D01*
X495400Y1243570D01*
X495560Y1241450D01*
X495400Y1239330D01*
X494760Y1237850D01*
X493960Y1236580D01*
X492990Y1235730D01*
X491700Y1235100D01*
X488490D01*
G01X501920Y1245680D02*
X502880Y1246950D01*
X504010Y1247590D01*
X505300Y1247800D01*
X506910Y1247380D01*
X508030Y1246320D01*
X508350Y1245050D01*
X508190Y1243780D01*
X507550Y1242720D01*
X504330Y1240600D01*
X502880Y1239120D01*
X501920Y1237000D01*
X501600Y1235100D01*
X508350D01*
G01X519860D02*
Y1247800D01*
X513900Y1238700D01*
X521950D01*
G01X423260Y1301340D02*
X427280Y1314040D01*
X431310Y1301340D01*
G01X429860Y1305780D02*
X424710D01*
G01X436210Y1314040D02*
X440230Y1301340D01*
X444260Y1314040D01*
G01X449650Y1303880D02*
X450610Y1302400D01*
X451900Y1301550D01*
X453350Y1301340D01*
X454630Y1301550D01*
X455920Y1302610D01*
X456720Y1303880D01*
X456880Y1305150D01*
X456560Y1306630D01*
X455440Y1307690D01*
X454310Y1308110D01*
X452860D01*
G01X454310D02*
X455280Y1308750D01*
X456080Y1309810D01*
X456400Y1311080D01*
X456080Y1312350D01*
X455280Y1313400D01*
X453830Y1314040D01*
X452380Y1313830D01*
X450930Y1312980D01*
G01X448310Y1363100D02*
Y1375800D01*
X452330D01*
X453620Y1375160D01*
X454420Y1374320D01*
X454740Y1372620D01*
X454420Y1370930D01*
X453460Y1369870D01*
X452330Y1369240D01*
X448310D01*
G01X452330D02*
X454740Y1363100D01*
G01X460940Y1365000D02*
X461900Y1363950D01*
X463030Y1363310D01*
X464470Y1363100D01*
X465920Y1363520D01*
X467050Y1364370D01*
X467850Y1365850D01*
X468010Y1367540D01*
X467690Y1369240D01*
X466890Y1370300D01*
X465760Y1371140D01*
X464640Y1371350D01*
X463510Y1371140D01*
X462060Y1370300D01*
X462540Y1375800D01*
X466890D01*
G01X473890Y1365000D02*
X474850Y1363950D01*
X475980Y1363310D01*
X477420Y1363100D01*
X478870Y1363520D01*
X480000Y1364370D01*
X480800Y1365850D01*
X480960Y1367540D01*
X480640Y1369240D01*
X479840Y1370300D01*
X478710Y1371140D01*
X477590Y1371350D01*
X476460Y1371140D01*
X475010Y1370300D01*
X475490Y1375800D01*
X479840D01*
G01X475050Y1431950D02*
X479070Y1419250D01*
X483100Y1431950D01*
G01X488490Y1419250D02*
Y1431950D01*
X491700D01*
X492990Y1431310D01*
X493960Y1430470D01*
X494760Y1429200D01*
X495400Y1427720D01*
X495560Y1425600D01*
X495400Y1423480D01*
X494760Y1422000D01*
X493960Y1420730D01*
X492990Y1419880D01*
X491700Y1419250D01*
X488490D01*
G01X501920Y1429830D02*
X502880Y1431100D01*
X504010Y1431740D01*
X505300Y1431950D01*
X506910Y1431530D01*
X508030Y1430470D01*
X508350Y1429200D01*
X508190Y1427930D01*
X507550Y1426870D01*
X504330Y1424750D01*
X502880Y1423270D01*
X501920Y1421150D01*
X501600Y1419250D01*
X508350D01*
G01X517920D02*
Y1431950D01*
X515990Y1429410D01*
G01Y1419250D02*
X519850D01*
G01X423360Y1486440D02*
X427380Y1499140D01*
X431410Y1486440D01*
G01X429960Y1490880D02*
X424810D01*
G01X436310Y1499140D02*
X440330Y1486440D01*
X444360Y1499140D01*
G01X450230Y1497020D02*
X451190Y1498290D01*
X452320Y1498930D01*
X453610Y1499140D01*
X455220Y1498720D01*
X456340Y1497660D01*
X456660Y1496390D01*
X456500Y1495120D01*
X455860Y1494060D01*
X452640Y1491940D01*
X451190Y1490460D01*
X450230Y1488340D01*
X449910Y1486440D01*
X456660D01*
G01X448310Y1534550D02*
Y1547250D01*
X452330D01*
X453620Y1546610D01*
X454420Y1545770D01*
X454740Y1544070D01*
X454420Y1542380D01*
X453460Y1541320D01*
X452330Y1540690D01*
X448310D01*
G01X452330D02*
X454740Y1534550D01*
G01X466410D02*
Y1547250D01*
X460450Y1538150D01*
X468500D01*
G01X477100Y1534550D02*
X477420Y1537300D01*
X477910Y1539630D01*
X478550Y1541750D01*
X479360Y1544070D01*
X480640Y1547250D01*
X474210D01*
G01X474050Y1664240D02*
X478070Y1651540D01*
X482100Y1664240D01*
G01X487490Y1651540D02*
Y1664240D01*
X490700D01*
X491990Y1663600D01*
X492960Y1662760D01*
X493760Y1661490D01*
X494400Y1660010D01*
X494560Y1657890D01*
X494400Y1655770D01*
X493760Y1654290D01*
X492960Y1653020D01*
X491990Y1652170D01*
X490700Y1651540D01*
X487490D01*
G01X503970D02*
Y1664240D01*
X502040Y1661700D01*
G01Y1651540D02*
X505900D01*
G01X514190Y1653020D02*
X515320Y1651960D01*
X516600Y1651540D01*
X517890Y1651960D01*
X519020Y1653230D01*
X519820Y1655140D01*
X520140Y1657040D01*
Y1659370D01*
X519820Y1661280D01*
X519020Y1662970D01*
X518050Y1663820D01*
X516920Y1664240D01*
X515640Y1663820D01*
X514670Y1662970D01*
X514030Y1661700D01*
X513710Y1660010D01*
X514030Y1658530D01*
X514830Y1657040D01*
X515800Y1656200D01*
X516920Y1655980D01*
X518210Y1656410D01*
X519180Y1657470D01*
X520140Y1659370D01*
G01X423360Y1657890D02*
X427380Y1670590D01*
X431410Y1657890D01*
G01X429960Y1662330D02*
X424810D01*
G01X436310Y1670590D02*
X440330Y1657890D01*
X444360Y1670590D01*
G01X453280Y1657890D02*
Y1670590D01*
X451350Y1668050D01*
G01Y1657890D02*
X455210D01*
G01X452490Y1813950D02*
X455710D01*
Y1810140D01*
X454740Y1808870D01*
X453620Y1808020D01*
X452010Y1807600D01*
X450400Y1808020D01*
X449270Y1808870D01*
X448310Y1810140D01*
X447660Y1811620D01*
X447340Y1813310D01*
Y1814800D01*
X447660Y1816070D01*
X448310Y1817550D01*
X449270Y1818820D01*
X450240Y1819660D01*
X451520Y1820300D01*
X452650D01*
X453940Y1819880D01*
X454900Y1819030D01*
G01X460780Y1807600D02*
Y1820300D01*
X468170Y1807600D01*
Y1820300D01*
G01X473890Y1807600D02*
Y1820300D01*
X477100D01*
X478390Y1819660D01*
X479360Y1818820D01*
X480160Y1817550D01*
X480800Y1816070D01*
X480960Y1813950D01*
X480800Y1811830D01*
X480160Y1810350D01*
X479360Y1809080D01*
X478390Y1808230D01*
X477100Y1807600D01*
X473890D01*
G01X493590D02*
X487160D01*
Y1820300D01*
X493590D01*
G01X491020Y1814160D02*
X487160D01*
G01X448150Y1858400D02*
X454900Y1871100D01*
G01X448150D02*
X454900Y1858400D01*
G01X466410D02*
Y1871100D01*
X460450Y1862000D01*
X468500D01*
G01X497500Y360140D02*
Y352140D01*
G01X526170Y329680D02*
X525210Y330320D01*
X524080Y330740D01*
X522800D01*
X521350Y330100D01*
X520220Y329050D01*
X519420Y327780D01*
X518770Y325660D01*
X518610Y323750D01*
X518940Y321850D01*
X519420Y320580D01*
X520380Y319310D01*
X521510Y318460D01*
X522630Y318040D01*
X523760D01*
X524890Y318460D01*
X525850Y319100D01*
X526660Y319940D01*
G01X532530Y328620D02*
X533490Y329890D01*
X534620Y330530D01*
X535910Y330740D01*
X537520Y330320D01*
X538640Y329260D01*
X538960Y327990D01*
X538800Y326720D01*
X538160Y325660D01*
X534940Y323540D01*
X533490Y322060D01*
X532530Y319940D01*
X532210Y318040D01*
X538960D01*
G01X545000Y319940D02*
X545960Y318890D01*
X547090Y318250D01*
X548530Y318040D01*
X549980Y318460D01*
X551110Y319310D01*
X551910Y320790D01*
X552070Y322480D01*
X551750Y324180D01*
X550950Y325240D01*
X549820Y326080D01*
X548700Y326290D01*
X547570Y326080D01*
X546120Y325240D01*
X546600Y330740D01*
X550950D01*
G01X544800Y490600D02*
X546080Y489540D01*
X547530Y488910D01*
X548820D01*
X550110Y489540D01*
X551070Y490600D01*
X551550Y492090D01*
X551230Y493570D01*
X550430Y494840D01*
X548980Y495680D01*
X547050Y496110D01*
X545920Y496950D01*
X545440Y498430D01*
X545760Y499920D01*
X546570Y500970D01*
X547690Y501610D01*
X548820D01*
X549940Y501190D01*
X550910Y500130D01*
G01X558070Y494200D02*
X559190Y495680D01*
X560160Y496530D01*
X561450Y496950D01*
X562570Y496530D01*
X563380Y495680D01*
X564020Y494410D01*
X564180Y492930D01*
X564020Y491660D01*
X563380Y490390D01*
X562410Y489330D01*
X561290Y488910D01*
X560000Y489330D01*
X558870Y490600D01*
X558230Y492510D01*
X558070Y494620D01*
X558390Y497380D01*
X558870Y498860D01*
X559680Y500340D01*
X560800Y501400D01*
X561930Y501610D01*
X563060Y501190D01*
X563860Y500130D01*
G01X497500Y474440D02*
Y466440D01*
G01Y614140D02*
Y606140D01*
G01X526310Y583100D02*
X525350Y583740D01*
X524220Y584160D01*
X522940D01*
X521490Y583520D01*
X520360Y582470D01*
X519560Y581200D01*
X518910Y579080D01*
X518750Y577170D01*
X519080Y575270D01*
X519560Y574000D01*
X520520Y572730D01*
X521650Y571880D01*
X522770Y571460D01*
X523900D01*
X525030Y571880D01*
X525990Y572520D01*
X526800Y573360D01*
G01X535400Y571460D02*
X535720Y574210D01*
X536210Y576540D01*
X536850Y578660D01*
X537660Y580980D01*
X538940Y584160D01*
X532510D01*
G01X544800Y744600D02*
X546080Y743540D01*
X547530Y742910D01*
X548820D01*
X550110Y743540D01*
X551070Y744600D01*
X551550Y746090D01*
X551230Y747570D01*
X550430Y748840D01*
X548980Y749680D01*
X547050Y750110D01*
X545920Y750950D01*
X545440Y752430D01*
X545760Y753920D01*
X546570Y754970D01*
X547690Y755610D01*
X548820D01*
X549940Y755190D01*
X550910Y754130D01*
G01X558070Y753490D02*
X559030Y754760D01*
X560160Y755400D01*
X561450Y755610D01*
X563060Y755190D01*
X564180Y754130D01*
X564500Y752860D01*
X564340Y751590D01*
X563700Y750530D01*
X560480Y748410D01*
X559030Y746930D01*
X558070Y744810D01*
X557750Y742910D01*
X564500D01*
G01X497500Y728440D02*
Y720440D01*
G01X526170Y834990D02*
X525210Y835630D01*
X524080Y836050D01*
X522800D01*
X521350Y835410D01*
X520220Y834360D01*
X519420Y833090D01*
X518770Y830970D01*
X518610Y829060D01*
X518940Y827160D01*
X519420Y825890D01*
X520380Y824620D01*
X521510Y823770D01*
X522630Y823350D01*
X523760D01*
X524890Y823770D01*
X525850Y824410D01*
X526660Y825250D01*
G01X535580Y823350D02*
Y836050D01*
X533650Y833510D01*
G01Y823350D02*
X537510D01*
G01X545480Y828640D02*
X546600Y830120D01*
X547570Y830970D01*
X548860Y831390D01*
X549980Y830970D01*
X550790Y830120D01*
X551430Y828850D01*
X551590Y827370D01*
X551430Y826100D01*
X550790Y824830D01*
X549820Y823770D01*
X548700Y823350D01*
X547410Y823770D01*
X546280Y825040D01*
X545640Y826950D01*
X545480Y829060D01*
X545800Y831820D01*
X546280Y833300D01*
X547090Y834780D01*
X548210Y835840D01*
X549340Y836050D01*
X550470Y835630D01*
X551270Y834570D01*
G01X497500Y868140D02*
Y860140D01*
G01X544800Y999180D02*
X546080Y998120D01*
X547530Y997490D01*
X548820D01*
X550110Y998120D01*
X551070Y999180D01*
X551550Y1000670D01*
X551230Y1002150D01*
X550430Y1003420D01*
X548980Y1004260D01*
X547050Y1004690D01*
X545920Y1005530D01*
X545440Y1007010D01*
X545760Y1008500D01*
X546570Y1009550D01*
X547690Y1010190D01*
X548820D01*
X549940Y1009770D01*
X550910Y1008710D01*
G01X563060Y997490D02*
Y1010190D01*
X557100Y1001090D01*
X565150D01*
G01X497500Y982440D02*
Y974440D01*
G01X538470Y1236100D02*
Y1248800D01*
X542490D01*
X543780Y1248160D01*
X544580Y1247320D01*
X544900Y1245620D01*
X544580Y1243930D01*
X543620Y1242870D01*
X542490Y1242240D01*
X538470D01*
G01X542490D02*
X544900Y1236100D01*
G01X551580Y1241390D02*
X552700Y1242870D01*
X553670Y1243720D01*
X554960Y1244140D01*
X556080Y1243720D01*
X556890Y1242870D01*
X557530Y1241600D01*
X557690Y1240120D01*
X557530Y1238850D01*
X556890Y1237580D01*
X555920Y1236520D01*
X554800Y1236100D01*
X553510Y1236520D01*
X552380Y1237790D01*
X551740Y1239700D01*
X551580Y1241810D01*
X551900Y1244570D01*
X552380Y1246050D01*
X553190Y1247530D01*
X554310Y1248590D01*
X555440Y1248800D01*
X556570Y1248380D01*
X557370Y1247320D01*
G01X569520Y1236100D02*
Y1248800D01*
X563560Y1239700D01*
X571610D01*
G01X538470Y1420250D02*
Y1432950D01*
X542490D01*
X543780Y1432310D01*
X544580Y1431470D01*
X544900Y1429770D01*
X544580Y1428080D01*
X543620Y1427020D01*
X542490Y1426390D01*
X538470D01*
G01X542490D02*
X544900Y1420250D01*
G01X551100Y1422150D02*
X552060Y1421100D01*
X553190Y1420460D01*
X554630Y1420250D01*
X556080Y1420670D01*
X557210Y1421520D01*
X558010Y1423000D01*
X558170Y1424690D01*
X557850Y1426390D01*
X557050Y1427450D01*
X555920Y1428290D01*
X554800Y1428500D01*
X553670Y1428290D01*
X552220Y1427450D01*
X552700Y1432950D01*
X557050D01*
G01X564530Y1425540D02*
X565650Y1427020D01*
X566620Y1427870D01*
X567910Y1428290D01*
X569030Y1427870D01*
X569840Y1427020D01*
X570480Y1425750D01*
X570640Y1424270D01*
X570480Y1423000D01*
X569840Y1421730D01*
X568870Y1420670D01*
X567750Y1420250D01*
X566460Y1420670D01*
X565330Y1421940D01*
X564690Y1423850D01*
X564530Y1425960D01*
X564850Y1428720D01*
X565330Y1430200D01*
X566140Y1431680D01*
X567260Y1432740D01*
X568390Y1432950D01*
X569520Y1432530D01*
X570320Y1431470D01*
G01X538470Y1591700D02*
Y1604400D01*
X542490D01*
X543780Y1603760D01*
X544580Y1602920D01*
X544900Y1601220D01*
X544580Y1599530D01*
X543620Y1598470D01*
X542490Y1597840D01*
X538470D01*
G01X542490D02*
X544900Y1591700D01*
G01X556570D02*
Y1604400D01*
X550610Y1595300D01*
X558660D01*
G01X567580Y1591700D02*
X568710Y1591910D01*
X570000Y1592550D01*
X570800Y1593600D01*
X571120Y1595090D01*
X570800Y1596570D01*
X569840Y1597840D01*
X568390Y1598470D01*
X566780D01*
X565820Y1598900D01*
X565010Y1599950D01*
X564690Y1601440D01*
X565170Y1602920D01*
X566300Y1603980D01*
X567580Y1604400D01*
X568870Y1603980D01*
X570000Y1602920D01*
X570480Y1601440D01*
X570160Y1599950D01*
X569350Y1598900D01*
X568390Y1598470D01*
X566780D01*
X565330Y1597840D01*
X564370Y1596570D01*
X564050Y1595090D01*
X564370Y1593600D01*
X565170Y1592550D01*
X566460Y1591910D01*
X567580Y1591700D01*
G01X551570Y1736690D02*
X550610Y1737330D01*
X549480Y1737750D01*
X548200D01*
X546750Y1737110D01*
X545620Y1736060D01*
X544820Y1734790D01*
X544170Y1732670D01*
X544010Y1730760D01*
X544340Y1728860D01*
X544820Y1727590D01*
X545780Y1726320D01*
X546910Y1725470D01*
X548030Y1725050D01*
X549160D01*
X550290Y1725470D01*
X551250Y1726110D01*
X552060Y1726950D01*
G01X557930Y1735630D02*
X558890Y1736900D01*
X560020Y1737540D01*
X561310Y1737750D01*
X562920Y1737330D01*
X564040Y1736270D01*
X564360Y1735000D01*
X564200Y1733730D01*
X563560Y1732670D01*
X560340Y1730550D01*
X558890Y1729070D01*
X557930Y1726950D01*
X557610Y1725050D01*
X564360D01*
G01X571200Y1726530D02*
X572330Y1725470D01*
X573610Y1725050D01*
X574900Y1725470D01*
X576030Y1726740D01*
X576830Y1728650D01*
X577150Y1730550D01*
Y1732880D01*
X576830Y1734790D01*
X576030Y1736480D01*
X575060Y1737330D01*
X573930Y1737750D01*
X572650Y1737330D01*
X571680Y1736480D01*
X571040Y1735210D01*
X570720Y1733520D01*
X571040Y1732040D01*
X571840Y1730550D01*
X572810Y1729710D01*
X573930Y1729490D01*
X575220Y1729920D01*
X576190Y1730980D01*
X577150Y1732880D01*
G01X561000Y1754450D02*
Y1746450D01*
G01X506400Y2042550D02*
Y2055250D01*
X509610D01*
X510900Y2054610D01*
X511870Y2053770D01*
X512670Y2052500D01*
X513310Y2051020D01*
X513470Y2048900D01*
X513310Y2046780D01*
X512670Y2045300D01*
X511870Y2044030D01*
X510900Y2043180D01*
X509610Y2042550D01*
X506400D01*
G01X519350D02*
Y2055250D01*
X522560D01*
X523850Y2054610D01*
X524820Y2053770D01*
X525620Y2052500D01*
X526260Y2051020D01*
X526420Y2048900D01*
X526260Y2046780D01*
X525620Y2045300D01*
X524820Y2044030D01*
X523850Y2043180D01*
X522560Y2042550D01*
X519350D01*
G01X535510D02*
X535830Y2045300D01*
X536320Y2047630D01*
X536960Y2049750D01*
X537770Y2052070D01*
X539050Y2055250D01*
X532620D01*
G01X557920Y2098640D02*
X556960Y2099280D01*
X555830Y2099700D01*
X554550D01*
X553100Y2099060D01*
X551970Y2098010D01*
X551170Y2096740D01*
X550520Y2094620D01*
X550360Y2092710D01*
X550690Y2090810D01*
X551170Y2089540D01*
X552130Y2088270D01*
X553260Y2087420D01*
X554380Y2087000D01*
X555510D01*
X556640Y2087420D01*
X557600Y2088060D01*
X558410Y2088900D01*
G01X564280Y2097580D02*
X565240Y2098850D01*
X566370Y2099490D01*
X567660Y2099700D01*
X569270Y2099280D01*
X570390Y2098220D01*
X570710Y2096950D01*
X570550Y2095680D01*
X569910Y2094620D01*
X566690Y2092500D01*
X565240Y2091020D01*
X564280Y2088900D01*
X563960Y2087000D01*
X570710D01*
G01X580280D02*
X581410Y2087210D01*
X582700Y2087850D01*
X583500Y2088900D01*
X583820Y2090390D01*
X583500Y2091870D01*
X582540Y2093140D01*
X581090Y2093770D01*
X579480D01*
X578520Y2094200D01*
X577710Y2095250D01*
X577390Y2096740D01*
X577870Y2098220D01*
X579000Y2099280D01*
X580280Y2099700D01*
X581570Y2099280D01*
X582700Y2098220D01*
X583180Y2096740D01*
X582860Y2095250D01*
X582050Y2094200D01*
X581090Y2093770D01*
X579480D01*
X578030Y2093140D01*
X577070Y2091870D01*
X576750Y2090390D01*
X577070Y2088900D01*
X577870Y2087850D01*
X579160Y2087210D01*
X580280Y2087000D01*
G01X561000Y2078300D02*
Y2070300D01*
G01X637620Y293300D02*
Y306000D01*
X641640D01*
X642930Y305360D01*
X643730Y304520D01*
X644050Y302820D01*
X643730Y301130D01*
X642770Y300070D01*
X641640Y299440D01*
X637620D01*
G01X641640D02*
X644050Y293300D01*
G01X650250Y295840D02*
X651210Y294360D01*
X652500Y293510D01*
X653950Y293300D01*
X655230Y293510D01*
X656520Y294570D01*
X657320Y295840D01*
X657480Y297110D01*
X657160Y298590D01*
X656040Y299650D01*
X654910Y300070D01*
X653460D01*
G01X654910D02*
X655880Y300710D01*
X656680Y301770D01*
X657000Y303040D01*
X656680Y304310D01*
X655880Y305360D01*
X654430Y306000D01*
X652980Y305790D01*
X651530Y304940D01*
G01X663680Y298590D02*
X664800Y300070D01*
X665770Y300920D01*
X667060Y301340D01*
X668180Y300920D01*
X668990Y300070D01*
X669630Y298800D01*
X669790Y297320D01*
X669630Y296050D01*
X668990Y294780D01*
X668020Y293720D01*
X666900Y293300D01*
X665610Y293720D01*
X664480Y294990D01*
X663840Y296900D01*
X663680Y299010D01*
X664000Y301770D01*
X664480Y303250D01*
X665290Y304730D01*
X666410Y305790D01*
X667540Y306000D01*
X668670Y305580D01*
X669470Y304520D01*
G01X587620Y385300D02*
Y398000D01*
X591640D01*
X592930Y397360D01*
X593730Y396520D01*
X594050Y394820D01*
X593730Y393130D01*
X592770Y392070D01*
X591640Y391440D01*
X587620D01*
G01X591640D02*
X594050Y385300D01*
G01X600250Y387840D02*
X601210Y386360D01*
X602500Y385510D01*
X603950Y385300D01*
X605230Y385510D01*
X606520Y386570D01*
X607320Y387840D01*
X607480Y389110D01*
X607160Y390590D01*
X606040Y391650D01*
X604910Y392070D01*
X603460D01*
G01X604910D02*
X605880Y392710D01*
X606680Y393770D01*
X607000Y395040D01*
X606680Y396310D01*
X605880Y397360D01*
X604430Y398000D01*
X602980Y397790D01*
X601530Y396940D01*
G01X618670Y385300D02*
Y398000D01*
X612710Y388900D01*
X620760D01*
G01X637620Y319300D02*
Y332000D01*
X641640D01*
X642930Y331360D01*
X643730Y330520D01*
X644050Y328820D01*
X643730Y327130D01*
X642770Y326070D01*
X641640Y325440D01*
X637620D01*
G01X641640D02*
X644050Y319300D01*
G01X650250Y321840D02*
X651210Y320360D01*
X652500Y319510D01*
X653950Y319300D01*
X655230Y319510D01*
X656520Y320570D01*
X657320Y321840D01*
X657480Y323110D01*
X657160Y324590D01*
X656040Y325650D01*
X654910Y326070D01*
X653460D01*
G01X654910D02*
X655880Y326710D01*
X656680Y327770D01*
X657000Y329040D01*
X656680Y330310D01*
X655880Y331360D01*
X654430Y332000D01*
X652980Y331790D01*
X651530Y330940D01*
G01X663200Y321840D02*
X664160Y320360D01*
X665450Y319510D01*
X666900Y319300D01*
X668180Y319510D01*
X669470Y320570D01*
X670270Y321840D01*
X670430Y323110D01*
X670110Y324590D01*
X668990Y325650D01*
X667860Y326070D01*
X666410D01*
G01X667860D02*
X668830Y326710D01*
X669630Y327770D01*
X669950Y329040D01*
X669630Y330310D01*
X668830Y331360D01*
X667380Y332000D01*
X665930Y331790D01*
X664480Y330940D01*
G01X637620Y345300D02*
Y358000D01*
X641640D01*
X642930Y357360D01*
X643730Y356520D01*
X644050Y354820D01*
X643730Y353130D01*
X642770Y352070D01*
X641640Y351440D01*
X637620D01*
G01X641640D02*
X644050Y345300D01*
G01X650250Y347840D02*
X651210Y346360D01*
X652500Y345510D01*
X653950Y345300D01*
X655230Y345510D01*
X656520Y346570D01*
X657320Y347840D01*
X657480Y349110D01*
X657160Y350590D01*
X656040Y351650D01*
X654910Y352070D01*
X653460D01*
G01X654910D02*
X655880Y352710D01*
X656680Y353770D01*
X657000Y355040D01*
X656680Y356310D01*
X655880Y357360D01*
X654430Y358000D01*
X652980Y357790D01*
X651530Y356940D01*
G01X663200Y347200D02*
X664160Y346150D01*
X665290Y345510D01*
X666730Y345300D01*
X668180Y345720D01*
X669310Y346570D01*
X670110Y348050D01*
X670270Y349740D01*
X669950Y351440D01*
X669150Y352500D01*
X668020Y353340D01*
X666900Y353550D01*
X665770Y353340D01*
X664320Y352500D01*
X664800Y358000D01*
X669150D01*
G01X587620Y413300D02*
Y426000D01*
X591640D01*
X592930Y425360D01*
X593730Y424520D01*
X594050Y422820D01*
X593730Y421130D01*
X592770Y420070D01*
X591640Y419440D01*
X587620D01*
G01X591640D02*
X594050Y413300D01*
G01X600250Y415840D02*
X601210Y414360D01*
X602500Y413510D01*
X603950Y413300D01*
X605230Y413510D01*
X606520Y414570D01*
X607320Y415840D01*
X607480Y417110D01*
X607160Y418590D01*
X606040Y419650D01*
X604910Y420070D01*
X603460D01*
G01X604910D02*
X605880Y420710D01*
X606680Y421770D01*
X607000Y423040D01*
X606680Y424310D01*
X605880Y425360D01*
X604430Y426000D01*
X602980Y425790D01*
X601530Y424940D01*
G01X616730Y413300D02*
Y426000D01*
X614800Y423460D01*
G01Y413300D02*
X618660D01*
G01X603620Y493300D02*
Y506000D01*
X607640D01*
X608930Y505360D01*
X609730Y504520D01*
X610050Y502820D01*
X609730Y501130D01*
X608770Y500070D01*
X607640Y499440D01*
X603620D01*
G01X607640D02*
X610050Y493300D01*
G01X616250Y495840D02*
X617210Y494360D01*
X618500Y493510D01*
X619950Y493300D01*
X621230Y493510D01*
X622520Y494570D01*
X623320Y495840D01*
X623480Y497110D01*
X623160Y498590D01*
X622040Y499650D01*
X620910Y500070D01*
X619460D01*
G01X620910D02*
X621880Y500710D01*
X622680Y501770D01*
X623000Y503040D01*
X622680Y504310D01*
X621880Y505360D01*
X620430Y506000D01*
X618980Y505790D01*
X617530Y504940D01*
G01X629680Y503880D02*
X630640Y505150D01*
X631770Y505790D01*
X633060Y506000D01*
X634670Y505580D01*
X635790Y504520D01*
X636110Y503250D01*
X635950Y501980D01*
X635310Y500920D01*
X632090Y498800D01*
X630640Y497320D01*
X629680Y495200D01*
X629360Y493300D01*
X636110D01*
G01X603620Y509300D02*
Y522000D01*
X607640D01*
X608930Y521360D01*
X609730Y520520D01*
X610050Y518820D01*
X609730Y517130D01*
X608770Y516070D01*
X607640Y515440D01*
X603620D01*
G01X607640D02*
X610050Y509300D01*
G01X616730Y519880D02*
X617690Y521150D01*
X618820Y521790D01*
X620110Y522000D01*
X621720Y521580D01*
X622840Y520520D01*
X623160Y519250D01*
X623000Y517980D01*
X622360Y516920D01*
X619140Y514800D01*
X617690Y513320D01*
X616730Y511200D01*
X616410Y509300D01*
X623160D01*
G01X630000Y510780D02*
X631130Y509720D01*
X632410Y509300D01*
X633700Y509720D01*
X634830Y510990D01*
X635630Y512900D01*
X635950Y514800D01*
Y517130D01*
X635630Y519040D01*
X634830Y520730D01*
X633860Y521580D01*
X632730Y522000D01*
X631450Y521580D01*
X630480Y520730D01*
X629840Y519460D01*
X629520Y517770D01*
X629840Y516290D01*
X630640Y514800D01*
X631610Y513960D01*
X632730Y513740D01*
X634020Y514170D01*
X634990Y515230D01*
X635950Y517130D01*
G01X637620Y599300D02*
Y612000D01*
X641640D01*
X642930Y611360D01*
X643730Y610520D01*
X644050Y608820D01*
X643730Y607130D01*
X642770Y606070D01*
X641640Y605440D01*
X637620D01*
G01X641640D02*
X644050Y599300D01*
G01X653780D02*
Y612000D01*
X651850Y609460D01*
G01Y599300D02*
X655710D01*
G01X666730D02*
Y612000D01*
X664800Y609460D01*
G01Y599300D02*
X668660D01*
G01X638110Y573300D02*
Y586000D01*
X642130D01*
X643420Y585360D01*
X644220Y584520D01*
X644540Y582820D01*
X644220Y581130D01*
X643260Y580070D01*
X642130Y579440D01*
X638110D01*
G01X642130D02*
X644540Y573300D01*
G01X651540Y574780D02*
X652670Y573720D01*
X653950Y573300D01*
X655240Y573720D01*
X656370Y574990D01*
X657170Y576900D01*
X657490Y578800D01*
Y581130D01*
X657170Y583040D01*
X656370Y584730D01*
X655400Y585580D01*
X654270Y586000D01*
X652990Y585580D01*
X652020Y584730D01*
X651380Y583460D01*
X651060Y581770D01*
X651380Y580290D01*
X652180Y578800D01*
X653150Y577960D01*
X654270Y577740D01*
X655560Y578170D01*
X656530Y579230D01*
X657490Y581130D01*
G01X637620Y549300D02*
Y562000D01*
X641640D01*
X642930Y561360D01*
X643730Y560520D01*
X644050Y558820D01*
X643730Y557130D01*
X642770Y556070D01*
X641640Y555440D01*
X637620D01*
G01X641640D02*
X644050Y549300D01*
G01X653780D02*
Y562000D01*
X651850Y559460D01*
G01Y549300D02*
X655710D01*
G01X663680Y559880D02*
X664640Y561150D01*
X665770Y561790D01*
X667060Y562000D01*
X668670Y561580D01*
X669790Y560520D01*
X670110Y559250D01*
X669950Y557980D01*
X669310Y556920D01*
X666090Y554800D01*
X664640Y553320D01*
X663680Y551200D01*
X663360Y549300D01*
X670110D01*
G01X587620Y639300D02*
Y652000D01*
X591640D01*
X592930Y651360D01*
X593730Y650520D01*
X594050Y648820D01*
X593730Y647130D01*
X592770Y646070D01*
X591640Y645440D01*
X587620D01*
G01X591640D02*
X594050Y639300D01*
G01X603780D02*
Y652000D01*
X601850Y649460D01*
G01Y639300D02*
X605710D01*
G01X616730Y652000D02*
X615450Y651580D01*
X614480Y650520D01*
X613840Y649250D01*
X613360Y647550D01*
X613200Y645650D01*
X613360Y643740D01*
X613840Y642050D01*
X614480Y640780D01*
X615450Y639720D01*
X616730Y639300D01*
X618020Y639720D01*
X618990Y640780D01*
X619630Y642050D01*
X620110Y643740D01*
X620270Y645650D01*
X620110Y647550D01*
X619630Y649250D01*
X618990Y650520D01*
X618020Y651580D01*
X616730Y652000D01*
G01X598110Y667300D02*
Y680000D01*
X602130D01*
X603420Y679360D01*
X604220Y678520D01*
X604540Y676820D01*
X604220Y675130D01*
X603260Y674070D01*
X602130Y673440D01*
X598110D01*
G01X602130D02*
X604540Y667300D01*
G01X613950D02*
X614270Y670050D01*
X614760Y672380D01*
X615400Y674500D01*
X616210Y676820D01*
X617490Y680000D01*
X611060D01*
G01X608110Y747300D02*
Y760000D01*
X612130D01*
X613420Y759360D01*
X614220Y758520D01*
X614540Y756820D01*
X614220Y755130D01*
X613260Y754070D01*
X612130Y753440D01*
X608110D01*
G01X612130D02*
X614540Y747300D01*
G01X624270D02*
X625400Y747510D01*
X626690Y748150D01*
X627490Y749200D01*
X627810Y750690D01*
X627490Y752170D01*
X626530Y753440D01*
X625080Y754070D01*
X623470D01*
X622510Y754500D01*
X621700Y755550D01*
X621380Y757040D01*
X621860Y758520D01*
X622990Y759580D01*
X624270Y760000D01*
X625560Y759580D01*
X626690Y758520D01*
X627170Y757040D01*
X626850Y755550D01*
X626040Y754500D01*
X625080Y754070D01*
X623470D01*
X622020Y753440D01*
X621060Y752170D01*
X620740Y750690D01*
X621060Y749200D01*
X621860Y748150D01*
X623150Y747510D01*
X624270Y747300D01*
G01X608110Y763300D02*
Y776000D01*
X612130D01*
X613420Y775360D01*
X614220Y774520D01*
X614540Y772820D01*
X614220Y771130D01*
X613260Y770070D01*
X612130Y769440D01*
X608110D01*
G01X612130D02*
X614540Y763300D01*
G01X620740Y765200D02*
X621700Y764150D01*
X622830Y763510D01*
X624270Y763300D01*
X625720Y763720D01*
X626850Y764570D01*
X627650Y766050D01*
X627810Y767740D01*
X627490Y769440D01*
X626690Y770500D01*
X625560Y771340D01*
X624440Y771550D01*
X623310Y771340D01*
X621860Y770500D01*
X622340Y776000D01*
X626690D01*
G01X640080Y800060D02*
Y812760D01*
X644100D01*
X645390Y812120D01*
X646190Y811280D01*
X646510Y809580D01*
X646190Y807890D01*
X645230Y806830D01*
X644100Y806200D01*
X640080D01*
G01X644100D02*
X646510Y800060D01*
G01X653190Y810640D02*
X654150Y811910D01*
X655280Y812550D01*
X656570Y812760D01*
X658180Y812340D01*
X659300Y811280D01*
X659620Y810010D01*
X659460Y808740D01*
X658820Y807680D01*
X655600Y805560D01*
X654150Y804080D01*
X653190Y801960D01*
X652870Y800060D01*
X659620D01*
G01X671130D02*
Y812760D01*
X665170Y803660D01*
X673220D01*
G01X640080Y825460D02*
Y838160D01*
X644100D01*
X645390Y837520D01*
X646190Y836680D01*
X646510Y834980D01*
X646190Y833290D01*
X645230Y832230D01*
X644100Y831600D01*
X640080D01*
G01X644100D02*
X646510Y825460D01*
G01X653190Y836040D02*
X654150Y837310D01*
X655280Y837950D01*
X656570Y838160D01*
X658180Y837740D01*
X659300Y836680D01*
X659620Y835410D01*
X659460Y834140D01*
X658820Y833080D01*
X655600Y830960D01*
X654150Y829480D01*
X653190Y827360D01*
X652870Y825460D01*
X659620D01*
G01X669190D02*
Y838160D01*
X667260Y835620D01*
G01Y825460D02*
X671120D01*
G01X640070Y857790D02*
Y870490D01*
X644090D01*
X645380Y869850D01*
X646180Y869010D01*
X646500Y867310D01*
X646180Y865620D01*
X645220Y864560D01*
X644090Y863930D01*
X640070D01*
G01X644090D02*
X646500Y857790D01*
G01X653180Y868370D02*
X654140Y869640D01*
X655270Y870280D01*
X656560Y870490D01*
X658170Y870070D01*
X659290Y869010D01*
X659610Y867740D01*
X659450Y866470D01*
X658810Y865410D01*
X655590Y863290D01*
X654140Y861810D01*
X653180Y859690D01*
X652860Y857790D01*
X659610D01*
G01X665650Y860330D02*
X666610Y858850D01*
X667900Y858000D01*
X669350Y857790D01*
X670630Y858000D01*
X671920Y859060D01*
X672720Y860330D01*
X672880Y861600D01*
X672560Y863080D01*
X671440Y864140D01*
X670310Y864560D01*
X668860D01*
G01X670310D02*
X671280Y865200D01*
X672080Y866260D01*
X672400Y867530D01*
X672080Y868800D01*
X671280Y869850D01*
X669830Y870490D01*
X668380Y870280D01*
X666930Y869430D01*
G01X586620Y894300D02*
Y907000D01*
X590640D01*
X591930Y906360D01*
X592730Y905520D01*
X593050Y903820D01*
X592730Y902130D01*
X591770Y901070D01*
X590640Y900440D01*
X586620D01*
G01X590640D02*
X593050Y894300D01*
G01X599730Y904880D02*
X600690Y906150D01*
X601820Y906790D01*
X603110Y907000D01*
X604720Y906580D01*
X605840Y905520D01*
X606160Y904250D01*
X606000Y902980D01*
X605360Y901920D01*
X602140Y899800D01*
X600690Y898320D01*
X599730Y896200D01*
X599410Y894300D01*
X606160D01*
G01X612680Y904880D02*
X613640Y906150D01*
X614770Y906790D01*
X616060Y907000D01*
X617670Y906580D01*
X618790Y905520D01*
X619110Y904250D01*
X618950Y902980D01*
X618310Y901920D01*
X615090Y899800D01*
X613640Y898320D01*
X612680Y896200D01*
X612360Y894300D01*
X619110D01*
G01X587620Y921300D02*
Y934000D01*
X591640D01*
X592930Y933360D01*
X593730Y932520D01*
X594050Y930820D01*
X593730Y929130D01*
X592770Y928070D01*
X591640Y927440D01*
X587620D01*
G01X591640D02*
X594050Y921300D01*
G01X603780D02*
Y934000D01*
X601850Y931460D01*
G01Y921300D02*
X605710D01*
G01X614000Y922780D02*
X615130Y921720D01*
X616410Y921300D01*
X617700Y921720D01*
X618830Y922990D01*
X619630Y924900D01*
X619950Y926800D01*
Y929130D01*
X619630Y931040D01*
X618830Y932730D01*
X617860Y933580D01*
X616730Y934000D01*
X615450Y933580D01*
X614480Y932730D01*
X613840Y931460D01*
X613520Y929770D01*
X613840Y928290D01*
X614640Y926800D01*
X615610Y925960D01*
X616730Y925740D01*
X618020Y926170D01*
X618990Y927230D01*
X619950Y929130D01*
G01X601620Y1003300D02*
Y1016000D01*
X605640D01*
X606930Y1015360D01*
X607730Y1014520D01*
X608050Y1012820D01*
X607730Y1011130D01*
X606770Y1010070D01*
X605640Y1009440D01*
X601620D01*
G01X605640D02*
X608050Y1003300D01*
G01X614730Y1013880D02*
X615690Y1015150D01*
X616820Y1015790D01*
X618110Y1016000D01*
X619720Y1015580D01*
X620840Y1014520D01*
X621160Y1013250D01*
X621000Y1011980D01*
X620360Y1010920D01*
X617140Y1008800D01*
X615690Y1007320D01*
X614730Y1005200D01*
X614410Y1003300D01*
X621160D01*
G01X630730Y1016000D02*
X629450Y1015580D01*
X628480Y1014520D01*
X627840Y1013250D01*
X627360Y1011550D01*
X627200Y1009650D01*
X627360Y1007740D01*
X627840Y1006050D01*
X628480Y1004780D01*
X629450Y1003720D01*
X630730Y1003300D01*
X632020Y1003720D01*
X632990Y1004780D01*
X633630Y1006050D01*
X634110Y1007740D01*
X634270Y1009650D01*
X634110Y1011550D01*
X633630Y1013250D01*
X632990Y1014520D01*
X632020Y1015580D01*
X630730Y1016000D01*
G01X601620Y1021300D02*
Y1034000D01*
X605640D01*
X606930Y1033360D01*
X607730Y1032520D01*
X608050Y1030820D01*
X607730Y1029130D01*
X606770Y1028070D01*
X605640Y1027440D01*
X601620D01*
G01X605640D02*
X608050Y1021300D01*
G01X617780D02*
Y1034000D01*
X615850Y1031460D01*
G01Y1021300D02*
X619710D01*
G01X630410D02*
X630730Y1024050D01*
X631220Y1026380D01*
X631860Y1028500D01*
X632670Y1030820D01*
X633950Y1034000D01*
X627520D01*
G01X582000Y1299600D02*
X586020Y1286900D01*
X590050Y1299600D01*
G01X595440Y1286900D02*
Y1299600D01*
X598650D01*
X599940Y1298960D01*
X600910Y1298120D01*
X601710Y1296850D01*
X602350Y1295370D01*
X602510Y1293250D01*
X602350Y1291130D01*
X601710Y1289650D01*
X600910Y1288380D01*
X599940Y1287530D01*
X598650Y1286900D01*
X595440D01*
G01X608870Y1297480D02*
X609830Y1298750D01*
X610960Y1299390D01*
X612250Y1299600D01*
X613860Y1299180D01*
X614980Y1298120D01*
X615300Y1296850D01*
X615140Y1295580D01*
X614500Y1294520D01*
X611280Y1292400D01*
X609830Y1290920D01*
X608870Y1288800D01*
X608550Y1286900D01*
X615300D01*
G01X621340Y1289440D02*
X622300Y1287960D01*
X623590Y1287110D01*
X625040Y1286900D01*
X626320Y1287110D01*
X627610Y1288170D01*
X628410Y1289440D01*
X628570Y1290710D01*
X628250Y1292190D01*
X627130Y1293250D01*
X626000Y1293670D01*
X624550D01*
G01X626000D02*
X626970Y1294310D01*
X627770Y1295370D01*
X628090Y1296640D01*
X627770Y1297910D01*
X626970Y1298960D01*
X625520Y1299600D01*
X624070Y1299390D01*
X622620Y1298540D01*
G01X639150Y1305950D02*
X643170Y1293250D01*
X647200Y1305950D01*
G01X652590Y1293250D02*
Y1305950D01*
X655800D01*
X657090Y1305310D01*
X658060Y1304470D01*
X658860Y1303200D01*
X659500Y1301720D01*
X659660Y1299600D01*
X659500Y1297480D01*
X658860Y1296000D01*
X658060Y1294730D01*
X657090Y1293880D01*
X655800Y1293250D01*
X652590D01*
G01X666020Y1303830D02*
X666980Y1305100D01*
X668110Y1305740D01*
X669400Y1305950D01*
X671010Y1305530D01*
X672130Y1304470D01*
X672450Y1303200D01*
X672290Y1301930D01*
X671650Y1300870D01*
X668430Y1298750D01*
X666980Y1297270D01*
X666020Y1295150D01*
X665700Y1293250D01*
X672450D01*
G01X678490Y1295150D02*
X679450Y1294100D01*
X680580Y1293460D01*
X682020Y1293250D01*
X683470Y1293670D01*
X684600Y1294520D01*
X685400Y1296000D01*
X685560Y1297690D01*
X685240Y1299390D01*
X684440Y1300450D01*
X683310Y1301290D01*
X682190Y1301500D01*
X681060Y1301290D01*
X679610Y1300450D01*
X680090Y1305950D01*
X684440D01*
G01X582000Y1483750D02*
X586020Y1471050D01*
X590050Y1483750D01*
G01X595440Y1471050D02*
Y1483750D01*
X598650D01*
X599940Y1483110D01*
X600910Y1482270D01*
X601710Y1481000D01*
X602350Y1479520D01*
X602510Y1477400D01*
X602350Y1475280D01*
X601710Y1473800D01*
X600910Y1472530D01*
X599940Y1471680D01*
X598650Y1471050D01*
X595440D01*
G01X608870Y1481630D02*
X609830Y1482900D01*
X610960Y1483540D01*
X612250Y1483750D01*
X613860Y1483330D01*
X614980Y1482270D01*
X615300Y1481000D01*
X615140Y1479730D01*
X614500Y1478670D01*
X611280Y1476550D01*
X609830Y1475070D01*
X608870Y1472950D01*
X608550Y1471050D01*
X615300D01*
G01X624870Y1483750D02*
X623590Y1483330D01*
X622620Y1482270D01*
X621980Y1481000D01*
X621500Y1479300D01*
X621340Y1477400D01*
X621500Y1475490D01*
X621980Y1473800D01*
X622620Y1472530D01*
X623590Y1471470D01*
X624870Y1471050D01*
X626160Y1471470D01*
X627130Y1472530D01*
X627770Y1473800D01*
X628250Y1475490D01*
X628410Y1477400D01*
X628250Y1479300D01*
X627770Y1481000D01*
X627130Y1482270D01*
X626160Y1483330D01*
X624870Y1483750D01*
G01X639150Y1490100D02*
X643170Y1477400D01*
X647200Y1490100D01*
G01X652590Y1477400D02*
Y1490100D01*
X655800D01*
X657090Y1489460D01*
X658060Y1488620D01*
X658860Y1487350D01*
X659500Y1485870D01*
X659660Y1483750D01*
X659500Y1481630D01*
X658860Y1480150D01*
X658060Y1478880D01*
X657090Y1478030D01*
X655800Y1477400D01*
X652590D01*
G01X666020Y1487980D02*
X666980Y1489250D01*
X668110Y1489890D01*
X669400Y1490100D01*
X671010Y1489680D01*
X672130Y1488620D01*
X672450Y1487350D01*
X672290Y1486080D01*
X671650Y1485020D01*
X668430Y1482900D01*
X666980Y1481420D01*
X666020Y1479300D01*
X665700Y1477400D01*
X672450D01*
G01X678970Y1487980D02*
X679930Y1489250D01*
X681060Y1489890D01*
X682350Y1490100D01*
X683960Y1489680D01*
X685080Y1488620D01*
X685400Y1487350D01*
X685240Y1486080D01*
X684600Y1485020D01*
X681380Y1482900D01*
X679930Y1481420D01*
X678970Y1479300D01*
X678650Y1477400D01*
X685400D01*
G01X582000Y1655200D02*
X586020Y1642500D01*
X590050Y1655200D01*
G01X595440Y1642500D02*
Y1655200D01*
X598650D01*
X599940Y1654560D01*
X600910Y1653720D01*
X601710Y1652450D01*
X602350Y1650970D01*
X602510Y1648850D01*
X602350Y1646730D01*
X601710Y1645250D01*
X600910Y1643980D01*
X599940Y1643130D01*
X598650Y1642500D01*
X595440D01*
G01X611920D02*
Y1655200D01*
X609990Y1652660D01*
G01Y1642500D02*
X613850D01*
G01X624550D02*
X624870Y1645250D01*
X625360Y1647580D01*
X626000Y1649700D01*
X626810Y1652020D01*
X628090Y1655200D01*
X621660D01*
G01X639150Y1661550D02*
X643170Y1648850D01*
X647200Y1661550D01*
G01X652590Y1648850D02*
Y1661550D01*
X655800D01*
X657090Y1660910D01*
X658060Y1660070D01*
X658860Y1658800D01*
X659500Y1657320D01*
X659660Y1655200D01*
X659500Y1653080D01*
X658860Y1651600D01*
X658060Y1650330D01*
X657090Y1649480D01*
X655800Y1648850D01*
X652590D01*
G01X669070D02*
Y1661550D01*
X667140Y1659010D01*
G01Y1648850D02*
X671000D01*
G01X682020D02*
X683150Y1649060D01*
X684440Y1649700D01*
X685240Y1650750D01*
X685560Y1652240D01*
X685240Y1653720D01*
X684280Y1654990D01*
X682830Y1655620D01*
X681220D01*
X680260Y1656050D01*
X679450Y1657100D01*
X679130Y1658590D01*
X679610Y1660070D01*
X680740Y1661130D01*
X682020Y1661550D01*
X683310Y1661130D01*
X684440Y1660070D01*
X684920Y1658590D01*
X684600Y1657100D01*
X683790Y1656050D01*
X682830Y1655620D01*
X681220D01*
X679770Y1654990D01*
X678810Y1653720D01*
X678490Y1652240D01*
X678810Y1650750D01*
X679610Y1649700D01*
X680900Y1649060D01*
X682020Y1648850D01*
G01X620540Y1750450D02*
Y1763150D01*
G01X626650D02*
X620540Y1755320D01*
G01X627610Y1750450D02*
X623270Y1758920D01*
G01X638960Y1750450D02*
Y1763150D01*
X633000Y1754050D01*
X641050D01*
G01X620540Y1845700D02*
Y1858400D01*
G01X626650D02*
X620540Y1850570D01*
G01X627610Y1845700D02*
X623270Y1854170D01*
G01X633490Y1848240D02*
X634450Y1846760D01*
X635740Y1845910D01*
X637190Y1845700D01*
X638470Y1845910D01*
X639760Y1846970D01*
X640560Y1848240D01*
X640720Y1849510D01*
X640400Y1850990D01*
X639280Y1852050D01*
X638150Y1852470D01*
X636700D01*
G01X638150D02*
X639120Y1853110D01*
X639920Y1854170D01*
X640240Y1855440D01*
X639920Y1856710D01*
X639120Y1857760D01*
X637670Y1858400D01*
X636220Y1858190D01*
X634770Y1857340D01*
G01X620540Y1953650D02*
Y1966350D01*
G01X626650D02*
X620540Y1958520D01*
G01X627610Y1953650D02*
X623270Y1962120D01*
G01X633970Y1964230D02*
X634930Y1965500D01*
X636060Y1966140D01*
X637350Y1966350D01*
X638960Y1965930D01*
X640080Y1964870D01*
X640400Y1963600D01*
X640240Y1962330D01*
X639600Y1961270D01*
X636380Y1959150D01*
X634930Y1957670D01*
X633970Y1955550D01*
X633650Y1953650D01*
X640400D01*
G01X620540Y2055250D02*
Y2067950D01*
G01X626650D02*
X620540Y2060120D01*
G01X627610Y2055250D02*
X623270Y2063720D01*
G01X637020Y2055250D02*
Y2067950D01*
X635090Y2065410D01*
G01Y2055250D02*
X638950D01*
G01X718220Y131200D02*
Y143900D01*
X716290Y141360D01*
G01Y131200D02*
X720150D01*
G01X728120Y141780D02*
X729080Y143050D01*
X730210Y143690D01*
X731500Y143900D01*
X733110Y143480D01*
X734230Y142420D01*
X734550Y141150D01*
X734390Y139880D01*
X733750Y138820D01*
X730530Y136700D01*
X729080Y135220D01*
X728120Y133100D01*
X727800Y131200D01*
X734550D01*
G01X744120Y143900D02*
X742840Y143480D01*
X741870Y142420D01*
X741230Y141150D01*
X740750Y139450D01*
X740590Y137550D01*
X740750Y135640D01*
X741230Y133950D01*
X741870Y132680D01*
X742840Y131620D01*
X744120Y131200D01*
X745410Y131620D01*
X746380Y132680D01*
X747020Y133950D01*
X747500Y135640D01*
X747660Y137550D01*
X747500Y139450D01*
X747020Y141150D01*
X746380Y142420D01*
X745410Y143480D01*
X744120Y143900D01*
G01X757070Y131200D02*
X755790Y131410D01*
X754660Y132260D01*
X753700Y133530D01*
X753050Y135010D01*
X752730Y136700D01*
Y138400D01*
X753050Y140090D01*
X753700Y141570D01*
X754660Y142840D01*
X755790Y143690D01*
X757070Y143900D01*
X758360Y143690D01*
X759490Y142840D01*
X760450Y141570D01*
X761100Y140090D01*
X761420Y138400D01*
Y136700D01*
X761100Y135010D01*
X760450Y133530D01*
X759490Y132260D01*
X758360Y131410D01*
X757070Y131200D01*
G01X767290D02*
Y143900D01*
G01Y137760D02*
X768090Y138820D01*
X768900Y139450D01*
X770190Y139670D01*
X771150Y139450D01*
X772280Y138610D01*
X772760Y137340D01*
Y131200D01*
G01X778150D02*
Y139670D01*
G01Y137340D02*
X778630Y138400D01*
X779440Y139240D01*
X780560Y139670D01*
X781690Y139240D01*
X782490Y138400D01*
X782970Y137340D01*
Y131200D01*
G01Y137340D02*
X783460Y138400D01*
X784260Y139240D01*
X785390Y139670D01*
X786510Y139240D01*
X787320Y138400D01*
X787800Y137130D01*
Y131200D01*
G01X714690Y183900D02*
X715650Y182850D01*
X716780Y182210D01*
X718220Y182000D01*
X719670Y182420D01*
X720800Y183270D01*
X721600Y184750D01*
X721760Y186440D01*
X721440Y188140D01*
X720640Y189200D01*
X719510Y190040D01*
X718390Y190250D01*
X717260Y190040D01*
X715810Y189200D01*
X716290Y194700D01*
X720640D01*
G01X731170Y182000D02*
Y194700D01*
X729240Y192160D01*
G01Y182000D02*
X733100D01*
G01X744120D02*
X742840Y182210D01*
X741710Y183060D01*
X740750Y184330D01*
X740100Y185810D01*
X739780Y187500D01*
Y189200D01*
X740100Y190890D01*
X740750Y192370D01*
X741710Y193640D01*
X742840Y194490D01*
X744120Y194700D01*
X745410Y194490D01*
X746540Y193640D01*
X747500Y192370D01*
X748150Y190890D01*
X748470Y189200D01*
Y187500D01*
X748150Y185810D01*
X747500Y184330D01*
X746540Y183060D01*
X745410Y182210D01*
X744120Y182000D01*
G01X754340D02*
Y194700D01*
G01Y188560D02*
X755140Y189620D01*
X755950Y190250D01*
X757240Y190470D01*
X758200Y190250D01*
X759330Y189410D01*
X759810Y188140D01*
Y182000D01*
G01X765200D02*
Y190470D01*
G01Y188140D02*
X765680Y189200D01*
X766490Y190040D01*
X767610Y190470D01*
X768740Y190040D01*
X769540Y189200D01*
X770020Y188140D01*
Y182000D01*
G01Y188140D02*
X770510Y189200D01*
X771310Y190040D01*
X772440Y190470D01*
X773560Y190040D01*
X774370Y189200D01*
X774850Y187930D01*
Y182000D01*
G01X714530Y232800D02*
Y245500D01*
X721920Y232800D01*
Y245500D01*
G01X731170Y232800D02*
X730210Y233010D01*
X729240Y233860D01*
X728600Y235340D01*
X728280Y237030D01*
X728600Y238730D01*
X729240Y240210D01*
X730210Y241050D01*
X731170Y241270D01*
X732140Y241050D01*
X733110Y240210D01*
X733750Y238730D01*
X733910Y237030D01*
X733750Y235340D01*
X733110Y233860D01*
X732140Y233010D01*
X731170Y232800D01*
G01X741390D02*
Y241270D01*
G01Y239150D02*
X742030Y240210D01*
X743000Y241050D01*
X744290Y241270D01*
X745410Y241050D01*
X746380Y240210D01*
X746860Y238730D01*
Y232800D01*
G01X754660Y238510D02*
X759810D01*
X759330Y240000D01*
X758520Y240840D01*
X757400Y241270D01*
X756270Y241050D01*
X755310Y240420D01*
X754660Y238940D01*
X754340Y237670D01*
Y236400D01*
X754660Y235130D01*
X755470Y233860D01*
X756430Y233010D01*
X757560Y232800D01*
X758680Y233220D01*
X759810Y234490D01*
G01X661070Y283600D02*
Y270900D01*
G01X657380Y283600D02*
X664770D01*
G01X671610Y276610D02*
X676760D01*
X676280Y278100D01*
X675470Y278940D01*
X674350Y279370D01*
X673220Y279150D01*
X672260Y278520D01*
X671610Y277040D01*
X671290Y275770D01*
Y274500D01*
X671610Y273230D01*
X672420Y271960D01*
X673380Y271110D01*
X674510Y270900D01*
X675630Y271320D01*
X676760Y272590D01*
G01X684720Y270900D02*
Y279370D01*
G01Y277670D02*
X685530Y278520D01*
X686330Y279150D01*
X687460Y279370D01*
X688260Y279150D01*
X689230Y278520D01*
G01X695100Y270900D02*
Y279370D01*
G01Y277040D02*
X695580Y278100D01*
X696390Y278940D01*
X697510Y279370D01*
X698640Y278940D01*
X699440Y278100D01*
X699920Y277040D01*
Y270900D01*
G01Y277040D02*
X700410Y278100D01*
X701210Y278940D01*
X702340Y279370D01*
X703460Y278940D01*
X704270Y278100D01*
X704750Y276830D01*
Y270900D01*
G01X712870Y279370D02*
Y270900D01*
G01Y282750D02*
X712550Y282960D01*
Y283390D01*
X712870Y283600D01*
X713200Y283390D01*
Y282960D01*
X712870Y282750D01*
G01X723090Y270900D02*
Y279370D01*
G01Y277250D02*
X723730Y278310D01*
X724700Y279150D01*
X725990Y279370D01*
X727110Y279150D01*
X728080Y278310D01*
X728560Y276830D01*
Y270900D01*
G01X741670D02*
Y279370D01*
G01Y277890D02*
X741030Y278730D01*
X740060Y279150D01*
X738940Y279370D01*
X737810Y278940D01*
X736840Y278100D01*
X736200Y276830D01*
X735880Y275130D01*
X736200Y273440D01*
X736840Y272170D01*
X737810Y271320D01*
X738940Y270900D01*
X740060Y271110D01*
X741030Y271750D01*
X741670Y272590D01*
G01X751720Y283600D02*
Y270900D01*
G01X749470Y279370D02*
X753980D01*
G01X764670Y270900D02*
X763710Y271110D01*
X762740Y271960D01*
X762100Y273440D01*
X761780Y275130D01*
X762100Y276830D01*
X762740Y278310D01*
X763710Y279150D01*
X764670Y279370D01*
X765640Y279150D01*
X766610Y278310D01*
X767250Y276830D01*
X767410Y275130D01*
X767250Y273440D01*
X766610Y271960D01*
X765640Y271110D01*
X764670Y270900D01*
G01X775370D02*
Y279370D01*
G01Y277670D02*
X776180Y278520D01*
X776980Y279150D01*
X778110Y279370D01*
X778910Y279150D01*
X779880Y278520D01*
G01X706350Y382000D02*
X710370Y369300D01*
X714400Y382000D01*
G01X719790Y369300D02*
Y382000D01*
X723000D01*
X724290Y381360D01*
X725260Y380520D01*
X726060Y379250D01*
X726700Y377770D01*
X726860Y375650D01*
X726700Y373530D01*
X726060Y372050D01*
X725260Y370780D01*
X724290Y369930D01*
X723000Y369300D01*
X719790D01*
G01X736270D02*
Y382000D01*
X734340Y379460D01*
G01Y369300D02*
X738200D01*
G01X746170Y379880D02*
X747130Y381150D01*
X748260Y381790D01*
X749550Y382000D01*
X751160Y381580D01*
X752280Y380520D01*
X752600Y379250D01*
X752440Y377980D01*
X751800Y376920D01*
X748580Y374800D01*
X747130Y373320D01*
X746170Y371200D01*
X745850Y369300D01*
X752600D01*
G01X671800Y491180D02*
X673080Y490120D01*
X674530Y489490D01*
X675820D01*
X677110Y490120D01*
X678070Y491180D01*
X678550Y492670D01*
X678230Y494150D01*
X677430Y495420D01*
X675980Y496260D01*
X674050Y496690D01*
X672920Y497530D01*
X672440Y499010D01*
X672760Y500500D01*
X673570Y501550D01*
X674690Y502190D01*
X675820D01*
X676940Y501770D01*
X677910Y500710D01*
G01X684590Y491390D02*
X685550Y490340D01*
X686680Y489700D01*
X688120Y489490D01*
X689570Y489910D01*
X690700Y490760D01*
X691500Y492240D01*
X691660Y493930D01*
X691340Y495630D01*
X690540Y496690D01*
X689410Y497530D01*
X688290Y497740D01*
X687160Y497530D01*
X685710Y496690D01*
X686190Y502190D01*
X690540D01*
G01X715460Y635540D02*
X719480Y622840D01*
X723510Y635540D01*
G01X728900Y622840D02*
Y635540D01*
X732110D01*
X733400Y634900D01*
X734370Y634060D01*
X735170Y632790D01*
X735810Y631310D01*
X735970Y629190D01*
X735810Y627070D01*
X735170Y625590D01*
X734370Y624320D01*
X733400Y623470D01*
X732110Y622840D01*
X728900D01*
G01X747320D02*
Y635540D01*
X741360Y626440D01*
X749410D01*
G01X671800Y745180D02*
X673080Y744120D01*
X674530Y743490D01*
X675820D01*
X677110Y744120D01*
X678070Y745180D01*
X678550Y746670D01*
X678230Y748150D01*
X677430Y749420D01*
X675980Y750260D01*
X674050Y750690D01*
X672920Y751530D01*
X672440Y753010D01*
X672760Y754500D01*
X673570Y755550D01*
X674690Y756190D01*
X675820D01*
X676940Y755770D01*
X677910Y754710D01*
G01X688120Y743490D02*
Y756190D01*
X686190Y753650D01*
G01Y743490D02*
X690050D01*
G01X715460Y889540D02*
X719480Y876840D01*
X723510Y889540D01*
G01X728900Y876840D02*
Y889540D01*
X732110D01*
X733400Y888900D01*
X734370Y888060D01*
X735170Y886790D01*
X735810Y885310D01*
X735970Y883190D01*
X735810Y881070D01*
X735170Y879590D01*
X734370Y878320D01*
X733400Y877470D01*
X732110Y876840D01*
X728900D01*
G01X745380D02*
X746510Y877050D01*
X747800Y877690D01*
X748600Y878740D01*
X748920Y880230D01*
X748600Y881710D01*
X747640Y882980D01*
X746190Y883610D01*
X744580D01*
X743620Y884040D01*
X742810Y885090D01*
X742490Y886580D01*
X742970Y888060D01*
X744100Y889120D01*
X745380Y889540D01*
X746670Y889120D01*
X747800Y888060D01*
X748280Y886580D01*
X747960Y885090D01*
X747150Y884040D01*
X746190Y883610D01*
X744580D01*
X743130Y882980D01*
X742170Y881710D01*
X741850Y880230D01*
X742170Y878740D01*
X742970Y877690D01*
X744260Y877050D01*
X745380Y876840D01*
G01X671800Y999180D02*
X673080Y998120D01*
X674530Y997490D01*
X675820D01*
X677110Y998120D01*
X678070Y999180D01*
X678550Y1000670D01*
X678230Y1002150D01*
X677430Y1003420D01*
X675980Y1004260D01*
X674050Y1004690D01*
X672920Y1005530D01*
X672440Y1007010D01*
X672760Y1008500D01*
X673570Y1009550D01*
X674690Y1010190D01*
X675820D01*
X676940Y1009770D01*
X677910Y1008710D01*
G01X684590Y1000030D02*
X685550Y998550D01*
X686840Y997700D01*
X688290Y997490D01*
X689570Y997700D01*
X690860Y998760D01*
X691660Y1000030D01*
X691820Y1001300D01*
X691500Y1002780D01*
X690380Y1003840D01*
X689250Y1004260D01*
X687800D01*
G01X689250D02*
X690220Y1004900D01*
X691020Y1005960D01*
X691340Y1007230D01*
X691020Y1008500D01*
X690220Y1009550D01*
X688770Y1010190D01*
X687320Y1009980D01*
X685870Y1009130D01*
G01X766150Y349220D02*
X770170Y336520D01*
X774200Y349220D01*
G01X779590Y336520D02*
Y349220D01*
X782800D01*
X784090Y348580D01*
X785060Y347740D01*
X785860Y346470D01*
X786500Y344990D01*
X786660Y342870D01*
X786500Y340750D01*
X785860Y339270D01*
X785060Y338000D01*
X784090Y337150D01*
X782800Y336520D01*
X779590D01*
G01X796070D02*
Y349220D01*
X794140Y346680D01*
G01Y336520D02*
X798000D01*
G01X809020D02*
Y349220D01*
X807090Y346680D01*
G01Y336520D02*
X810950D01*
G01X766150Y463520D02*
X770170Y450820D01*
X774200Y463520D01*
G01X779590Y450820D02*
Y463520D01*
X782800D01*
X784090Y462880D01*
X785060Y462040D01*
X785860Y460770D01*
X786500Y459290D01*
X786660Y457170D01*
X786500Y455050D01*
X785860Y453570D01*
X785060Y452300D01*
X784090Y451450D01*
X782800Y450820D01*
X779590D01*
G01X796070D02*
Y463520D01*
X794140Y460980D01*
G01Y450820D02*
X798000D01*
G01X809020Y463520D02*
X807740Y463100D01*
X806770Y462040D01*
X806130Y460770D01*
X805650Y459070D01*
X805490Y457170D01*
X805650Y455260D01*
X806130Y453570D01*
X806770Y452300D01*
X807740Y451240D01*
X809020Y450820D01*
X810310Y451240D01*
X811280Y452300D01*
X811920Y453570D01*
X812400Y455260D01*
X812560Y457170D01*
X812400Y459070D01*
X811920Y460770D01*
X811280Y462040D01*
X810310Y463100D01*
X809020Y463520D01*
G01X717620Y443300D02*
Y456000D01*
X721640D01*
X722930Y455360D01*
X723730Y454520D01*
X724050Y452820D01*
X723730Y451130D01*
X722770Y450070D01*
X721640Y449440D01*
X717620D01*
G01X721640D02*
X724050Y443300D01*
G01X730250Y445840D02*
X731210Y444360D01*
X732500Y443510D01*
X733950Y443300D01*
X735230Y443510D01*
X736520Y444570D01*
X737320Y445840D01*
X737480Y447110D01*
X737160Y448590D01*
X736040Y449650D01*
X734910Y450070D01*
X733460D01*
G01X734910D02*
X735880Y450710D01*
X736680Y451770D01*
X737000Y453040D01*
X736680Y454310D01*
X735880Y455360D01*
X734430Y456000D01*
X732980Y455790D01*
X731530Y454940D01*
G01X746730Y456000D02*
X745450Y455580D01*
X744480Y454520D01*
X743840Y453250D01*
X743360Y451550D01*
X743200Y449650D01*
X743360Y447740D01*
X743840Y446050D01*
X744480Y444780D01*
X745450Y443720D01*
X746730Y443300D01*
X748020Y443720D01*
X748990Y444780D01*
X749630Y446050D01*
X750110Y447740D01*
X750270Y449650D01*
X750110Y451550D01*
X749630Y453250D01*
X748990Y454520D01*
X748020Y455580D01*
X746730Y456000D01*
G01X772610Y527020D02*
X776630Y514320D01*
X780660Y527020D01*
G01X786050Y514320D02*
Y527020D01*
X789260D01*
X790550Y526380D01*
X791520Y525540D01*
X792320Y524270D01*
X792960Y522790D01*
X793120Y520670D01*
X792960Y518550D01*
X792320Y517070D01*
X791520Y515800D01*
X790550Y514950D01*
X789260Y514320D01*
X786050D01*
G01X799800Y515800D02*
X800930Y514740D01*
X802210Y514320D01*
X803500Y514740D01*
X804630Y516010D01*
X805430Y517920D01*
X805750Y519820D01*
Y522150D01*
X805430Y524060D01*
X804630Y525750D01*
X803660Y526600D01*
X802530Y527020D01*
X801250Y526600D01*
X800280Y525750D01*
X799640Y524480D01*
X799320Y522790D01*
X799640Y521310D01*
X800440Y519820D01*
X801410Y518980D01*
X802530Y518760D01*
X803820Y519190D01*
X804790Y520250D01*
X805750Y522150D01*
G01X772620Y603210D02*
X776640Y590510D01*
X780670Y603210D01*
G01X786060Y590510D02*
Y603210D01*
X789270D01*
X790560Y602570D01*
X791530Y601730D01*
X792330Y600460D01*
X792970Y598980D01*
X793130Y596860D01*
X792970Y594740D01*
X792330Y593260D01*
X791530Y591990D01*
X790560Y591140D01*
X789270Y590510D01*
X786060D01*
G01X799010Y593050D02*
X799970Y591570D01*
X801260Y590720D01*
X802710Y590510D01*
X803990Y590720D01*
X805280Y591780D01*
X806080Y593050D01*
X806240Y594320D01*
X805920Y595800D01*
X804800Y596860D01*
X803670Y597280D01*
X802220D01*
G01X803670D02*
X804640Y597920D01*
X805440Y598980D01*
X805760Y600250D01*
X805440Y601520D01*
X804640Y602570D01*
X803190Y603210D01*
X801740Y603000D01*
X800290Y602150D01*
G01X772610Y717520D02*
X776630Y704820D01*
X780660Y717520D01*
G01X786050Y704820D02*
Y717520D01*
X789260D01*
X790550Y716880D01*
X791520Y716040D01*
X792320Y714770D01*
X792960Y713290D01*
X793120Y711170D01*
X792960Y709050D01*
X792320Y707570D01*
X791520Y706300D01*
X790550Y705450D01*
X789260Y704820D01*
X786050D01*
G01X799480Y715400D02*
X800440Y716670D01*
X801570Y717310D01*
X802860Y717520D01*
X804470Y717100D01*
X805590Y716040D01*
X805910Y714770D01*
X805750Y713500D01*
X805110Y712440D01*
X801890Y710320D01*
X800440Y708840D01*
X799480Y706720D01*
X799160Y704820D01*
X805910D01*
G01X772610Y781020D02*
X776630Y768320D01*
X780660Y781020D01*
G01X786050Y768320D02*
Y781020D01*
X789260D01*
X790550Y780380D01*
X791520Y779540D01*
X792320Y778270D01*
X792960Y776790D01*
X793120Y774670D01*
X792960Y772550D01*
X792320Y771070D01*
X791520Y769800D01*
X790550Y768950D01*
X789260Y768320D01*
X786050D01*
G01X802530D02*
Y781020D01*
X800600Y778480D01*
G01Y768320D02*
X804460D01*
G01X724110Y699300D02*
Y712000D01*
X728130D01*
X729420Y711360D01*
X730220Y710520D01*
X730540Y708820D01*
X730220Y707130D01*
X729260Y706070D01*
X728130Y705440D01*
X724110D01*
G01X728130D02*
X730540Y699300D01*
G01X737220Y704590D02*
X738340Y706070D01*
X739310Y706920D01*
X740600Y707340D01*
X741720Y706920D01*
X742530Y706070D01*
X743170Y704800D01*
X743330Y703320D01*
X743170Y702050D01*
X742530Y700780D01*
X741560Y699720D01*
X740440Y699300D01*
X739150Y699720D01*
X738020Y700990D01*
X737380Y702900D01*
X737220Y705010D01*
X737540Y707770D01*
X738020Y709250D01*
X738830Y710730D01*
X739950Y711790D01*
X741080Y712000D01*
X742210Y711580D01*
X743010Y710520D01*
G01X772610Y857220D02*
X776630Y844520D01*
X780660Y857220D01*
G01X786050Y844520D02*
Y857220D01*
X789260D01*
X790550Y856580D01*
X791520Y855740D01*
X792320Y854470D01*
X792960Y852990D01*
X793120Y850870D01*
X792960Y848750D01*
X792320Y847270D01*
X791520Y846000D01*
X790550Y845150D01*
X789260Y844520D01*
X786050D01*
G01X802210D02*
X802530Y847270D01*
X803020Y849600D01*
X803660Y851720D01*
X804470Y854040D01*
X805750Y857220D01*
X799320D01*
G01X772610Y971520D02*
X776630Y958820D01*
X780660Y971520D01*
G01X786050Y958820D02*
Y971520D01*
X789260D01*
X790550Y970880D01*
X791520Y970040D01*
X792320Y968770D01*
X792960Y967290D01*
X793120Y965170D01*
X792960Y963050D01*
X792320Y961570D01*
X791520Y960300D01*
X790550Y959450D01*
X789260Y958820D01*
X786050D01*
G01X799480Y964110D02*
X800600Y965590D01*
X801570Y966440D01*
X802860Y966860D01*
X803980Y966440D01*
X804790Y965590D01*
X805430Y964320D01*
X805590Y962840D01*
X805430Y961570D01*
X804790Y960300D01*
X803820Y959240D01*
X802700Y958820D01*
X801410Y959240D01*
X800280Y960510D01*
X799640Y962420D01*
X799480Y964530D01*
X799800Y967290D01*
X800280Y968770D01*
X801090Y970250D01*
X802210Y971310D01*
X803340Y971520D01*
X804470Y971100D01*
X805270Y970040D01*
G01X719620Y953300D02*
Y966000D01*
X723640D01*
X724930Y965360D01*
X725730Y964520D01*
X726050Y962820D01*
X725730Y961130D01*
X724770Y960070D01*
X723640Y959440D01*
X719620D01*
G01X723640D02*
X726050Y953300D01*
G01X735780D02*
Y966000D01*
X733850Y963460D01*
G01Y953300D02*
X737710D01*
G01X748730D02*
X749860Y953510D01*
X751150Y954150D01*
X751950Y955200D01*
X752270Y956690D01*
X751950Y958170D01*
X750990Y959440D01*
X749540Y960070D01*
X747930D01*
X746970Y960500D01*
X746160Y961550D01*
X745840Y963040D01*
X746320Y964520D01*
X747450Y965580D01*
X748730Y966000D01*
X750020Y965580D01*
X751150Y964520D01*
X751630Y963040D01*
X751310Y961550D01*
X750500Y960500D01*
X749540Y960070D01*
X747930D01*
X746480Y959440D01*
X745520Y958170D01*
X745200Y956690D01*
X745520Y955200D01*
X746320Y954150D01*
X747610Y953510D01*
X748730Y953300D01*
G01X772610Y1035020D02*
X776630Y1022320D01*
X780660Y1035020D01*
G01X786050Y1022320D02*
Y1035020D01*
X789260D01*
X790550Y1034380D01*
X791520Y1033540D01*
X792320Y1032270D01*
X792960Y1030790D01*
X793120Y1028670D01*
X792960Y1026550D01*
X792320Y1025070D01*
X791520Y1023800D01*
X790550Y1022950D01*
X789260Y1022320D01*
X786050D01*
G01X799000Y1024220D02*
X799960Y1023170D01*
X801090Y1022530D01*
X802530Y1022320D01*
X803980Y1022740D01*
X805110Y1023590D01*
X805910Y1025070D01*
X806070Y1026760D01*
X805750Y1028460D01*
X804950Y1029520D01*
X803820Y1030360D01*
X802700Y1030570D01*
X801570Y1030360D01*
X800120Y1029520D01*
X800600Y1035020D01*
X804950D01*
G01X753110Y1166250D02*
Y1178950D01*
X757130D01*
X758420Y1178310D01*
X759220Y1177470D01*
X759540Y1175770D01*
X759220Y1174080D01*
X758260Y1173020D01*
X757130Y1172390D01*
X753110D01*
G01X757130D02*
X759540Y1166250D01*
G01X765740Y1168150D02*
X766700Y1167100D01*
X767830Y1166460D01*
X769270Y1166250D01*
X770720Y1166670D01*
X771850Y1167520D01*
X772650Y1169000D01*
X772810Y1170690D01*
X772490Y1172390D01*
X771690Y1173450D01*
X770560Y1174290D01*
X769440Y1174500D01*
X768310Y1174290D01*
X766860Y1173450D01*
X767340Y1178950D01*
X771690D01*
G01X782220Y1166250D02*
X783350Y1166460D01*
X784640Y1167100D01*
X785440Y1168150D01*
X785760Y1169640D01*
X785440Y1171120D01*
X784480Y1172390D01*
X783030Y1173020D01*
X781420D01*
X780460Y1173450D01*
X779650Y1174500D01*
X779330Y1175990D01*
X779810Y1177470D01*
X780940Y1178530D01*
X782220Y1178950D01*
X783510Y1178530D01*
X784640Y1177470D01*
X785120Y1175990D01*
X784800Y1174500D01*
X783990Y1173450D01*
X783030Y1173020D01*
X781420D01*
X779970Y1172390D01*
X779010Y1171120D01*
X778690Y1169640D01*
X779010Y1168150D01*
X779810Y1167100D01*
X781100Y1166460D01*
X782220Y1166250D01*
G01X748020Y1293250D02*
Y1305950D01*
X752040D01*
X753330Y1305310D01*
X754130Y1304470D01*
X754450Y1302770D01*
X754130Y1301080D01*
X753170Y1300020D01*
X752040Y1299390D01*
X748020D01*
G01X752040D02*
X754450Y1293250D01*
G01X760650Y1295150D02*
X761610Y1294100D01*
X762740Y1293460D01*
X764180Y1293250D01*
X765630Y1293670D01*
X766760Y1294520D01*
X767560Y1296000D01*
X767720Y1297690D01*
X767400Y1299390D01*
X766600Y1300450D01*
X765470Y1301290D01*
X764350Y1301500D01*
X763220Y1301290D01*
X761770Y1300450D01*
X762250Y1305950D01*
X766600D01*
G01X776810Y1293250D02*
X777130Y1296000D01*
X777620Y1298330D01*
X778260Y1300450D01*
X779070Y1302770D01*
X780350Y1305950D01*
X773920D01*
G01X753110Y1350400D02*
Y1363100D01*
X757130D01*
X758420Y1362460D01*
X759220Y1361620D01*
X759540Y1359920D01*
X759220Y1358230D01*
X758260Y1357170D01*
X757130Y1356540D01*
X753110D01*
G01X757130D02*
X759540Y1350400D01*
G01X765740Y1352300D02*
X766700Y1351250D01*
X767830Y1350610D01*
X769270Y1350400D01*
X770720Y1350820D01*
X771850Y1351670D01*
X772650Y1353150D01*
X772810Y1354840D01*
X772490Y1356540D01*
X771690Y1357600D01*
X770560Y1358440D01*
X769440Y1358650D01*
X768310Y1358440D01*
X766860Y1357600D01*
X767340Y1363100D01*
X771690D01*
G01X782220D02*
X780940Y1362680D01*
X779970Y1361620D01*
X779330Y1360350D01*
X778850Y1358650D01*
X778690Y1356750D01*
X778850Y1354840D01*
X779330Y1353150D01*
X779970Y1351880D01*
X780940Y1350820D01*
X782220Y1350400D01*
X783510Y1350820D01*
X784480Y1351880D01*
X785120Y1353150D01*
X785600Y1354840D01*
X785760Y1356750D01*
X785600Y1358650D01*
X785120Y1360350D01*
X784480Y1361620D01*
X783510Y1362680D01*
X782220Y1363100D01*
G01X746760Y1528200D02*
Y1540900D01*
X750780D01*
X752070Y1540260D01*
X752870Y1539420D01*
X753190Y1537720D01*
X752870Y1536030D01*
X751910Y1534970D01*
X750780Y1534340D01*
X746760D01*
G01X750780D02*
X753190Y1528200D01*
G01X764860D02*
Y1540900D01*
X758900Y1531800D01*
X766950D01*
G01X772820Y1538780D02*
X773780Y1540050D01*
X774910Y1540690D01*
X776200Y1540900D01*
X777810Y1540480D01*
X778930Y1539420D01*
X779250Y1538150D01*
X779090Y1536880D01*
X778450Y1535820D01*
X775230Y1533700D01*
X773780Y1532220D01*
X772820Y1530100D01*
X772500Y1528200D01*
X779250D01*
G01X748020Y1477400D02*
Y1490100D01*
X752040D01*
X753330Y1489460D01*
X754130Y1488620D01*
X754450Y1486920D01*
X754130Y1485230D01*
X753170Y1484170D01*
X752040Y1483540D01*
X748020D01*
G01X752040D02*
X754450Y1477400D01*
G01X766120D02*
Y1490100D01*
X760160Y1481000D01*
X768210D01*
G01X774400Y1478880D02*
X775530Y1477820D01*
X776810Y1477400D01*
X778100Y1477820D01*
X779230Y1479090D01*
X780030Y1481000D01*
X780350Y1482900D01*
Y1485230D01*
X780030Y1487140D01*
X779230Y1488830D01*
X778260Y1489680D01*
X777130Y1490100D01*
X775850Y1489680D01*
X774880Y1488830D01*
X774240Y1487560D01*
X773920Y1485870D01*
X774240Y1484390D01*
X775040Y1482900D01*
X776010Y1482060D01*
X777130Y1481840D01*
X778420Y1482270D01*
X779390Y1483330D01*
X780350Y1485230D01*
G01X748020Y1648850D02*
Y1661550D01*
X752040D01*
X753330Y1660910D01*
X754130Y1660070D01*
X754450Y1658370D01*
X754130Y1656680D01*
X753170Y1655620D01*
X752040Y1654990D01*
X748020D01*
G01X752040D02*
X754450Y1648850D01*
G01X766120D02*
Y1661550D01*
X760160Y1652450D01*
X768210D01*
G01X777130Y1648850D02*
Y1661550D01*
X775200Y1659010D01*
G01Y1648850D02*
X779060D01*
G01X830620Y387310D02*
Y400010D01*
X836730D01*
G01X834480Y393870D02*
X830620D01*
G01X847910Y394080D02*
X848560Y394720D01*
X849040Y395780D01*
X849360Y397260D01*
X849040Y398530D01*
X848390Y399370D01*
X847270Y400010D01*
X842930D01*
Y387310D01*
X848230D01*
X849360Y388160D01*
X850000Y389430D01*
X850320Y390910D01*
X850000Y392390D01*
X849040Y393660D01*
X847910Y394080D01*
X842930D01*
G01X859570Y387310D02*
Y400010D01*
X857640Y397470D01*
G01Y387310D02*
X861500D01*
G01X869470Y397890D02*
X870430Y399160D01*
X871560Y399800D01*
X872850Y400010D01*
X874460Y399590D01*
X875580Y398530D01*
X875900Y397260D01*
X875740Y395990D01*
X875100Y394930D01*
X871880Y392810D01*
X870430Y391330D01*
X869470Y389210D01*
X869150Y387310D01*
X875900D01*
G01X830620Y323810D02*
Y336510D01*
X836730D01*
G01X834480Y330370D02*
X830620D01*
G01X847910Y330580D02*
X848560Y331220D01*
X849040Y332280D01*
X849360Y333760D01*
X849040Y335030D01*
X848390Y335870D01*
X847270Y336510D01*
X842930D01*
Y323810D01*
X848230D01*
X849360Y324660D01*
X850000Y325930D01*
X850320Y327410D01*
X850000Y328890D01*
X849040Y330160D01*
X847910Y330580D01*
X842930D01*
G01X859570Y323810D02*
Y336510D01*
X857640Y333970D01*
G01Y323810D02*
X861500D01*
G01X872520D02*
Y336510D01*
X870590Y333970D01*
G01Y323810D02*
X874450D01*
G01X830620Y438110D02*
Y450810D01*
X836730D01*
G01X834480Y444670D02*
X830620D01*
G01X847910Y444880D02*
X848560Y445520D01*
X849040Y446580D01*
X849360Y448060D01*
X849040Y449330D01*
X848390Y450170D01*
X847270Y450810D01*
X842930D01*
Y438110D01*
X848230D01*
X849360Y438960D01*
X850000Y440230D01*
X850320Y441710D01*
X850000Y443190D01*
X849040Y444460D01*
X847910Y444880D01*
X842930D01*
G01X859570Y438110D02*
Y450810D01*
X857640Y448270D01*
G01Y438110D02*
X861500D01*
G01X872520Y450810D02*
X871240Y450390D01*
X870270Y449330D01*
X869630Y448060D01*
X869150Y446360D01*
X868990Y444460D01*
X869150Y442550D01*
X869630Y440860D01*
X870270Y439590D01*
X871240Y438530D01*
X872520Y438110D01*
X873810Y438530D01*
X874780Y439590D01*
X875420Y440860D01*
X875900Y442550D01*
X876060Y444460D01*
X875900Y446360D01*
X875420Y448060D01*
X874780Y449330D01*
X873810Y450390D01*
X872520Y450810D01*
G01X837090Y501610D02*
Y514310D01*
X843200D01*
G01X840950Y508170D02*
X837090D01*
G01X854380Y508380D02*
X855030Y509020D01*
X855510Y510080D01*
X855830Y511560D01*
X855510Y512830D01*
X854860Y513670D01*
X853740Y514310D01*
X849400D01*
Y501610D01*
X854700D01*
X855830Y502460D01*
X856470Y503730D01*
X856790Y505210D01*
X856470Y506690D01*
X855510Y507960D01*
X854380Y508380D01*
X849400D01*
G01X863310Y503090D02*
X864440Y502030D01*
X865720Y501610D01*
X867010Y502030D01*
X868140Y503300D01*
X868940Y505210D01*
X869260Y507110D01*
Y509440D01*
X868940Y511350D01*
X868140Y513040D01*
X867170Y513890D01*
X866040Y514310D01*
X864760Y513890D01*
X863790Y513040D01*
X863150Y511770D01*
X862830Y510080D01*
X863150Y508600D01*
X863950Y507110D01*
X864920Y506270D01*
X866040Y506050D01*
X867330Y506480D01*
X868300Y507540D01*
X869260Y509440D01*
G01X837090Y577810D02*
Y590510D01*
X843200D01*
G01X840950Y584370D02*
X837090D01*
G01X854380Y584580D02*
X855030Y585220D01*
X855510Y586280D01*
X855830Y587760D01*
X855510Y589030D01*
X854860Y589870D01*
X853740Y590510D01*
X849400D01*
Y577810D01*
X854700D01*
X855830Y578660D01*
X856470Y579930D01*
X856790Y581410D01*
X856470Y582890D01*
X855510Y584160D01*
X854380Y584580D01*
X849400D01*
G01X862510Y580350D02*
X863470Y578870D01*
X864760Y578020D01*
X866210Y577810D01*
X867490Y578020D01*
X868780Y579080D01*
X869580Y580350D01*
X869740Y581620D01*
X869420Y583100D01*
X868300Y584160D01*
X867170Y584580D01*
X865720D01*
G01X867170D02*
X868140Y585220D01*
X868940Y586280D01*
X869260Y587550D01*
X868940Y588820D01*
X868140Y589870D01*
X866690Y590510D01*
X865240Y590300D01*
X863790Y589450D01*
G01X837090Y641310D02*
Y654010D01*
X843200D01*
G01X840950Y647870D02*
X837090D01*
G01X854380Y648080D02*
X855030Y648720D01*
X855510Y649780D01*
X855830Y651260D01*
X855510Y652530D01*
X854860Y653370D01*
X853740Y654010D01*
X849400D01*
Y641310D01*
X854700D01*
X855830Y642160D01*
X856470Y643430D01*
X856790Y644910D01*
X856470Y646390D01*
X855510Y647660D01*
X854380Y648080D01*
X849400D01*
G01X867980Y641310D02*
Y654010D01*
X862020Y644910D01*
X870070D01*
G01X837090Y692110D02*
Y704810D01*
X843200D01*
G01X840950Y698670D02*
X837090D01*
G01X854380Y698880D02*
X855030Y699520D01*
X855510Y700580D01*
X855830Y702060D01*
X855510Y703330D01*
X854860Y704170D01*
X853740Y704810D01*
X849400D01*
Y692110D01*
X854700D01*
X855830Y692960D01*
X856470Y694230D01*
X856790Y695710D01*
X856470Y697190D01*
X855510Y698460D01*
X854380Y698880D01*
X849400D01*
G01X862990Y702690D02*
X863950Y703960D01*
X865080Y704600D01*
X866370Y704810D01*
X867980Y704390D01*
X869100Y703330D01*
X869420Y702060D01*
X869260Y700790D01*
X868620Y699730D01*
X865400Y697610D01*
X863950Y696130D01*
X862990Y694010D01*
X862670Y692110D01*
X869420D01*
G01X837090Y755610D02*
Y768310D01*
X843200D01*
G01X840950Y762170D02*
X837090D01*
G01X854380Y762380D02*
X855030Y763020D01*
X855510Y764080D01*
X855830Y765560D01*
X855510Y766830D01*
X854860Y767670D01*
X853740Y768310D01*
X849400D01*
Y755610D01*
X854700D01*
X855830Y756460D01*
X856470Y757730D01*
X856790Y759210D01*
X856470Y760690D01*
X855510Y761960D01*
X854380Y762380D01*
X849400D01*
G01X866040Y755610D02*
Y768310D01*
X864110Y765770D01*
G01Y755610D02*
X867970D01*
G01X837090Y831810D02*
Y844510D01*
X843200D01*
G01X840950Y838370D02*
X837090D01*
G01X854380Y838580D02*
X855030Y839220D01*
X855510Y840280D01*
X855830Y841760D01*
X855510Y843030D01*
X854860Y843870D01*
X853740Y844510D01*
X849400D01*
Y831810D01*
X854700D01*
X855830Y832660D01*
X856470Y833930D01*
X856790Y835410D01*
X856470Y836890D01*
X855510Y838160D01*
X854380Y838580D01*
X849400D01*
G01X865720Y831810D02*
X866040Y834560D01*
X866530Y836890D01*
X867170Y839010D01*
X867980Y841330D01*
X869260Y844510D01*
X862830D01*
G01X837090Y895310D02*
Y908010D01*
X843200D01*
G01X840950Y901870D02*
X837090D01*
G01X854380Y902080D02*
X855030Y902720D01*
X855510Y903780D01*
X855830Y905260D01*
X855510Y906530D01*
X854860Y907370D01*
X853740Y908010D01*
X849400D01*
Y895310D01*
X854700D01*
X855830Y896160D01*
X856470Y897430D01*
X856790Y898910D01*
X856470Y900390D01*
X855510Y901660D01*
X854380Y902080D01*
X849400D01*
G01X866040Y895310D02*
X867170Y895520D01*
X868460Y896160D01*
X869260Y897210D01*
X869580Y898700D01*
X869260Y900180D01*
X868300Y901450D01*
X866850Y902080D01*
X865240D01*
X864280Y902510D01*
X863470Y903560D01*
X863150Y905050D01*
X863630Y906530D01*
X864760Y907590D01*
X866040Y908010D01*
X867330Y907590D01*
X868460Y906530D01*
X868940Y905050D01*
X868620Y903560D01*
X867810Y902510D01*
X866850Y902080D01*
X865240D01*
X863790Y901450D01*
X862830Y900180D01*
X862510Y898700D01*
X862830Y897210D01*
X863630Y896160D01*
X864920Y895520D01*
X866040Y895310D01*
G01X837090Y946110D02*
Y958810D01*
X843200D01*
G01X840950Y952670D02*
X837090D01*
G01X854380Y952880D02*
X855030Y953520D01*
X855510Y954580D01*
X855830Y956060D01*
X855510Y957330D01*
X854860Y958170D01*
X853740Y958810D01*
X849400D01*
Y946110D01*
X854700D01*
X855830Y946960D01*
X856470Y948230D01*
X856790Y949710D01*
X856470Y951190D01*
X855510Y952460D01*
X854380Y952880D01*
X849400D01*
G01X862990Y951400D02*
X864110Y952880D01*
X865080Y953730D01*
X866370Y954150D01*
X867490Y953730D01*
X868300Y952880D01*
X868940Y951610D01*
X869100Y950130D01*
X868940Y948860D01*
X868300Y947590D01*
X867330Y946530D01*
X866210Y946110D01*
X864920Y946530D01*
X863790Y947800D01*
X863150Y949710D01*
X862990Y951820D01*
X863310Y954580D01*
X863790Y956060D01*
X864600Y957540D01*
X865720Y958600D01*
X866850Y958810D01*
X867980Y958390D01*
X868780Y957330D01*
G01X837090Y1009610D02*
Y1022310D01*
X843200D01*
G01X840950Y1016170D02*
X837090D01*
G01X854380Y1016380D02*
X855030Y1017020D01*
X855510Y1018080D01*
X855830Y1019560D01*
X855510Y1020830D01*
X854860Y1021670D01*
X853740Y1022310D01*
X849400D01*
Y1009610D01*
X854700D01*
X855830Y1010460D01*
X856470Y1011730D01*
X856790Y1013210D01*
X856470Y1014690D01*
X855510Y1015960D01*
X854380Y1016380D01*
X849400D01*
G01X862510Y1011510D02*
X863470Y1010460D01*
X864600Y1009820D01*
X866040Y1009610D01*
X867490Y1010030D01*
X868620Y1010880D01*
X869420Y1012360D01*
X869580Y1014050D01*
X869260Y1015750D01*
X868460Y1016810D01*
X867330Y1017650D01*
X866210Y1017860D01*
X865080Y1017650D01*
X863630Y1016810D01*
X864110Y1022310D01*
X868460D01*
G01X816950Y1807600D02*
X820970Y1794900D01*
X825000Y1807600D01*
G01X830390Y1794900D02*
Y1807600D01*
X833600D01*
X834890Y1806960D01*
X835860Y1806120D01*
X836660Y1804850D01*
X837300Y1803370D01*
X837460Y1801250D01*
X837300Y1799130D01*
X836660Y1797650D01*
X835860Y1796380D01*
X834890Y1795530D01*
X833600Y1794900D01*
X830390D01*
G01X846870D02*
Y1807600D01*
X844940Y1805060D01*
G01Y1794900D02*
X848800D01*
G01X856770Y1800190D02*
X857890Y1801670D01*
X858860Y1802520D01*
X860150Y1802940D01*
X861270Y1802520D01*
X862080Y1801670D01*
X862720Y1800400D01*
X862880Y1798920D01*
X862720Y1797650D01*
X862080Y1796380D01*
X861110Y1795320D01*
X859990Y1794900D01*
X858700Y1795320D01*
X857570Y1796590D01*
X856930Y1798500D01*
X856770Y1800610D01*
X857090Y1803370D01*
X857570Y1804850D01*
X858380Y1806330D01*
X859500Y1807390D01*
X860630Y1807600D01*
X861760Y1807180D01*
X862560Y1806120D01*
G01X816950Y1909200D02*
X820970Y1896500D01*
X825000Y1909200D01*
G01X830390Y1896500D02*
Y1909200D01*
X833600D01*
X834890Y1908560D01*
X835860Y1907720D01*
X836660Y1906450D01*
X837300Y1904970D01*
X837460Y1902850D01*
X837300Y1900730D01*
X836660Y1899250D01*
X835860Y1897980D01*
X834890Y1897130D01*
X833600Y1896500D01*
X830390D01*
G01X846870D02*
Y1909200D01*
X844940Y1906660D01*
G01Y1896500D02*
X848800D01*
G01X856290Y1898400D02*
X857250Y1897350D01*
X858380Y1896710D01*
X859820Y1896500D01*
X861270Y1896920D01*
X862400Y1897770D01*
X863200Y1899250D01*
X863360Y1900940D01*
X863040Y1902640D01*
X862240Y1903700D01*
X861110Y1904540D01*
X859990Y1904750D01*
X858860Y1904540D01*
X857410Y1903700D01*
X857890Y1909200D01*
X862240D01*
G01X816950Y2010800D02*
X820970Y1998100D01*
X825000Y2010800D01*
G01X830390Y1998100D02*
Y2010800D01*
X833600D01*
X834890Y2010160D01*
X835860Y2009320D01*
X836660Y2008050D01*
X837300Y2006570D01*
X837460Y2004450D01*
X837300Y2002330D01*
X836660Y2000850D01*
X835860Y1999580D01*
X834890Y1998730D01*
X833600Y1998100D01*
X830390D01*
G01X846870D02*
Y2010800D01*
X844940Y2008260D01*
G01Y1998100D02*
X848800D01*
G01X861760D02*
Y2010800D01*
X855800Y2001700D01*
X863850D01*
G01X816950Y2112400D02*
X820970Y2099700D01*
X825000Y2112400D01*
G01X830390Y2099700D02*
Y2112400D01*
X833600D01*
X834890Y2111760D01*
X835860Y2110920D01*
X836660Y2109650D01*
X837300Y2108170D01*
X837460Y2106050D01*
X837300Y2103930D01*
X836660Y2102450D01*
X835860Y2101180D01*
X834890Y2100330D01*
X833600Y2099700D01*
X830390D01*
G01X846870D02*
Y2112400D01*
X844940Y2109860D01*
G01Y2099700D02*
X848800D01*
G01X856290Y2102240D02*
X857250Y2100760D01*
X858540Y2099910D01*
X859990Y2099700D01*
X861270Y2099910D01*
X862560Y2100970D01*
X863360Y2102240D01*
X863520Y2103510D01*
X863200Y2104990D01*
X862080Y2106050D01*
X860950Y2106470D01*
X859500D01*
G01X860950D02*
X861920Y2107110D01*
X862720Y2108170D01*
X863040Y2109440D01*
X862720Y2110710D01*
X861920Y2111760D01*
X860470Y2112400D01*
X859020Y2112190D01*
X857570Y2111340D01*
G01X938500Y1066990D02*
X945250Y1079690D01*
G01X938500D02*
X945250Y1066990D01*
G01X951290Y1069530D02*
X952250Y1068050D01*
X953540Y1067200D01*
X954990Y1066990D01*
X956270Y1067200D01*
X957560Y1068260D01*
X958360Y1069530D01*
X958520Y1070800D01*
X958200Y1072280D01*
X957080Y1073340D01*
X955950Y1073760D01*
X954500D01*
G01X955950D02*
X956920Y1074400D01*
X957720Y1075460D01*
X958040Y1076730D01*
X957720Y1078000D01*
X956920Y1079050D01*
X955470Y1079690D01*
X954020Y1079480D01*
X952570Y1078630D01*
G01X938500Y2140490D02*
X945250Y2153190D01*
G01X938500D02*
X945250Y2140490D01*
G01X951770Y2151070D02*
X952730Y2152340D01*
X953860Y2152980D01*
X955150Y2153190D01*
X956760Y2152770D01*
X957880Y2151710D01*
X958200Y2150440D01*
X958040Y2149170D01*
X957400Y2148110D01*
X954180Y2145990D01*
X952730Y2144510D01*
X951770Y2142390D01*
X951450Y2140490D01*
X958200D01*
G54D14*
G01X248100Y768500D02*
Y738500D01*
X188100D01*
Y768500D01*
X248100D01*
G01X304950Y437140D02*
G03X303700Y438390I-1250J0D01*
G01D02*
G03X302450Y437140I0J-1250D01*
G01D02*
G03X303700Y435890I1250J0D01*
G01D02*
G03X304950Y437140I0J1250D01*
G01Y691140D02*
G03X303700Y692390I-1250J0D01*
G01D02*
G03X302450Y691140I0J-1250D01*
G01D02*
G03X303700Y689890I1250J0D01*
G01D02*
G03X304950Y691140I0J1250D01*
G01Y945140D02*
G03X303700Y946390I-1250J0D01*
G01D02*
G03X302450Y945140I0J-1250D01*
G01D02*
G03X303700Y943890I1250J0D01*
G01D02*
G03X304950Y945140I0J1250D01*
G01X481000Y1248340D02*
G03X479750Y1249590I-1250J0D01*
G01D02*
G03X478500Y1248340I0J-1250D01*
G01D02*
G03X479750Y1247090I1250J0D01*
G01D02*
G03X481000Y1248340I0J1250D01*
G01Y1432490D02*
G03X479750Y1433740I-1250J0D01*
G01D02*
G03X478500Y1432490I0J-1250D01*
G01D02*
G03X479750Y1431240I1250J0D01*
G01D02*
G03X481000Y1432490I0J1250D01*
G01X480600Y1603940D02*
G03X479350Y1605190I-1250J0D01*
G01D02*
G03X478100Y1603940I0J-1250D01*
G01D02*
G03X479350Y1602690I1250J0D01*
G01D02*
G03X480600Y1603940I0J1250D01*
G01X502100Y1854350D02*
Y1824350D01*
X442100D01*
Y1854350D01*
X502100D01*
G01X470150Y2038050D02*
G03X468900Y2039300I-1250J0D01*
G01D02*
G03X467650Y2038050I0J-1250D01*
G01D02*
G03X468900Y2036800I1250J0D01*
G01D02*
G03X470150Y2038050I0J1250D01*
G01X532900Y373490D02*
G03X531650Y374740I-1250J0D01*
G01D02*
G03X530400Y373490I0J-1250D01*
G01D02*
G03X531650Y372240I1250J0D01*
G01D02*
G03X532900Y373490I0J1250D01*
G01Y627490D02*
G03X531650Y628740I-1250J0D01*
G01D02*
G03X530400Y627490I0J-1250D01*
G01D02*
G03X531650Y626240I1250J0D01*
G01D02*
G03X532900Y627490I0J1250D01*
G01Y881490D02*
G03X531650Y882740I-1250J0D01*
G01D02*
G03X530400Y881490I0J-1250D01*
G01D02*
G03X531650Y880240I1250J0D01*
G01D02*
G03X532900Y881490I0J1250D01*
G01X659900Y373490D02*
G03X658650Y374740I-1250J0D01*
G01D02*
G03X657400Y373490I0J-1250D01*
G01D02*
G03X658650Y372240I1250J0D01*
G01D02*
G03X659900Y373490I0J1250D01*
G01Y627490D02*
G03X658650Y628740I-1250J0D01*
G01D02*
G03X657400Y627490I0J-1250D01*
G01D02*
G03X658650Y626240I1250J0D01*
G01D02*
G03X659900Y627490I0J1250D01*
G01Y881490D02*
G03X658650Y882740I-1250J0D01*
G01D02*
G03X657400Y881490I0J-1250D01*
G01D02*
G03X658650Y880240I1250J0D01*
G01D02*
G03X659900Y881490I0J1250D01*
G01X663000Y1199490D02*
Y1215490D01*
G01X671000Y1207490D02*
X655000D01*
G01X663000Y1383640D02*
Y1399640D01*
G01X671000Y1391640D02*
X655000D01*
G01X662600Y1555090D02*
Y1571090D01*
G01X670600Y1563090D02*
X654600D01*
G01X657900Y1708640D02*
G03I-1250J0D01*
G01Y1810240D02*
G03I-1250J0D01*
G01Y1911840D02*
G03I-1250J0D01*
G01Y2013440D02*
G03I-1250J0D01*
G01X911500Y1035590D02*
G03I-1250J0D01*
G01Y2108740D02*
G03I-1250J0D01*
M02*
